<svg width="83" height="58" viewBox="0 0 83 58" fill="none" xmlns="http://www.w3.org/2000/svg">
<g filter="url(#filter0_d_169_144)">
<rect x="4" width="75" height="50" rx="10" fill="white"/>
<path d="M41.8158 11C42.1299 11 42.4311 11.1264 42.6532 11.3515C42.8752 11.5765 43 11.8817 43 12.2C43 12.5183 42.8752 12.8235 42.6532 13.0485C42.4311 13.2736 42.1299 13.4 41.8158 13.4C38.7798 13.4 35.8681 14.6221 33.7213 16.7976C31.5745 18.973 30.3684 21.9235 30.3684 25C30.3684 28.0765 31.5745 31.027 33.7213 33.2024C35.8681 35.3779 38.7798 36.6 41.8158 36.6C42.1299 36.6 42.4311 36.7264 42.6532 36.9515C42.8752 37.1765 43 37.4817 43 37.8C43 38.1183 42.8752 38.4235 42.6532 38.6485C42.4311 38.8736 42.1299 39 41.8158 39C38.1516 39 34.6375 37.525 32.0466 34.8995C29.4556 32.274 28 28.713 28 25C28 21.287 29.4556 17.726 32.0466 15.1005C34.6375 12.475 38.1516 11 41.8158 11Z" fill="#154B19"/>
<path d="M49.3015 21.0181C49.0941 20.7906 48.9813 20.4897 48.9866 20.1788C48.992 19.868 49.1152 19.5713 49.3303 19.3515C49.5454 19.1316 49.8356 19.0057 50.1397 19.0002C50.4438 18.9947 50.7382 19.1101 50.9607 19.3221L55.6567 24.1221C55.8765 24.3471 56 24.6521 56 24.9701C56 25.2881 55.8765 25.5931 55.6567 25.8181L50.9607 30.6181C50.8533 30.736 50.7237 30.8305 50.5797 30.8961C50.4356 30.9617 50.2802 30.997 50.1226 30.9998C49.9649 31.0027 49.8084 30.973 49.6622 30.9127C49.516 30.8523 49.3832 30.7625 49.2717 30.6485C49.1602 30.5346 49.0724 30.3988 49.0133 30.2494C48.9543 30.1 48.9253 29.94 48.9281 29.7788C48.9308 29.6177 48.9653 29.4588 49.0295 29.3116C49.0937 29.1644 49.1862 29.0319 49.3015 28.9221L51.9938 26.1701H39.174C38.8626 26.1701 38.564 26.0436 38.3439 25.8186C38.1237 25.5936 38 25.2883 38 24.9701C38 24.6518 38.1237 24.3466 38.3439 24.1215C38.564 23.8965 38.8626 23.7701 39.174 23.7701H51.9938L49.3015 21.0181Z" fill="#154B19"/>
</g>
<defs>
<filter id="filter0_d_169_144" x="0" y="0" width="83" height="58" filterUnits="userSpaceOnUse" color-interpolation-filters="sRGB">
<feFlood flood-opacity="0" result="BackgroundImageFix"/>
<feColorMatrix in="SourceAlpha" type="matrix" values="0 0 0 0 0 0 0 0 0 0 0 0 0 0 0 0 0 0 127 0" result="hardAlpha"/>
<feOffset dy="4"/>
<feGaussianBlur stdDeviation="2"/>
<feComposite in2="hardAlpha" operator="out"/>
<feColorMatrix type="matrix" values="0 0 0 0 0 0 0 0 0 0 0 0 0 0 0 0 0 0 0.25 0"/>
<feBlend mode="normal" in2="BackgroundImageFix" result="effect1_dropShadow_169_144"/>
<feBlend mode="normal" in="SourceGraphic" in2="effect1_dropShadow_169_144" result="shape"/>
</filter>
</defs>
</svg>
