<svg width="500" height="467" viewBox="0 0 500 467" fill="none" xmlns="http://www.w3.org/2000/svg">
<path d="M250 466.832C388.071 466.832 500 402.208 500 322.492C500 242.775 388.071 178.152 250 178.152C111.929 178.152 0 242.775 0 322.492C0 402.208 111.929 466.832 250 466.832Z" fill="#F0F0F0"/>
<path d="M198.268 431.866C245.88 431.866 284.477 409.584 284.477 382.098C284.477 354.611 245.88 332.329 198.268 332.329C150.656 332.329 112.059 354.611 112.059 382.098C112.059 409.584 150.656 431.866 198.268 431.866Z" fill="#E0E0E0"/>
<path d="M443.429 319.828L433.316 313.992C433.316 313.992 430.844 292.344 432.489 275.578C434.802 252.02 450.019 223.666 468.165 230.33C486.311 236.994 459.845 260.976 453.956 280.958C448.067 300.94 443.429 319.828 443.429 319.828Z" fill="#1A5319"/>
<path opacity="0.15" d="M443.429 319.828L433.316 313.992C433.316 313.992 430.844 292.344 432.489 275.578C434.802 252.02 450.019 223.666 468.165 230.33C486.311 236.994 459.845 260.976 453.956 280.958C448.067 300.94 443.429 319.828 443.429 319.828Z" fill="black"/>
<path d="M438.113 317.377C438.274 317.369 438.426 317.297 438.535 317.178C438.644 317.059 438.702 316.902 438.697 316.74C436.924 264.393 462.987 238.055 463.241 237.8C463.357 237.685 463.421 237.528 463.421 237.365C463.421 237.202 463.357 237.045 463.241 236.93C463.185 236.873 463.118 236.828 463.044 236.797C462.971 236.767 462.891 236.751 462.812 236.751C462.732 236.751 462.652 236.767 462.579 236.797C462.505 236.828 462.438 236.873 462.382 236.93C462.106 237.185 435.672 263.905 437.466 316.783C437.468 316.864 437.487 316.945 437.521 317.019C437.556 317.094 437.604 317.16 437.664 317.216C437.725 317.271 437.795 317.314 437.872 317.341C437.949 317.369 438.031 317.381 438.113 317.377Z" fill="white"/>
<path d="M449.786 323.468L442.591 319.319C442.591 319.319 441.36 304.462 448.65 286.423C455.017 270.717 470.722 257.676 478.639 260.413C486.555 263.151 486.353 268.765 482.491 274.654C478.628 280.544 455.166 294.562 449.786 323.468Z" fill="#1A5319"/>
<path d="M445.987 321.897C446.149 321.895 446.304 321.829 446.419 321.714C446.534 321.599 446.599 321.444 446.602 321.282C446.454 288.174 477.535 265.804 477.853 265.581C477.92 265.536 477.976 265.478 478.019 265.41C478.062 265.342 478.091 265.266 478.104 265.186C478.117 265.107 478.114 265.026 478.094 264.948C478.075 264.87 478.04 264.797 477.991 264.732C477.898 264.602 477.756 264.513 477.597 264.485C477.439 264.457 477.275 264.493 477.142 264.584C476.824 264.807 445.233 287.558 445.371 321.282C445.371 321.445 445.436 321.602 445.551 321.717C445.667 321.833 445.823 321.897 445.987 321.897Z" fill="white"/>
<path d="M69.2411 306.829L78.5793 300.526C78.5793 300.526 82.686 276.119 78.8658 254.588C73.4963 224.387 52.6232 214.348 45.195 217.532C37.7669 220.715 36.1751 229.703 50.0446 246.937C58.2686 257.071 68.9545 278.708 69.2411 306.829Z" fill="#1A5319"/>
<g opacity="0.15">
<path d="M69.2411 306.829L78.5793 300.526C78.5793 300.526 82.686 276.119 78.8658 254.588C73.4963 224.387 52.6232 214.348 45.195 217.532C37.7669 220.715 36.1751 229.703 50.0446 246.937C58.2686 257.071 68.9545 278.708 69.2411 306.829Z" fill="black"/>
</g>
<path d="M72.4458 294.732H72.3502C72.2549 294.726 72.1618 294.7 72.0772 294.655C71.9926 294.611 71.9183 294.549 71.8592 294.474C71.8001 294.399 71.7575 294.312 71.7342 294.219C71.711 294.127 71.7075 294.03 71.7242 293.936C75.0987 265.507 63.0969 234.648 50.0339 222.371C49.9082 222.244 49.8377 222.072 49.8377 221.893C49.8377 221.714 49.9082 221.543 50.0339 221.416C50.0962 221.352 50.1705 221.302 50.2525 221.267C50.3345 221.233 50.4225 221.215 50.5115 221.215C50.6004 221.215 50.6884 221.233 50.7704 221.267C50.8524 221.302 50.9267 221.352 50.989 221.416C64.296 233.916 76.5206 265.284 73.1037 294.127C73.0836 294.289 73.0065 294.439 72.8859 294.55C72.7654 294.661 72.6094 294.725 72.4458 294.732Z" fill="white"/>
<path d="M44.7918 323.32C43.3062 324.211 38.9766 320.996 37.7775 320.221C35.7224 318.879 34.0484 317.03 32.9174 314.851C31.6485 312.381 31.1776 309.578 31.5697 306.829C31.787 305.394 32.1026 303.976 32.5141 302.584C32.8855 301.194 33.2569 299.804 33.5753 298.403C34.0459 297.041 34.2266 295.595 34.1059 294.159C33.692 291.325 31.1346 289.384 28.8 287.718C26.232 285.86 23.4942 283.409 23.4942 279.992C23.6251 277.308 24.6526 274.744 26.4124 272.713C28.0042 270.59 29.9143 268.744 31.3468 266.526C32.467 264.989 33.0388 263.121 32.9704 261.22C32.7859 260.049 32.3673 258.926 31.7395 257.92C30.4873 255.713 28.8637 253.675 27.9829 251.33C27.1022 248.985 27.1658 245.971 29.0441 244.22C30.5403 242.788 32.8218 242.554 34.8911 242.65C36.841 242.844 38.7246 243.463 40.4092 244.464C45.8954 247.383 49.1214 253.75 54.9259 255.967C57.165 256.816 59.6057 256.965 61.9296 257.538C64.2536 258.111 66.6518 259.246 67.766 261.358C69.9626 265.55 66.1318 270.834 67.7024 275.281C69.1031 279.228 73.0082 280.671 75.2154 284.205C76.1112 285.774 76.483 287.588 76.2766 289.384C76.1521 292.414 75.4723 295.396 74.271 298.181C72.8893 301.069 71.33 303.869 69.6019 306.564C69.6019 306.564 45.0146 323.182 44.7918 323.32Z" fill="#1A5319"/>
<path d="M59.1388 314.522C59.0496 314.521 58.9615 314.502 58.8797 314.467C58.7978 314.431 58.7237 314.38 58.6616 314.316C58.5996 314.252 58.5507 314.176 58.5179 314.093C58.485 314.01 58.4688 313.922 58.4702 313.833C59.0645 286.964 45.8424 257.591 36.4829 249.101C36.3499 248.981 36.2697 248.814 36.2597 248.635C36.2498 248.456 36.3109 248.28 36.4298 248.146C36.4921 248.083 36.5664 248.032 36.6484 247.998C36.7304 247.964 36.8184 247.946 36.9074 247.946C36.9963 247.946 37.0843 247.964 37.1663 247.998C37.2483 248.032 37.3226 248.083 37.3849 248.146C46.9354 256.742 60.4228 286.624 59.8179 313.864C59.8165 313.952 59.7979 314.039 59.763 314.119C59.7281 314.2 59.6777 314.273 59.6146 314.334C59.5516 314.395 59.4771 314.443 59.3954 314.476C59.3138 314.508 59.2266 314.524 59.1388 314.522Z" fill="white"/>
<path d="M54.1831 281.785C54.1204 281.801 54.0548 281.801 53.9921 281.785C45.3118 279.281 34.5515 279.026 34.4454 279.016C34.3567 279.014 34.2692 278.995 34.1879 278.96C34.1066 278.924 34.0332 278.873 33.9719 278.809C33.9107 278.745 33.8629 278.669 33.8312 278.586C33.7995 278.503 33.7847 278.415 33.7875 278.326C33.7858 278.236 33.8028 278.148 33.8373 278.065C33.8718 277.982 33.9231 277.907 33.9879 277.846C34.0528 277.784 34.1297 277.736 34.214 277.706C34.2982 277.675 34.3879 277.662 34.4773 277.668C34.5834 277.668 45.5134 277.933 54.3635 280.48C54.5345 280.532 54.6783 280.649 54.7638 280.806C54.8492 280.963 54.8693 281.147 54.8198 281.319C54.7785 281.455 54.6941 281.574 54.5793 281.658C54.4645 281.742 54.3255 281.787 54.1831 281.785Z" fill="white"/>
<path d="M304.289 288.354L300.267 286.03C299.597 285.595 299.039 285.008 298.639 284.316C298.239 283.625 298.008 282.848 297.965 282.05V114.896C298.009 114.099 298.239 113.324 298.637 112.633C299.035 111.942 299.59 111.354 300.257 110.916L412.051 46.3762C412.763 46.0154 413.55 45.8274 414.348 45.8274C415.146 45.8274 415.933 46.0154 416.645 46.3762L420.667 48.7002C421.337 49.1352 421.895 49.7225 422.295 50.414C422.696 51.1055 422.927 51.8818 422.97 52.6795V219.834C422.926 220.631 422.696 221.406 422.298 222.097C421.9 222.788 421.345 223.376 420.678 223.814L308.884 288.364C308.172 288.726 307.384 288.914 306.585 288.912C305.787 288.91 305 288.719 304.289 288.354Z" fill="#455A64"/>
<path d="M422.97 52.3081C422.811 51.1196 421.845 50.6846 420.688 51.3531L308.884 115.904C308.208 116.328 307.65 116.916 307.26 117.612L298.633 112.635C299.019 111.933 299.578 111.342 300.257 110.916L412.051 46.3762C412.763 46.0154 413.55 45.8274 414.348 45.8274C415.146 45.8274 415.933 46.0154 416.645 46.3762L420.667 48.7002C421.288 49.1001 421.816 49.6295 422.213 50.2523C422.611 50.875 422.869 51.5763 422.97 52.3081Z" fill="#455A64"/>
<path d="M308.491 288.545C307.812 288.82 307.082 288.946 306.35 288.915C305.617 288.884 304.9 288.696 304.247 288.365L300.214 286.03C299.547 285.592 298.992 285.004 298.594 284.313C298.196 283.622 297.966 282.847 297.922 282.051V114.896C297.95 114.098 298.18 113.32 298.591 112.635L307.218 117.612C306.799 118.298 306.565 119.08 306.539 119.883V287.038C306.581 288.354 307.409 288.959 308.491 288.545Z" fill="#263238"/>
<path d="M306.581 119.905V287.038C306.581 288.503 307.642 289.097 308.884 288.365L420.678 223.814C421.345 223.376 421.9 222.788 422.298 222.097C422.696 221.406 422.926 220.631 422.97 219.835V52.6797C422.97 51.2153 421.909 50.6211 420.678 51.3533L308.884 115.904C308.211 116.341 307.652 116.932 307.251 117.627C306.851 118.323 306.621 119.103 306.581 119.905Z" fill="#37474F"/>
<path d="M280.477 183.575C279.033 182.715 272.337 178.906 271.987 178.704C271.714 178.541 271.482 178.319 271.306 178.054C271.13 177.789 271.016 177.489 270.973 177.174C270.929 176.859 270.956 176.539 271.053 176.236C271.15 175.933 271.313 175.656 271.531 175.425L297.965 147.071L306.581 152.016L280.158 180.391C279.951 180.612 279.793 180.875 279.696 181.162C279.598 181.449 279.563 181.754 279.593 182.055C279.624 182.357 279.718 182.649 279.87 182.911C280.023 183.173 280.229 183.399 280.477 183.575Z" fill="#455A64"/>
<path d="M306.581 152.047L280.158 180.391C279.865 180.704 279.673 181.099 279.609 181.524C279.545 181.948 279.61 182.382 279.798 182.768C279.985 183.155 280.285 183.475 280.658 183.687C281.032 183.899 281.46 183.993 281.888 183.957L306.581 181.919V152.047Z" fill="#37474F"/>
<path d="M364.776 101.016C377.807 93.4921 388.365 99.5938 388.365 114.641C388.365 129.688 377.807 147.972 364.776 155.496C351.745 163.02 341.186 156.918 341.186 141.881C341.186 126.845 351.745 108.539 364.776 101.016Z" fill="#1A5319"/>
<path d="M364.606 112.858C368.851 110.418 372.257 112.391 372.257 117.273C372.112 119.926 371.344 122.508 370.015 124.809C368.685 127.11 366.832 129.065 364.606 130.516C360.361 132.957 356.944 130.983 356.944 126.102C357.09 123.447 357.86 120.865 359.191 118.564C360.522 116.263 362.377 114.308 364.606 112.858Z" fill="white"/>
<path d="M379.696 138.878C379.696 130.866 374.061 127.609 367.121 131.62L362.781 134.124C355.841 138.135 350.206 147.919 350.206 155.91V158.106C351.516 158.525 352.884 158.736 354.259 158.732C357.982 158.606 361.608 157.509 364.776 155.549C370.808 151.833 375.911 146.788 379.696 140.799V138.878Z" fill="white"/>
<path d="M349.834 229.979L379.717 212.725C380.99 211.993 382.02 212.587 382.02 214.051V223.676C381.976 224.474 381.745 225.25 381.345 225.942C380.945 226.633 380.387 227.22 379.717 227.655L349.834 244.91C348.561 245.642 347.532 245.048 347.532 243.584V233.959C347.575 233.161 347.806 232.385 348.206 231.693C348.607 231.002 349.164 230.414 349.834 229.979Z" fill="#1A5319"/>
<path d="M335.201 208.48L394.319 174.332C395.836 173.451 397.078 174.162 397.078 175.923V179.5C397.026 180.456 396.749 181.388 396.269 182.217C395.79 183.047 395.122 183.752 394.319 184.275L335.169 218.423C333.652 219.304 332.421 218.593 332.421 216.831V213.287C332.469 212.323 332.747 211.384 333.23 210.548C333.714 209.712 334.389 209.003 335.201 208.48Z" fill="#FAFAFA"/>
<path d="M342.12 183.766C342.926 183.299 343.552 183.224 343.998 183.553C344.444 183.882 344.667 184.614 344.667 185.739C344.689 186.766 344.46 187.783 343.998 188.7C343.581 189.529 342.927 190.216 342.12 190.674L340.528 191.597V195.025C340.525 195.143 340.496 195.258 340.443 195.364C340.406 195.46 340.339 195.542 340.252 195.598L339.446 196.064C339.418 196.085 339.385 196.096 339.35 196.096C339.316 196.096 339.282 196.085 339.255 196.064C339.197 195.993 339.171 195.901 339.18 195.81V185.888C339.179 185.771 339.205 185.655 339.255 185.548C339.295 185.454 339.361 185.373 339.446 185.315L342.12 183.766ZM340.528 189.676L342.067 188.785C342.439 188.575 342.752 188.276 342.979 187.915C343.221 187.488 343.338 187.003 343.319 186.514C343.319 185.941 343.202 185.612 342.979 185.516C342.822 185.478 342.658 185.476 342.5 185.511C342.341 185.546 342.193 185.617 342.067 185.718L340.528 186.609V189.676Z" fill="#FAFAFA"/>
<path d="M349.113 179.722C349.219 179.659 349.304 179.659 349.357 179.722C349.425 179.817 349.472 179.926 349.495 180.041L351.946 188.339C351.946 188.339 351.946 188.403 351.946 188.434C351.945 188.553 351.915 188.669 351.861 188.774C351.824 188.87 351.757 188.952 351.67 189.008L350.949 189.421C350.821 189.496 350.726 189.506 350.673 189.421C350.621 189.368 350.585 189.302 350.567 189.23L350.132 187.777L346.948 189.602L346.524 191.554C346.493 191.66 346.454 191.763 346.407 191.862C346.354 191.991 346.256 192.097 346.131 192.159L345.409 192.573C345.383 192.595 345.349 192.608 345.314 192.608C345.279 192.608 345.245 192.595 345.218 192.573C345.163 192.504 345.136 192.417 345.144 192.329C345.138 192.29 345.138 192.251 345.144 192.212L347.585 181.091C347.614 180.928 347.66 180.768 347.723 180.614C347.775 180.502 347.86 180.409 347.967 180.348L349.113 179.722ZM349.665 186.153L348.603 182.407L347.542 187.416L349.665 186.153Z" fill="#FAFAFA"/>
<path d="M355.66 175.786C356.015 175.561 356.42 175.427 356.838 175.393C357.134 175.366 357.431 175.433 357.687 175.584C357.92 175.735 358.101 175.953 358.207 176.21C358.323 176.471 358.388 176.752 358.398 177.038C358.405 177.156 358.38 177.273 358.324 177.377C358.286 177.473 358.219 177.555 358.133 177.611L357.432 178.014C357.316 178.078 357.231 178.088 357.178 178.014C357.112 177.971 357.057 177.913 357.019 177.844C356.976 177.749 356.915 177.663 356.838 177.592C356.761 177.521 356.671 177.466 356.573 177.43C356.25 177.384 355.921 177.468 355.66 177.664C355.488 177.775 355.325 177.899 355.172 178.035C355.014 178.18 354.875 178.344 354.758 178.523C354.645 178.696 354.553 178.881 354.482 179.075C354.42 179.26 354.387 179.453 354.387 179.648C354.374 179.827 354.407 180.006 354.482 180.168C354.515 180.225 354.561 180.273 354.616 180.308C354.672 180.344 354.735 180.365 354.801 180.37C354.997 180.404 355.198 180.404 355.395 180.37L356.318 180.168C356.662 180.066 357.021 180.023 357.379 180.041C357.635 180.04 357.885 180.122 358.09 180.274C358.285 180.438 358.425 180.656 358.494 180.9C358.597 181.244 358.644 181.603 358.631 181.962C358.631 182.436 358.563 182.907 358.43 183.362C358.3 183.83 358.111 184.28 357.867 184.699C357.61 185.13 357.304 185.528 356.955 185.888C356.598 186.258 356.191 186.576 355.745 186.832C355.418 187.031 355.059 187.171 354.684 187.246C354.379 187.305 354.063 187.279 353.771 187.172C353.506 187.049 353.287 186.844 353.145 186.588C352.972 186.261 352.877 185.897 352.869 185.527C352.868 185.406 352.894 185.287 352.944 185.177C352.991 185.087 353.06 185.01 353.145 184.954L353.846 184.551C353.952 184.487 354.037 184.466 354.1 184.498C354.164 184.53 354.206 184.583 354.249 184.678C354.293 184.787 354.35 184.891 354.419 184.986C354.485 185.078 354.577 185.149 354.684 185.187C354.824 185.22 354.969 185.22 355.108 185.187C355.334 185.134 355.549 185.045 355.745 184.922C355.951 184.805 356.146 184.67 356.329 184.519C356.686 184.237 356.969 183.873 357.156 183.458C357.241 183.245 357.285 183.018 357.284 182.789C357.294 182.706 357.287 182.622 357.263 182.542C357.239 182.461 357.199 182.387 357.146 182.322C357.088 182.272 357.021 182.234 356.948 182.212C356.874 182.19 356.797 182.184 356.721 182.195C356.481 182.205 356.242 182.244 356.01 182.312C355.734 182.375 355.416 182.45 355.045 182.513C354.761 182.584 354.466 182.606 354.175 182.577C353.945 182.562 353.728 182.468 353.559 182.312C353.376 182.132 353.247 181.904 353.188 181.654C353.102 181.285 353.063 180.907 353.071 180.529C353.07 180.062 353.138 179.597 353.273 179.149C353.399 178.689 353.585 178.247 353.824 177.834C354.054 177.423 354.332 177.042 354.652 176.698C354.943 176.348 355.283 176.04 355.66 175.786Z" fill="#FAFAFA"/>
<path d="M362.632 171.774C362.985 171.543 363.39 171.405 363.81 171.371C364.106 171.346 364.402 171.413 364.659 171.562C364.886 171.717 365.063 171.935 365.168 172.188C365.284 172.449 365.349 172.73 365.359 173.016C365.372 173.134 365.346 173.253 365.285 173.356C365.248 173.452 365.181 173.533 365.094 173.589L364.394 173.992C364.288 174.056 364.203 174.077 364.139 173.992C364.071 173.95 364.019 173.886 363.99 173.812C363.893 173.626 363.731 173.482 363.534 173.409C363.376 173.385 363.214 173.394 363.06 173.434C362.905 173.474 362.759 173.545 362.632 173.642C362.455 173.75 362.288 173.875 362.133 174.013C361.979 174.159 361.844 174.323 361.73 174.502C361.613 174.672 361.52 174.858 361.454 175.053C361.388 175.237 361.352 175.431 361.348 175.626C361.336 175.805 361.368 175.984 361.444 176.146C361.476 176.203 361.522 176.252 361.578 176.287C361.633 176.322 361.697 176.343 361.762 176.348C361.959 176.382 362.16 176.382 362.356 176.348L363.279 176.146C363.625 176.05 363.982 176.007 364.341 176.019C364.597 176.017 364.847 176.099 365.052 176.253C365.246 176.418 365.389 176.635 365.465 176.879C365.559 177.224 365.602 177.582 365.593 177.94C365.592 178.414 365.524 178.885 365.391 179.341C365.262 179.808 365.073 180.258 364.829 180.678C364.573 181.112 364.267 181.515 363.916 181.877C363.558 182.238 363.155 182.552 362.717 182.811C362.39 183.009 362.031 183.149 361.656 183.224C361.354 183.282 361.042 183.257 360.754 183.15C360.483 183.031 360.26 182.826 360.117 182.566C359.943 182.24 359.852 181.875 359.852 181.505C359.839 181.387 359.865 181.268 359.926 181.166C359.964 181.07 360.03 180.988 360.117 180.932L360.818 180.529C360.924 180.465 361.019 180.444 361.072 180.476C361.109 180.493 361.142 180.518 361.167 180.549C361.193 180.58 361.211 180.617 361.221 180.656C361.269 180.763 361.326 180.866 361.391 180.964C361.46 181.057 361.556 181.128 361.666 181.166C361.806 181.198 361.951 181.198 362.091 181.166C362.316 181.113 362.531 181.023 362.728 180.9C362.928 180.78 363.12 180.646 363.301 180.497C363.487 180.352 363.651 180.18 363.789 179.988C363.926 179.805 364.04 179.605 364.128 179.394C364.213 179.181 364.257 178.954 364.256 178.725C364.266 178.642 364.259 178.558 364.235 178.477C364.211 178.397 364.171 178.322 364.118 178.258C364.06 178.208 363.993 178.17 363.919 178.148C363.846 178.126 363.769 178.12 363.693 178.131C363.456 178.145 363.222 178.184 362.993 178.248C362.717 178.311 362.388 178.385 362.027 178.449C361.739 178.52 361.442 178.542 361.146 178.513C360.916 178.501 360.698 178.407 360.531 178.248C360.351 178.067 360.226 177.839 360.17 177.59C360.076 177.226 360.033 176.851 360.043 176.475C360.047 176.005 360.114 175.537 360.245 175.085C360.376 174.626 360.561 174.185 360.796 173.769C361.026 173.357 361.308 172.975 361.635 172.634C361.92 172.297 362.257 172.007 362.632 171.774Z" fill="#FAFAFA"/>
<path d="M370.368 173.101L369.508 178.184C369.483 178.337 369.44 178.486 369.381 178.629C369.34 178.744 369.261 178.841 369.158 178.905L368.352 179.372C368.246 179.436 368.171 179.436 368.118 179.372C368.047 179.285 368.006 179.177 368.002 179.064L366.728 170.098C366.728 170.098 366.728 170.013 366.728 169.981C366.731 169.863 366.76 169.747 366.813 169.641C366.853 169.547 366.92 169.466 367.004 169.408L367.736 168.983C367.798 168.959 367.866 168.959 367.927 168.983C367.991 168.983 368.033 169.068 368.055 169.238L368.893 175.276L369.625 170.745C369.644 170.632 369.676 170.522 369.721 170.416C369.763 170.282 369.854 170.168 369.975 170.098L370.792 169.62C370.909 169.556 370.994 169.567 371.047 169.62C371.093 169.688 371.125 169.763 371.143 169.843L371.885 173.525L372.724 166.521C372.734 166.384 372.774 166.25 372.841 166.129C372.89 166.05 372.955 165.981 373.032 165.927L373.764 165.503C373.791 165.482 373.825 165.471 373.859 165.471C373.894 165.471 373.927 165.482 373.955 165.503C373.985 165.538 374.008 165.578 374.023 165.622C374.037 165.665 374.043 165.712 374.04 165.757C374.044 165.8 374.044 165.842 374.04 165.885L372.766 176.316C372.745 176.469 372.706 176.618 372.649 176.762C372.601 176.875 372.52 176.971 372.416 177.038L371.599 177.505C371.503 177.558 371.429 177.558 371.376 177.505C371.322 177.407 371.28 177.304 371.249 177.197L370.368 173.101Z" fill="#FAFAFA"/>
<path d="M375.334 168.601C375.358 168.013 375.429 167.427 375.546 166.85C375.668 166.286 375.853 165.738 376.098 165.216C376.332 164.709 376.632 164.234 376.99 163.805C377.353 163.379 377.787 163.02 378.274 162.744C378.647 162.49 379.085 162.347 379.536 162.33C379.874 162.334 380.197 162.466 380.438 162.701C380.696 162.99 380.881 163.335 380.98 163.709C381.117 164.197 381.191 164.699 381.203 165.206C381.203 165.397 381.203 165.609 381.203 165.842C381.203 166.076 381.203 166.32 381.203 166.574C381.203 166.829 381.203 167.073 381.203 167.307C381.203 167.54 381.203 167.763 381.203 167.965C381.18 168.55 381.109 169.132 380.99 169.705C380.868 170.267 380.686 170.815 380.449 171.339C380.208 171.845 379.905 172.319 379.547 172.75C379.184 173.172 378.754 173.531 378.274 173.812C377.891 174.063 377.447 174.207 376.99 174.226C376.824 174.229 376.66 174.199 376.507 174.137C376.354 174.075 376.215 173.982 376.098 173.865C375.822 173.568 375.631 173.201 375.546 172.804C375.42 172.314 375.349 171.812 375.334 171.307C375.334 171.116 375.334 170.904 375.334 170.671C375.334 170.437 375.334 170.193 375.334 169.938C375.334 169.684 375.334 169.45 375.334 169.206C375.334 168.962 375.324 168.792 375.334 168.601ZM379.855 166.065C379.878 165.806 379.849 165.544 379.769 165.296C379.689 165.048 379.559 164.819 379.388 164.622C379.112 164.378 378.73 164.388 378.274 164.622C377.778 164.913 377.385 165.351 377.149 165.874C376.848 166.493 376.688 167.171 376.682 167.859C376.682 168.251 376.682 168.686 376.682 169.164C376.682 169.641 376.682 170.066 376.682 170.448C376.658 170.707 376.688 170.969 376.768 171.217C376.848 171.465 376.978 171.694 377.149 171.891C377.425 172.124 377.807 172.103 378.274 171.838C378.761 171.545 379.149 171.112 379.388 170.596C379.689 169.982 379.849 169.307 379.855 168.623C379.855 168.219 379.855 167.784 379.855 167.307C379.855 166.829 379.865 166.447 379.855 166.065Z" fill="#FAFAFA"/>
<path d="M385.829 158.51C386.668 158.032 387.294 157.958 387.729 158.308C387.986 158.592 388.178 158.93 388.29 159.297C388.402 159.664 388.431 160.051 388.376 160.43C388.385 161.151 388.274 161.868 388.047 162.553C387.831 163.19 387.497 163.781 387.06 164.293L388.44 167.296C388.444 167.346 388.444 167.395 388.44 167.445C388.44 167.54 388.418 167.635 388.376 167.721C388.347 167.798 388.295 167.864 388.227 167.912L387.379 168.4C387.241 168.474 387.145 168.485 387.081 168.4C387.025 168.344 386.979 168.28 386.943 168.209L385.638 165.375L384.312 166.139V169.726C384.313 169.843 384.287 169.96 384.237 170.066C384.194 170.158 384.128 170.238 384.046 170.299L383.24 170.766C383.213 170.789 383.179 170.801 383.144 170.801C383.11 170.801 383.076 170.789 383.049 170.766C383.019 170.734 382.995 170.695 382.981 170.653C382.966 170.611 382.96 170.566 382.964 170.522V160.6C382.967 160.482 382.996 160.366 383.049 160.261C383.086 160.165 383.153 160.083 383.24 160.027L385.829 158.51ZM384.333 164.219L385.829 163.412C386.195 163.208 386.507 162.921 386.742 162.574C386.988 162.165 387.106 161.692 387.081 161.216C387.081 160.643 386.965 160.324 386.742 160.261C386.419 160.217 386.091 160.3 385.829 160.494L384.386 161.322L384.333 164.219Z" fill="#FAFAFA"/>
<path d="M392.939 154.424C393.324 154.173 393.765 154.02 394.223 153.979C394.555 153.966 394.879 154.084 395.125 154.308C395.406 154.603 395.601 154.97 395.687 155.369C395.83 155.895 395.909 156.437 395.921 156.982C395.921 157.725 395.921 158.489 395.921 159.263C395.899 159.895 395.821 160.524 395.687 161.142C395.566 161.716 395.381 162.274 395.136 162.808C394.899 163.297 394.599 163.754 394.244 164.166C393.89 164.588 393.466 164.946 392.992 165.227L390.477 166.596C390.45 166.618 390.417 166.631 390.382 166.631C390.347 166.631 390.313 166.618 390.286 166.596C390.255 166.564 390.231 166.525 390.217 166.483C390.202 166.441 390.197 166.396 390.201 166.352V156.43C390.204 156.312 390.233 156.196 390.286 156.09C390.324 155.994 390.39 155.913 390.477 155.857L392.939 154.424ZM394.573 157.725C394.569 157.437 394.526 157.152 394.446 156.876C394.396 156.667 394.29 156.476 394.138 156.324C394.071 156.257 393.992 156.205 393.904 156.17C393.817 156.136 393.723 156.119 393.629 156.122C393.363 156.14 393.107 156.228 392.886 156.377L391.549 157.141V164.06L392.939 163.264C393.208 163.107 393.448 162.906 393.65 162.67C393.848 162.437 394.015 162.18 394.149 161.906C394.281 161.613 394.381 161.307 394.446 160.993C394.52 160.665 394.562 160.331 394.573 159.995C394.605 159.221 394.605 158.467 394.573 157.725Z" fill="#FAFAFA"/>
<path d="M247.22 0.406727C249.051 0.8143 250.816 1.4788 252.462 2.3805C254.038 3.2276 255.45 4.34874 256.632 5.69133C257.764 6.98283 258.603 8.50297 259.094 10.1482C259.595 11.9094 259.632 13.7701 259.2 15.5496C258.916 16.9604 258.357 18.3016 257.556 19.4971C256.824 20.5194 255.952 21.4339 254.966 22.2137C253.998 22.9655 252.965 23.6296 251.878 24.1981L248.822 25.8216C247.901 26.3018 247.028 26.8667 246.212 27.5089C245.473 28.0751 244.908 28.8357 244.577 29.7055C244.416 30.1029 244.148 30.448 243.803 30.703C243.64 30.8298 243.45 30.9177 243.247 30.96C243.045 31.0023 242.836 30.9979 242.636 30.9471L238.136 29.9496C237.92 29.9042 237.714 29.816 237.532 29.6903C237.35 29.5646 237.194 29.4038 237.075 29.2174C236.948 29.0441 236.864 28.8433 236.829 28.6313C236.793 28.4193 236.809 28.202 236.873 27.997C237.236 26.6036 237.874 25.2972 238.752 24.1556C239.552 23.1458 240.479 22.2434 241.511 21.4709C242.515 20.7354 243.58 20.0858 244.694 19.5289C245.755 18.9877 246.817 18.4678 247.74 17.9478C248.599 17.4862 249.406 16.9348 250.149 16.303C250.8 15.7575 251.252 15.0109 251.433 14.1807C251.601 13.4597 251.593 12.7086 251.408 11.9915C251.223 11.2745 250.868 10.6129 250.371 10.0633C249.131 8.70855 247.472 7.80822 245.66 7.50593C242.307 6.76311 239.477 7.89148 237.171 10.891C236.948 11.2185 236.667 11.5025 236.343 11.7294C235.976 11.9109 235.554 11.9414 235.165 11.8143L230.379 10.7531C230.038 10.6871 229.736 10.4888 229.541 10.2013C229.436 10.0477 229.366 9.87344 229.335 9.69034C229.304 9.50724 229.313 9.31959 229.36 9.14012C229.767 7.66557 230.524 6.31125 231.568 5.19259C232.744 3.89526 234.142 2.81734 235.696 2.00909C237.394 1.12025 239.225 0.511111 241.118 0.205107C243.146 -0.124714 245.218 -0.0562316 247.22 0.406727ZM242.137 34.555C242.558 34.6539 242.923 34.9135 243.155 35.2784C243.387 35.6433 243.467 36.0844 243.378 36.5076L242.232 41.7073C242.193 41.925 242.109 42.1321 241.985 42.3149C241.86 42.4978 241.699 42.6524 241.511 42.7685C241.333 42.8909 241.132 42.975 240.92 43.0152C240.708 43.0554 240.49 43.0509 240.28 43.0019L235.144 41.824C234.925 41.7872 234.717 41.7037 234.534 41.5791C234.351 41.4546 234.197 41.292 234.083 41.1024C233.964 40.9232 233.883 40.7216 233.844 40.5099C233.806 40.2983 233.811 40.081 233.86 39.8715L235.016 34.6718C235.115 34.2502 235.374 33.8838 235.739 33.6501C236.103 33.4163 236.545 33.3337 236.969 33.4196L242.137 34.555Z" fill="#1A5319"/>
<path d="M252.886 50.1859C254.164 49.981 255.464 49.956 256.749 50.1117C257.976 50.2575 259.169 50.6167 260.272 51.1728C261.323 51.7181 262.248 52.4771 262.989 53.4013C263.654 54.3057 264.123 55.3396 264.364 56.4363C264.605 57.533 264.614 58.668 264.389 59.7683C264.187 60.6142 263.862 61.4258 263.424 62.1771C263.002 62.9079 262.511 63.5972 261.959 64.2358C261.418 64.8725 260.898 65.4773 260.421 66.061C259.953 66.6047 259.538 67.1909 259.179 67.8119C258.843 68.3562 258.673 68.987 258.691 69.6265C258.682 69.9254 258.598 70.2172 258.447 70.4754C258.37 70.5944 258.269 70.6957 258.15 70.7726C258.031 70.8494 257.897 70.9 257.757 70.9211L254.574 71.4305C254.425 71.4575 254.272 71.4545 254.125 71.4217C253.977 71.3889 253.837 71.3269 253.714 71.2395C253.589 71.1607 253.484 71.0532 253.408 70.9259C253.333 70.7985 253.288 70.6551 253.279 70.5073C253.146 69.5198 253.218 68.5154 253.491 67.5572C253.741 66.7089 254.097 65.8959 254.552 65.1378C254.999 64.4102 255.51 63.7247 256.081 63.0897C256.643 62.453 257.142 61.8588 257.63 61.2857C258.066 60.774 258.443 60.2152 258.755 59.6197C259.031 59.1072 259.131 58.5182 259.041 57.9431C258.961 57.4368 258.76 56.9573 258.456 56.5453C258.151 56.1333 257.751 55.801 257.29 55.5767C256.149 55.0256 254.858 54.8688 253.619 55.131C252.496 55.2951 251.452 55.8023 250.63 56.5832C249.807 57.364 249.246 58.3802 249.024 59.4924C248.962 59.7599 248.854 60.0147 248.705 60.2458C248.516 60.4472 248.259 60.5719 247.984 60.596L244.631 61.1372C244.395 61.1823 244.151 61.1327 243.951 60.9992C243.849 60.929 243.763 60.8378 243.699 60.7316C243.635 60.6255 243.594 60.5069 243.58 60.3837C243.48 59.3307 243.644 58.2694 244.058 57.2958C244.477 56.1627 245.095 55.1135 245.883 54.1971C246.746 53.1938 247.763 52.3341 248.896 51.6504C250.119 50.9088 251.474 50.4115 252.886 50.1859ZM258.362 73.3724C258.508 73.3492 258.657 73.3551 258.801 73.3897C258.945 73.4243 259.081 73.4869 259.2 73.574C259.325 73.6562 259.432 73.764 259.512 73.8902C259.593 74.0164 259.645 74.1582 259.667 74.3062L260.262 77.946C260.308 78.2413 260.235 78.5428 260.06 78.7851C259.886 79.0275 259.622 79.1912 259.328 79.2407L255.773 79.8243C255.478 79.8699 255.177 79.7975 254.934 79.6227C254.811 79.5394 254.707 79.4312 254.629 79.305C254.55 79.1789 254.499 79.0377 254.478 78.8905L253.884 75.2507C253.857 75.1046 253.861 74.9545 253.896 74.8101C253.93 74.6657 253.995 74.5302 254.086 74.4123C254.169 74.2893 254.277 74.185 254.403 74.1064C254.529 74.0278 254.671 73.9766 254.818 73.956L258.362 73.3724Z" fill="#1A5319"/>
<g opacity="0.2">
<path d="M252.886 50.1859C254.164 49.981 255.464 49.956 256.749 50.1117C257.976 50.2575 259.169 50.6167 260.272 51.1728C261.323 51.7181 262.248 52.4771 262.989 53.4013C263.654 54.3057 264.123 55.3396 264.364 56.4363C264.605 57.533 264.614 58.668 264.389 59.7683C264.187 60.6142 263.862 61.4258 263.424 62.1771C263.002 62.9079 262.511 63.5972 261.959 64.2358C261.418 64.8725 260.898 65.4773 260.421 66.061C259.953 66.6047 259.538 67.1909 259.179 67.8119C258.843 68.3562 258.673 68.987 258.691 69.6265C258.682 69.9254 258.598 70.2172 258.447 70.4754C258.37 70.5944 258.269 70.6957 258.15 70.7726C258.031 70.8494 257.897 70.9 257.757 70.9211L254.574 71.4305C254.425 71.4575 254.272 71.4545 254.125 71.4217C253.977 71.3889 253.837 71.3269 253.714 71.2395C253.589 71.1607 253.484 71.0532 253.408 70.9259C253.333 70.7985 253.288 70.6551 253.279 70.5073C253.146 69.5198 253.218 68.5154 253.491 67.5572C253.741 66.7089 254.097 65.8959 254.552 65.1378C254.999 64.4102 255.51 63.7247 256.081 63.0897C256.643 62.453 257.142 61.8588 257.63 61.2857C258.066 60.774 258.443 60.2152 258.755 59.6197C259.031 59.1072 259.131 58.5182 259.041 57.9431C258.961 57.4368 258.76 56.9573 258.456 56.5453C258.151 56.1333 257.751 55.801 257.29 55.5767C256.149 55.0256 254.858 54.8688 253.619 55.131C252.496 55.2951 251.452 55.8023 250.63 56.5832C249.807 57.364 249.246 58.3802 249.024 59.4924C248.962 59.7599 248.854 60.0147 248.705 60.2458C248.516 60.4472 248.259 60.5719 247.984 60.596L244.631 61.1372C244.395 61.1823 244.151 61.1327 243.951 60.9992C243.849 60.929 243.763 60.8378 243.699 60.7316C243.635 60.6255 243.594 60.5069 243.58 60.3837C243.48 59.3307 243.644 58.2694 244.058 57.2958C244.477 56.1627 245.095 55.1135 245.883 54.1971C246.746 53.1938 247.763 52.3341 248.896 51.6504C250.119 50.9088 251.474 50.4115 252.886 50.1859ZM258.362 73.3724C258.508 73.3492 258.657 73.3551 258.801 73.3897C258.945 73.4243 259.081 73.4869 259.2 73.574C259.325 73.6562 259.432 73.764 259.512 73.8902C259.593 74.0164 259.645 74.1582 259.667 74.3062L260.262 77.946C260.308 78.2413 260.235 78.5428 260.06 78.7851C259.886 79.0275 259.622 79.1912 259.328 79.2407L255.773 79.8243C255.478 79.8699 255.177 79.7975 254.934 79.6227C254.811 79.5394 254.707 79.4312 254.629 79.305C254.55 79.1789 254.499 79.0377 254.478 78.8905L253.884 75.2507C253.857 75.1046 253.861 74.9545 253.896 74.8101C253.93 74.6657 253.995 74.5302 254.086 74.4123C254.169 74.2893 254.277 74.185 254.403 74.1064C254.529 74.0278 254.671 73.9766 254.818 73.956L258.362 73.3724Z" fill="black"/>
</g>
<path d="M282.896 55.9057C283.041 56.0063 283.163 56.1354 283.256 56.285C283.35 56.4346 283.411 56.6016 283.437 56.7759C283.471 56.9485 283.469 57.1263 283.43 57.298C283.392 57.4696 283.318 57.6315 283.214 57.7734L280.689 61.3283C280.588 61.473 280.459 61.5956 280.31 61.6886C280.16 61.7817 279.993 61.8432 279.819 61.8695C279.646 61.9032 279.468 61.9009 279.297 61.8625C279.125 61.8242 278.963 61.7507 278.821 61.6466L275.341 59.1741C275.196 59.0749 275.073 58.946 274.982 58.796C274.89 58.646 274.832 58.4783 274.81 58.304C274.776 58.1313 274.779 57.9536 274.817 57.7819C274.855 57.6102 274.929 57.4483 275.033 57.3065L277.59 53.7516C277.797 53.4634 278.109 53.2684 278.459 53.2088C278.808 53.1492 279.167 53.2298 279.458 53.4332L282.896 55.9057ZM297.583 31.8279C298.852 32.7173 299.982 33.7902 300.936 35.0114C301.867 36.1474 302.585 37.4413 303.058 38.8316C303.499 40.1639 303.647 41.5754 303.493 42.9701C303.314 44.4575 302.75 45.8726 301.859 47.0768C301.197 48.0505 300.345 48.8806 299.355 49.5175C298.483 50.064 297.536 50.4788 296.543 50.7485C295.576 51.0013 294.589 51.1716 293.593 51.2578L290.77 51.5125C289.924 51.5801 289.085 51.7258 288.266 51.9476C287.51 52.1192 286.818 52.5019 286.271 53.0512C286.024 53.3022 285.711 53.4787 285.369 53.5606C285.206 53.6073 285.034 53.6143 284.868 53.5811C284.702 53.5479 284.546 53.4753 284.414 53.3695L281.336 51.1835C281.042 50.9735 280.841 50.6579 280.774 50.3028C280.734 50.1307 280.736 49.9516 280.778 49.7802C280.82 49.6087 280.903 49.4497 281.018 49.3159C281.737 48.3831 282.635 47.6037 283.66 47.0238C284.583 46.5198 285.568 46.1381 286.589 45.8883C287.575 45.6491 288.58 45.4965 289.592 45.432C290.59 45.3684 291.523 45.2941 292.394 45.2092C293.19 45.1389 293.976 44.9823 294.739 44.7423C295.406 44.5202 295.98 44.0836 296.373 43.5007C296.728 43.0085 296.958 42.4379 297.045 41.8374C297.132 41.237 297.072 40.6244 296.872 40.0519C296.37 38.6376 295.41 37.4313 294.144 36.6243C291.852 34.9902 289.352 34.9371 286.642 36.4652C286.369 36.6387 286.067 36.761 285.751 36.826C285.586 36.8374 285.42 36.8162 285.264 36.7633C285.107 36.7105 284.962 36.6272 284.838 36.5182L281.57 34.1943C281.451 34.1157 281.35 34.0142 281.272 33.8957C281.193 33.7772 281.139 33.6442 281.113 33.5045C281.088 33.3601 281.093 33.212 281.127 33.0695C281.162 32.9271 281.226 32.7934 281.315 32.6768C282.086 31.6888 283.088 30.9053 284.233 30.3953C285.534 29.8061 286.927 29.447 288.351 29.3341C289.917 29.2033 291.494 29.3287 293.02 29.7055C294.667 30.1024 296.218 30.8239 297.583 31.8279Z" fill="#1A5319"/>
<g opacity="0.6">
<path d="M282.896 55.9057C283.041 56.0063 283.163 56.1354 283.256 56.285C283.35 56.4346 283.411 56.6016 283.437 56.7759C283.471 56.9485 283.469 57.1263 283.43 57.298C283.392 57.4696 283.318 57.6315 283.214 57.7734L280.689 61.3283C280.588 61.473 280.459 61.5956 280.31 61.6886C280.16 61.7817 279.993 61.8432 279.819 61.8695C279.646 61.9032 279.468 61.9009 279.297 61.8625C279.125 61.8242 278.963 61.7507 278.821 61.6466L275.341 59.1741C275.196 59.0749 275.073 58.946 274.982 58.796C274.89 58.646 274.832 58.4783 274.81 58.304C274.776 58.1313 274.779 57.9536 274.817 57.7819C274.855 57.6102 274.929 57.4483 275.033 57.3065L277.59 53.7516C277.797 53.4634 278.109 53.2684 278.459 53.2088C278.808 53.1492 279.167 53.2298 279.458 53.4332L282.896 55.9057ZM297.583 31.8279C298.852 32.7173 299.982 33.7902 300.936 35.0114C301.867 36.1474 302.585 37.4413 303.058 38.8316C303.499 40.1639 303.647 41.5754 303.493 42.9701C303.314 44.4575 302.75 45.8726 301.859 47.0768C301.197 48.0505 300.345 48.8806 299.355 49.5175C298.483 50.064 297.536 50.4788 296.543 50.7485C295.576 51.0013 294.589 51.1716 293.593 51.2578L290.77 51.5125C289.924 51.5801 289.085 51.7258 288.266 51.9476C287.51 52.1192 286.818 52.5019 286.271 53.0512C286.024 53.3022 285.711 53.4787 285.369 53.5606C285.206 53.6073 285.034 53.6143 284.868 53.5811C284.702 53.5479 284.546 53.4753 284.414 53.3695L281.336 51.1835C281.042 50.9735 280.841 50.6579 280.774 50.3028C280.734 50.1307 280.736 49.9516 280.778 49.7802C280.82 49.6087 280.903 49.4497 281.018 49.3159C281.737 48.3831 282.635 47.6037 283.66 47.0238C284.583 46.5198 285.568 46.1381 286.589 45.8883C287.575 45.6491 288.58 45.4965 289.592 45.432C290.59 45.3684 291.523 45.2941 292.394 45.2092C293.19 45.1389 293.976 44.9823 294.739 44.7423C295.406 44.5202 295.98 44.0836 296.373 43.5007C296.728 43.0085 296.958 42.4379 297.045 41.8374C297.132 41.237 297.072 40.6244 296.872 40.0519C296.37 38.6376 295.41 37.4313 294.144 36.6243C291.852 34.9902 289.352 34.9371 286.642 36.4652C286.369 36.6387 286.067 36.761 285.751 36.826C285.586 36.8374 285.42 36.8162 285.264 36.7633C285.107 36.7105 284.962 36.6272 284.838 36.5182L281.57 34.1943C281.451 34.1157 281.35 34.0142 281.272 33.8957C281.193 33.7772 281.139 33.6442 281.113 33.5045C281.088 33.3601 281.093 33.212 281.127 33.0695C281.162 32.9271 281.226 32.7934 281.315 32.6768C282.086 31.6888 283.088 30.9053 284.233 30.3953C285.534 29.8061 286.927 29.447 288.351 29.3341C289.917 29.2033 291.494 29.3287 293.02 29.7055C294.667 30.1024 296.218 30.8239 297.583 31.8279Z" fill="white"/>
</g>
<path d="M203.871 149.84H166.168V58.4948C166.168 50.5611 169.32 42.9523 174.93 37.3422C180.54 31.7322 188.148 28.5806 196.082 28.5806H199.563C207.497 28.5806 215.105 31.7322 220.715 37.3422C226.325 42.9523 229.477 50.5611 229.477 58.4948V124.287C229.463 131.069 226.759 137.568 221.959 142.359C217.158 147.149 210.653 149.84 203.871 149.84Z" fill="#263238"/>
<path d="M162.496 369.745C161.829 373.53 161.475 377.363 161.435 381.206C161.297 388.167 160.024 390.64 159.854 396.349C159.652 402.875 160.788 405.316 163.43 408.987C166.072 412.659 172.981 415.98 175.973 409.783C178.966 403.586 178.531 399.522 177.586 393.123C176.62 386.501 176.525 382.84 175.931 377.8C175.443 373.353 174.87 369.968 174.87 369.968L162.496 369.745Z" fill="#263238"/>
<path d="M182.255 323.51L159.334 323.096C159.674 338.398 162.104 355.388 162.518 369.788C162.602 372.494 162.454 390.788 163.473 396.317C165.011 404.679 174.923 403.543 175.453 398.545C175.984 393.547 174.816 372.186 174.848 369.979C174.753 360.768 179.093 345.222 181.332 328.689C181.428 327.893 182.149 324.306 182.255 323.51Z" fill="#FFA8A7"/>
<path d="M211.703 357.839C211.703 357.839 210.801 357.351 210.641 358.317C210.419 359.463 210.079 361.829 209.58 363.718C208.922 366.339 208.371 370.658 208.763 372.802C209.156 374.945 214.143 377.683 217.38 378.68C221.369 379.911 225.007 382.076 227.991 384.994C231.175 388.008 238.104 390.852 242.848 390.82C248.419 390.82 252.303 388.963 254.139 385.981C255.974 382.999 252.462 382.639 246.095 378.553L241.161 375.37C231.069 368.78 227.365 365.257 224.532 358.667L211.703 357.839Z" fill="#263238"/>
<path d="M224.617 353.754C224.447 349.021 227.716 308.792 227.716 308.792L205.951 318.714C210.61 346.538 211.607 353.106 211.681 357.659C211.586 358.04 211.547 358.433 211.565 358.826C211.565 364.228 217.688 367.146 222.442 370.754C226.483 373.92 230.79 376.731 235.313 379.158C238.773 380.888 245.798 381.047 246.668 378.829C240.874 374.404 232.448 367.782 227.843 362.731C225.593 360.354 224.787 358.497 224.617 353.754Z" fill="#FFA8A7"/>
<path d="M168.725 174.194C160.363 192.541 160.363 206.74 161.753 230.16C162.984 251.648 165.032 270.59 165.032 270.59C164.714 274.4 159.419 281.838 158.729 298.69C158.092 314.438 159.79 334.462 159.79 334.462C159.79 334.462 171.686 341.052 180.483 334.398C180.483 334.398 188.972 293.872 191.456 274.156C193.578 256.954 197.398 234.977 197.398 234.977L205.431 274.039C203.697 279.581 202.441 285.261 201.675 291.018C200.55 302.616 207.044 325.389 207.044 325.389C207.044 325.389 219.332 329.05 226.835 322.396C226.835 322.396 229.636 285.372 230.687 271.407C232.088 252.699 229.138 202.06 226.835 175.244L168.725 174.194Z" fill="#455A64"/>
<path d="M197.419 234.946L200.72 205.509C200.72 205.509 215.512 203.535 222.219 197.232C220.299 200.235 217.742 202.779 214.729 204.682C211.716 206.586 208.32 207.803 204.784 208.247L200.009 235.635L205.431 274.039L197.419 234.946Z" fill="#263238"/>
<path d="M257.322 166.957C257.933 161.585 258.203 156.18 258.129 150.774C257.8 146.105 256.961 145.341 250.435 137.074C241.627 125.9 234.104 115.851 226.145 105.865C220.457 98.7344 214.472 97.6414 208.657 97.9597C204.582 98.1826 212.541 117.782 216.541 129.381L239.388 153.979C240.096 154.949 240.421 156.147 240.301 157.343L238.921 178.269L245.766 187.437C245.766 187.437 256.134 178.502 257.322 166.957Z" fill="#FFA8A7"/>
<path d="M186.627 98.5963C182.202 98.904 174.159 99.6575 174.159 99.6575C169.521 102.247 168.343 104.38 167.484 110.534C167.112 113.166 169.256 120.159 171.092 130.102L174.572 148.535L174.19 157.682C172.386 163.264 168.301 170.193 164.693 180.412C182.414 190.302 197.271 190.674 210.748 188.901C221.02 187.575 226.463 185.092 228.278 182.63C227.896 172.538 227.217 166.299 227.005 155.751C226.93 151.326 227.196 146.847 227.376 141.754C234.263 136.087 234.348 126.664 230.559 120.531C221.826 106.385 213.326 97.4821 207.702 97.9384L186.627 98.5963Z" fill="#1A5319"/>
<path opacity="0.6" d="M186.627 98.5963C182.202 98.904 174.159 99.6575 174.159 99.6575C169.521 102.247 168.343 104.38 167.484 110.534C167.112 113.166 169.256 120.159 171.092 130.102L174.572 148.535L174.19 157.682C172.386 163.264 168.301 170.193 164.693 180.412C182.414 190.302 197.271 190.674 210.748 188.901C221.02 187.575 226.463 185.092 228.278 182.63C227.896 172.538 227.217 166.299 227.005 155.751C226.93 151.326 227.196 146.847 227.376 141.754C234.263 136.087 234.348 126.664 230.559 120.531C221.826 106.385 213.326 97.4821 207.702 97.9384L186.627 98.5963Z" fill="white"/>
<path opacity="0.1" d="M213.655 141.892C213.655 141.892 205.569 148.174 196.326 144.895C193.731 144.077 191.39 142.603 189.531 140.616C187.672 138.629 186.358 136.195 185.715 133.551C185.715 133.551 184.738 144.11 196.379 147.707C207.66 151.177 213.655 141.892 213.655 141.892Z" fill="black"/>
<path d="M224.628 69.6158C224.277 84.9391 219.322 88.7168 216.817 89.778C214.313 90.8391 209.517 90.2024 204.847 89.4278V98.6811C204.847 98.6811 210.238 104.327 209.835 108.539C209.432 112.752 201.346 113.23 195.318 109.102C191.992 106.817 188.984 104.102 186.373 101.026C185.871 100.433 185.597 99.6809 185.598 98.904V77.2562C185.598 77.2562 183.04 79.9622 178.52 76.8636C177.545 76.2411 176.709 75.4225 176.067 74.4597C175.425 73.497 174.991 72.4112 174.791 71.2715C174.592 70.1317 174.631 68.9629 174.908 67.8393C175.184 66.7158 175.692 65.662 176.398 64.7451C178.371 62.4211 183.38 62.2619 185.778 65.8062C187.137 68.4485 187.317 71.1121 188.834 70.0509C192.867 67.1433 190.702 60.5004 195.573 57.3169C197.171 56.4827 198.832 55.7731 200.539 55.1946C209.23 52.1915 216.764 49.6659 218.579 43.7234C221.996 45.6759 225.052 51.5442 224.628 69.6158Z" fill="#FFA8A7"/>
<path d="M207.49 83.3051C208.603 83.3051 209.506 82.4024 209.506 81.2889C209.506 80.1754 208.603 79.2727 207.49 79.2727C206.376 79.2727 205.474 80.1754 205.474 81.2889C205.474 82.4024 206.376 83.3051 207.49 83.3051Z" fill="#B16668"/>
<path d="M206.153 67.292C206.152 67.7071 206.03 68.113 205.801 68.4593C205.572 68.8057 205.247 69.0773 204.865 69.2406C204.484 69.4039 204.062 69.4516 203.654 69.378C203.245 69.3043 202.867 69.1125 202.567 68.8262C202.266 68.5399 202.056 68.1717 201.963 67.7673C201.869 67.3628 201.896 66.9398 202.041 66.5506C202.185 66.1615 202.441 65.8232 202.775 65.5778C203.11 65.3323 203.51 65.1904 203.924 65.1696C204.212 65.1553 204.499 65.1995 204.769 65.2997C205.039 65.3999 205.286 65.5539 205.494 65.7525C205.702 65.951 205.868 66.1899 205.982 66.4545C206.095 66.7192 206.153 67.0041 206.153 67.292Z" fill="#263238"/>
<path d="M222.229 67.5044C222.251 67.7641 222.221 68.0254 222.14 68.2733C222.06 68.5211 221.931 68.7505 221.761 68.9481C221.592 69.1456 221.384 69.3073 221.151 69.4239C220.918 69.5404 220.664 69.6094 220.404 69.6268C220.142 69.651 219.877 69.6191 219.628 69.5333C219.379 69.4475 219.151 69.3097 218.96 69.1291C218.768 68.9484 218.617 68.7291 218.516 68.4855C218.416 68.242 218.369 67.9799 218.377 67.7167C218.35 67.4551 218.376 67.1907 218.455 66.9397C218.533 66.6887 218.662 66.4563 218.833 66.2569C219.005 66.0574 219.215 65.8951 219.451 65.7798C219.688 65.6645 219.945 65.5986 220.208 65.5863C220.47 65.574 220.733 65.6155 220.979 65.7082C221.225 65.8009 221.45 65.9429 221.639 66.1255C221.828 66.3081 221.978 66.5274 222.08 66.77C222.181 67.0125 222.232 67.2733 222.229 67.5363V67.5044Z" fill="#263238"/>
<path d="M203.425 72.7464C201.595 72.7464 199.84 72.02 198.544 70.7268C197.249 69.4335 196.52 67.6791 196.517 65.8488C196.517 61.1584 201.356 61.1584 203.425 61.1584C205.495 61.1584 210.323 61.1584 210.323 65.8488C210.32 67.6773 209.593 69.4301 208.3 70.723C207.007 72.016 205.254 72.7436 203.425 72.7464ZM203.425 62.2408C199.181 62.2408 197.61 63.302 197.61 65.8488C197.61 67.3967 198.225 68.8812 199.32 69.9758C200.414 71.0703 201.899 71.6852 203.447 71.6852C204.995 71.6852 206.479 71.0703 207.574 69.9758C208.668 68.8812 209.283 67.3967 209.283 65.8488C209.241 63.2489 207.606 62.2408 203.425 62.2408Z" fill="#455A64"/>
<path d="M220.945 72.7464C219.115 72.7464 217.359 72.02 216.064 70.7268C214.769 69.4335 214.04 67.6791 214.037 65.8488C214.037 61.1584 218.876 61.1584 220.945 61.1584C223.015 61.1584 227.843 61.1584 227.843 65.8488C227.84 67.6773 227.112 69.4301 225.82 70.723C224.527 72.016 222.774 72.7436 220.945 72.7464ZM220.945 62.2408C216.764 62.2408 215.13 63.302 215.13 65.8488C215.13 67.3967 215.745 68.8812 216.84 69.9758C217.934 71.0703 219.419 71.6852 220.967 71.6852C222.514 71.6852 223.999 71.0703 225.093 69.9758C226.188 68.8812 226.803 67.3967 226.803 65.8488C226.76 63.2489 225.126 62.2408 220.945 62.2408Z" fill="#455A64"/>
<path d="M211.395 63.6204L211.734 76.5135L218.515 74.4124L211.395 63.6204Z" fill="#F28F8F"/>
<path d="M204.837 89.4597C199.913 88.8124 189.779 85.9048 188.198 81.8936C188.834 83.9208 190.074 85.7053 191.753 87.0084C194.777 89.6082 204.837 92.5264 204.837 92.5264V89.4597Z" fill="#F28F8F"/>
<path d="M205.081 57.3595L200.582 60.108C200.227 59.4903 200.124 58.7598 200.294 58.0681C200.464 57.3765 200.894 56.7769 201.494 56.3939C201.791 56.2137 202.121 56.0957 202.465 56.0468C202.809 55.9979 203.159 56.0193 203.494 56.1095C203.829 56.1998 204.143 56.3571 204.416 56.572C204.688 56.7868 204.915 57.0547 205.081 57.3595Z" fill="#263238"/>
<path d="M223.386 60.4157L218.377 58.6648C218.474 58.3328 218.638 58.0242 218.859 57.7579C219.079 57.4916 219.352 57.2732 219.66 57.1162C219.968 56.9591 220.305 56.8668 220.65 56.8447C220.995 56.8227 221.341 56.8715 221.667 56.9881C222.339 57.2295 222.892 57.72 223.212 58.3581C223.532 58.9962 223.594 59.7329 223.386 60.4157Z" fill="#263238"/>
<path d="M209.782 66.4006C209.71 66.4006 209.639 66.3863 209.572 66.3584C209.506 66.3306 209.446 66.2898 209.395 66.2384C209.345 66.187 209.305 66.1261 209.279 66.0592C209.252 65.9923 209.239 65.9208 209.241 65.8488C209.241 64.968 210.981 64.395 212.551 64.395C214.122 64.395 215.13 64.968 215.13 65.8488C215.097 65.9641 215.028 66.0656 214.932 66.1378C214.836 66.21 214.719 66.2491 214.6 66.2491C214.48 66.2491 214.363 66.21 214.267 66.1378C214.171 66.0656 214.102 65.9641 214.069 65.8488C214.069 65.7427 213.528 65.4774 212.583 65.4774C211.823 65.4612 211.066 65.5909 210.355 65.8594C210.355 65.9333 210.34 66.0063 210.311 66.0742C210.282 66.142 210.239 66.2031 210.185 66.2538C210.132 66.3045 210.068 66.3437 209.999 66.3689C209.929 66.3942 209.856 66.405 209.782 66.4006Z" fill="#455A64"/>
<path d="M197.08 65.9337H197.016L184.887 64.8725C184.32 64.3108 183.645 63.8703 182.903 63.5779L197.143 64.8937C197.286 64.9123 197.416 64.986 197.505 65.099C197.594 65.212 197.636 65.3554 197.621 65.4986C197.596 65.6231 197.528 65.7348 197.429 65.8144C197.33 65.8939 197.207 65.9361 197.08 65.9337Z" fill="#455A64"/>
<path d="M147.279 78.5828C151.248 73.2769 153.954 69.2763 157.572 64.7876C159.631 62.209 160.947 60.3626 162.878 57.7203C164.237 55.895 165.001 54.3564 166.55 53.7939C168.224 53.1081 169.732 52.0735 170.975 50.759C171.739 49.9139 172.448 49.0207 173.097 48.0849C175.372 45.0235 178.073 42.304 181.12 40.0094C184.303 37.6112 187.858 35.7647 191.137 33.4832C193.09 32.1143 195.18 29.8434 192.803 27.7211C192.074 27.1071 191.202 26.6873 190.267 26.5008C184.484 25.2486 179.454 27.233 173.798 28.6761C171.341 29.2893 168.938 30.1021 166.614 31.1062C165.47 31.5584 164.398 32.1731 163.43 32.9314C162.077 34.2958 160.968 35.8823 160.151 37.6218C157.679 42.0362 152.373 45.9838 148.659 49.475C144.319 53.5605 140.435 57.3064 135.479 61.8057C131.022 65.87 126.661 69.6053 122.575 74.041C119.19 77.702 120.453 80.5672 120.899 81.5646C123.658 87.2313 126.746 89.2687 130.449 92.7812C136.816 98.8616 158.835 116.36 166.126 122.144C167.692 123.374 168.922 124.98 169.702 126.813L171.102 130.049C179.422 131.577 184.972 119.087 178.085 104.051C176.944 101.619 175.202 99.519 173.023 97.949C164.322 91.6139 147.279 78.5828 147.279 78.5828Z" fill="#FFA8A7"/>
<path d="M147.279 78.5828C144.631 81.8403 141.102 84.2678 137.113 85.5759C137.113 85.5759 142.419 86.9341 149.688 80.408L147.279 78.5828Z" fill="#F28F8F"/>
<path d="M255.157 155.889L253.799 154.722C253.596 154.588 253.364 154.504 253.123 154.476C252.881 154.448 252.637 154.478 252.409 154.562L237.669 158.574C236.927 158.821 236.247 159.226 235.675 159.761C235.104 160.296 234.655 160.948 234.358 161.672L223.747 192.266C223.619 192.515 223.569 192.797 223.603 193.075C223.637 193.353 223.754 193.614 223.938 193.826L225.339 195.035C225.542 195.176 225.777 195.265 226.023 195.294C226.269 195.324 226.518 195.293 226.75 195.205L241.511 191.194C242.253 190.946 242.933 190.541 243.505 190.006C244.076 189.472 244.525 188.82 244.822 188.095C246.944 182.078 253.311 163.519 255.433 157.502C255.688 156.748 255.561 156.175 255.157 155.889Z" fill="#455A64"/>
<path d="M225.137 193.443L235.749 162.85C236.043 162.126 236.492 161.475 237.064 160.941C237.636 160.408 238.317 160.006 239.059 159.762L253.788 155.751C255.157 155.379 255.911 156.164 255.423 157.501C253.3 163.518 246.933 182.078 244.811 188.095C244.515 188.819 244.066 189.471 243.494 190.006C242.923 190.541 242.243 190.946 241.5 191.193L226.771 195.247C225.413 195.566 224.681 194.78 225.137 193.443Z" fill="#1A5319"/>
<path d="M237.457 160.611C236.691 161.191 236.097 161.969 235.738 162.861L225.126 193.443C225.005 193.686 224.954 193.959 224.981 194.229C225.007 194.499 225.109 194.757 225.275 194.972L223.959 193.847C223.77 193.638 223.65 193.377 223.614 193.098C223.578 192.819 223.628 192.536 223.757 192.287L234.369 161.693C234.705 160.862 235.249 160.131 235.95 159.571L237.457 160.611Z" fill="#37474F"/>
<path d="M251.114 169.832C250.053 172.942 246.371 175.021 240.28 176.465C234.189 177.908 230.825 184.37 231.79 186.334C232.756 188.297 242.604 190.132 246.541 189.57C250.478 189.008 254.425 183.32 255.624 181.558C256.823 179.797 258.203 167.508 256.94 165.821C255.677 164.134 253.014 164.399 253.014 164.399L251.114 169.832Z" fill="#F28F8F"/>
</svg>
