<svg width="457" height="411" viewBox="0 0 457 411" fill="none" xmlns="http://www.w3.org/2000/svg">
<path d="M239.424 410.496C359.588 410.496 457 406.6 457 401.793C457 396.987 359.588 393.091 239.424 393.091C119.259 393.091 21.8472 396.987 21.8472 401.793C21.8472 406.6 119.259 410.496 239.424 410.496Z" fill="#92E3A9" fill-opacity="0.8"/>
<path opacity="0.8" d="M239.424 410.496C359.588 410.496 457 406.6 457 401.793C457 396.987 359.588 393.091 239.424 393.091C119.259 393.091 21.8472 396.987 21.8472 401.793C21.8472 406.6 119.259 410.496 239.424 410.496Z" fill="white" fill-opacity="0.8"/>
<path d="M343.996 74.6741C343.568 74.6741 343.158 74.857 342.856 75.1825C342.553 75.508 342.383 75.9496 342.383 76.4099V85.3092H312.906V76.4099C312.906 75.9496 312.736 75.508 312.434 75.1825C312.131 74.857 311.721 74.6741 311.293 74.6741C310.865 74.6741 310.455 74.857 310.152 75.1825C309.85 75.508 309.68 75.9496 309.68 76.4099V300.569C309.68 301.029 309.85 301.471 310.152 301.796C310.455 302.122 310.865 302.305 311.293 302.305C311.721 302.305 312.131 302.122 312.434 301.796C312.736 301.471 312.906 301.029 312.906 300.569V250.425H342.383V300.569C342.383 301.029 342.553 301.471 342.856 301.796C343.158 302.122 343.568 302.305 343.996 302.305C344.424 302.305 344.834 302.122 345.137 301.796C345.439 301.471 345.609 301.029 345.609 300.569V76.3752C345.601 75.9209 345.427 75.4882 345.126 75.1702C344.824 74.8521 344.418 74.674 343.996 74.6741ZM342.383 246.988H312.906V235.74H342.383V246.988ZM342.383 232.257H312.906V221.02H342.383V232.257ZM342.383 217.536H312.906V206.334H342.383V217.536ZM342.383 202.828H312.906V191.672H342.383V202.828ZM342.383 188.131H312.906V177.102H342.383V188.131ZM342.383 173.48H312.906V162.382H342.383V173.48ZM342.383 158.899H312.906V147.696H342.383V158.899ZM342.383 144.178H312.906V132.976H342.383V144.178ZM342.383 129.493H312.906V118.256H342.383V129.493ZM342.383 114.773H312.906V103.513H342.383V114.773ZM342.383 100.041H312.906V88.7809H342.383V100.041Z" fill="white" fill-opacity="0.8"/>
<path d="M64.7774 255.39C64.7774 255.39 88.9203 219.828 77.1446 211.415C64.8957 202.724 59.1423 229.051 56.5505 241.977C51.023 269.566 52.5823 275.422 56.2925 269.358L64.7774 255.39Z" fill="#92E3A9" fill-opacity="0.8"/>
<path opacity="0.5" d="M64.7774 255.39C64.7774 255.39 88.9203 219.828 77.1446 211.415C64.8957 202.724 59.1423 229.051 56.5505 241.977C51.023 269.566 52.5823 275.422 56.2925 269.358L64.7774 255.39Z" fill="white" fill-opacity="0.8"/>
<path d="M73.8324 277.262C73.8324 277.262 107.396 252.057 98.7818 240.045C89.8237 227.535 76.4349 250.46 70.0792 261.755C56.5183 285.918 56.2387 292.005 61.5727 287.561L73.8324 277.262Z" fill="#92E3A9" fill-opacity="0.8"/>
<path opacity="0.5" d="M73.8324 277.262C73.8324 277.262 107.396 252.057 98.7818 240.045C89.8237 227.535 76.4349 250.46 70.0792 261.755C56.5183 285.918 56.2387 292.005 61.5727 287.561L73.8324 277.262Z" fill="white" fill-opacity="0.8"/>
<path d="M74.5637 306.494C74.5637 306.494 103.6 292.457 98.6421 281.926C93.4801 270.966 80.1558 286.381 73.7786 294.042C60.1532 310.405 59.1208 315.011 63.7988 312.454L74.5637 306.494Z" fill="#92E3A9" fill-opacity="0.8"/>
<path opacity="0.5" d="M74.5637 306.494C74.5637 306.494 103.6 292.457 98.6421 281.926C93.4801 270.966 80.1558 286.381 73.7786 294.042C60.1532 310.405 59.1208 315.011 63.7988 312.454L74.5637 306.494Z" fill="white" fill-opacity="0.8"/>
<path d="M76.2843 335.853C76.2843 335.853 105.32 321.816 100.373 311.285C95.2007 300.337 81.8872 315.74 75.4993 323.413C61.8846 339.777 60.8415 344.382 65.5302 341.813L76.2843 335.853Z" fill="#92E3A9" fill-opacity="0.8"/>
<path opacity="0.5" d="M76.2843 335.853C76.2843 335.853 105.32 321.816 100.373 311.285C95.2007 300.337 81.8872 315.74 75.4993 323.413C61.8846 339.777 60.8415 344.382 65.5302 341.813L76.2843 335.853Z" fill="white" fill-opacity="0.8"/>
<path d="M42.2262 270.249C42.2262 270.249 10.3081 242.672 2.01668 254.939C-6.58658 267.668 17.5671 275.109 29.4503 278.489C54.8084 285.698 60.3145 284.275 54.8514 280.016L42.2262 270.249Z" fill="#92E3A9" fill-opacity="0.8"/>
<path opacity="0.5" d="M42.2262 270.249C42.2262 270.249 10.3081 242.672 2.01668 254.939C-6.58658 267.668 17.5671 275.109 29.4503 278.489C54.8084 285.698 60.3145 284.275 54.8514 280.016L42.2262 270.249Z" fill="white" fill-opacity="0.8"/>
<path d="M43.1725 293.29C43.1725 293.29 6.80223 273.084 0.941257 286.89C-5.1563 301.252 19.9007 303.335 32.1281 304.099C58.3142 305.742 63.4547 303.173 57.3141 300.164L43.1725 293.29Z" fill="#92E3A9" fill-opacity="0.8"/>
<path opacity="0.5" d="M43.1725 293.29C43.1725 293.29 6.80223 273.084 0.941257 286.89C-5.1563 301.252 19.9007 303.335 32.1281 304.099C58.3142 305.742 63.4547 303.173 57.3141 300.164L43.1725 293.29Z" fill="white" fill-opacity="0.8"/>
<path d="M47.5709 319.12C47.5709 319.12 16.3841 302.918 11.7276 314.757C6.87749 327.058 28.106 328.193 38.5052 328.528C60.6801 329.269 64.971 326.954 59.7123 324.64L47.5709 319.12Z" fill="#92E3A9" fill-opacity="0.8"/>
<path opacity="0.5" d="M47.5709 319.12C47.5709 319.12 16.3841 302.918 11.7276 314.757C6.87749 327.058 28.106 328.193 38.5052 328.528C60.6801 329.269 64.971 326.954 59.7123 324.64L47.5709 319.12Z" fill="white" fill-opacity="0.8"/>
<path d="M49.098 339.985C49.098 339.985 19.6749 320.312 13.8784 331.548C7.8454 343.225 28.8481 346.778 39.1505 348.305C61.1318 351.569 65.6163 349.775 60.6587 346.801L49.098 339.985Z" fill="#92E3A9" fill-opacity="0.8"/>
<path opacity="0.5" d="M49.098 339.985C49.098 339.985 19.6749 320.312 13.8784 331.548C7.8454 343.225 28.8481 346.778 39.1505 348.305C61.1318 351.569 65.6163 349.775 60.6587 346.801L49.098 339.985Z" fill="white" fill-opacity="0.8"/>
<path d="M46.3127 235.312C46.3127 235.312 40.7851 183.664 22.6537 188.941C3.82335 194.449 19.5888 220.58 27.5899 233.217C44.592 260.111 50.8509 263.074 49.5067 254.672L46.3127 235.312Z" fill="#92E3A9" fill-opacity="0.8"/>
<path opacity="0.5" d="M46.3127 235.312C46.3127 235.312 40.7851 183.664 22.6537 188.941C3.82335 194.449 19.5888 220.58 27.5899 233.217C44.592 260.111 50.8509 263.074 49.5067 254.672L46.3127 235.312Z" fill="white" fill-opacity="0.8"/>
<path d="M26.3639 207.758C26.3639 207.758 53.9588 263.398 58.239 289.228C63.1643 318.9 63.9601 352.043 60.5618 378.012" stroke="#92E3A9" stroke-opacity="0.8" stroke-width="1.25197" stroke-linecap="round" stroke-linejoin="round"/>
<path d="M53.8835 272.043L67.4014 227.489" stroke="#92E3A9" stroke-opacity="0.8" stroke-width="1.25197" stroke-linecap="round" stroke-linejoin="round"/>
<path d="M58.239 289.228L83.6831 254.8" stroke="#92E3A9" stroke-opacity="0.8" stroke-width="1.25197" stroke-linecap="round" stroke-linejoin="round"/>
<path d="M56.6151 282.967L19.7716 266.314" stroke="#92E3A9" stroke-opacity="0.8" stroke-width="1.25197" stroke-linecap="round" stroke-linejoin="round"/>
<path d="M61.4329 312.546L89.1354 289.702" stroke="#92E3A9" stroke-opacity="0.8" stroke-width="1.25197" stroke-linecap="round" stroke-linejoin="round"/>
<path d="M59.9596 302.745L31.0204 296.264" stroke="#92E3A9" stroke-opacity="0.8" stroke-width="1.25197" stroke-linecap="round" stroke-linejoin="round"/>
<path d="M61.3469 326.595L38.9354 322.776" stroke="#92E3A9" stroke-opacity="0.8" stroke-width="1.25197" stroke-linecap="round" stroke-linejoin="round"/>
<path d="M63.2396 342.033L78.3168 327.498" stroke="#92E3A9" stroke-opacity="0.8" stroke-width="1.25197" stroke-linecap="round" stroke-linejoin="round"/>
<path d="M62.9385 348.572L37.1825 341.605" stroke="#92E3A9" stroke-opacity="0.8" stroke-width="1.25197" stroke-linecap="round" stroke-linejoin="round"/>
<path d="M43.8608 357.054H74.3056V363.836H71.6493L66.154 400.833H52.0124L46.517 363.836H43.8608V357.054Z" fill="#92E3A9" fill-opacity="0.8"/>
<path opacity="0.5" d="M43.8608 357.054H74.3056V363.836H71.6493L66.154 400.833H52.0124L46.517 363.836H43.8608V357.054Z" fill="white" fill-opacity="0.8"/>
<path d="M93.9962 7.69247C92.6762 6.42329 91.0645 5.55754 89.3284 5.18514C87.5924 4.81273 85.7954 4.94724 84.124 5.5747C78.2093 7.69247 72.5419 16.8926 73.9722 24.6809C74.9723 30.0737 79.6181 38.024 81.0268 41.0559C82.4356 44.0879 80.4569 49.2146 75.9832 59.8612C71.5095 70.5079 69.7781 80.495 82.7475 89.2901C95.7169 98.0852 110.396 84.1288 117.924 74.1186C125.452 64.1084 112.278 41.0559 111.149 31.3003C110.02 21.5447 108.084 2.8436 93.9962 7.69247Z" fill="#263238" fill-opacity="0.8"/>
<path d="M124.484 74.7898C121.257 78.2643 117.358 80.9305 113.064 82.5987C108.77 84.2669 104.188 84.896 99.6421 84.4412L96.5342 98.3861L102.449 130.222L141.067 108.686L132.324 84.3834L124.484 74.7898Z" fill="#92E3A9" fill-opacity="0.8" stroke="#263238" stroke-opacity="0.8" stroke-linecap="round" stroke-linejoin="round"/>
<path opacity="0.3" d="M124.484 74.7898C121.257 78.2643 117.358 80.9305 113.064 82.5987C108.77 84.2669 104.188 84.896 99.6421 84.4412L96.5342 98.3861L102.449 130.222L141.067 108.686L132.324 84.3834L124.484 74.7898Z" fill="#263238" fill-opacity="0.8"/>
<path d="M124.484 74.7898L118.569 32.6196L101.04 36.4848L92.2971 42.5488C92.2971 42.5488 81.8657 51.3555 81.8657 52.2581C81.8657 53.1608 99.5131 84.9388 99.5131 84.9388C104.104 85.2312 108.702 84.4784 113.004 82.7296C117.307 80.9809 121.219 78.2754 124.484 74.7898Z" fill="white" fill-opacity="0.8"/>
<path d="M124.484 74.7898L118.569 32.6196L101.04 36.4848L92.2971 42.5488C92.2971 42.5488 81.8657 51.3555 81.8657 52.2581C81.8657 53.1608 99.5131 84.9388 99.5131 84.9388C104.104 85.2312 108.702 84.4784 113.004 82.7296C117.307 80.9809 121.219 78.2754 124.484 74.7898Z" stroke="#263238" stroke-opacity="0.8" stroke-linecap="round" stroke-linejoin="round"/>
<path opacity="0.5" d="M100.965 72.9845C100.965 72.9845 113.321 63.1247 112.181 66.041C111.041 68.9572 102.503 76.2363 100.212 76.4562C97.9215 76.6761 100.965 72.9845 100.965 72.9845Z" fill="#92E3A9" fill-opacity="0.8"/>
<path d="M101.341 54.2603L101.825 54.8042L104.836 58.2296L105.611 71.3875L109.299 70.7626L106.385 58.4379L111.052 68.8763L114.934 64.6986L106.589 56.5516L106.385 50.0826L102.116 47.7797" fill="#263238" fill-opacity="0.8"/>
<path d="M94.5554 38.6373C94.5554 38.6373 90.8883 40.4542 90.8883 44.088C90.8883 47.7217 94.8566 56.3664 97.3407 58.1833C99.8249 60.0002 104.084 51.6795 104.084 51.6795C104.084 51.6795 110.536 55.0124 112.257 51.9804C113.977 48.9484 108.31 38.9382 104.654 36.2071C100.997 33.476 94.5554 38.6373 94.5554 38.6373Z" fill="white" fill-opacity="0.8" stroke="#263238" stroke-opacity="0.8" stroke-linecap="round" stroke-linejoin="round"/>
<path d="M91.4583 34.992C92.4666 37.7642 93.3142 40.601 93.9962 43.4862C94.5554 46.5182 102.169 51.6795 103.008 51.9804C103.847 52.2813 104.417 42.2711 104.417 42.2711L102.169 30.444L91.4583 34.992Z" fill="white" fill-opacity="0.8"/>
<mask id="mask0_170_454" style="mask-type:luminance" maskUnits="userSpaceOnUse" x="91" y="30" width="14" height="22">
<path d="M91.4583 34.992C92.4666 37.7642 93.3142 40.601 93.9962 43.4862C94.5554 46.5182 102.169 51.6795 103.008 51.9804C103.847 52.2813 104.417 42.2711 104.417 42.2711L102.169 30.444L91.4583 34.992Z" fill="white"/>
</mask>
<g mask="url(#mask0_170_454)">
<g style="mix-blend-mode:multiply" opacity="0.5">
<path d="M102.406 31.7054C101.933 31.5626 101.451 31.4544 100.965 31.3813L93.1897 34.3323L92.168 37.2023C92.6842 38.753 93.3402 40.8361 93.7381 42.5257C95.0129 43.6316 96.5529 44.3258 98.1796 44.5277C100.513 44.7013 102.567 42.7571 104.019 40.3732L102.406 31.7054Z" fill="#92E3A9" fill-opacity="0.8"/>
</g>
</g>
<path d="M91.4583 34.992C92.4666 37.7642 93.3142 40.601 93.9962 43.4862C94.5554 46.5182 102.169 51.6795 103.008 51.9804C103.847 52.2813 104.417 42.2711 104.417 42.2711L102.169 30.444L91.4583 34.992Z" stroke="#263238" stroke-opacity="0.8" stroke-linecap="round" stroke-linejoin="round"/>
<path d="M86.3823 29.8306C86.3823 29.8306 83.2744 27.1111 83.2744 29.8306C83.2744 32.5502 86.1027 34.0777 88.3503 34.0777" fill="white" fill-opacity="0.8"/>
<path d="M86.3823 29.8306C86.3823 29.8306 83.2744 27.1111 83.2744 29.8306C83.2744 32.5502 86.1027 34.0777 88.3503 34.0777" stroke="#263238" stroke-opacity="0.8" stroke-linecap="round" stroke-linejoin="round"/>
<path d="M103.008 21.0356C103.008 21.0356 104.987 17.7027 105.546 21.348C105.804 23.7211 105.199 26.1095 103.858 28.0138L103.008 21.0356Z" fill="white" fill-opacity="0.8" stroke="#263238" stroke-opacity="0.8" stroke-linecap="round" stroke-linejoin="round"/>
<g opacity="0.5">
<path d="M86.3823 29.8306C86.3823 29.8306 83.2744 27.1111 83.2744 29.8306C83.2744 32.5502 86.1027 34.0777 88.3503 34.0777" fill="#92E3A9" fill-opacity="0.8"/>
<path d="M86.3823 29.8306C86.3823 29.8306 83.2744 27.1111 83.2744 29.8306C83.2744 32.5502 86.1027 34.0777 88.3503 34.0777" stroke="#263238" stroke-opacity="0.8" stroke-linecap="round" stroke-linejoin="round"/>
</g>
<path opacity="0.5" d="M103.008 21.0356C103.008 21.0356 104.987 17.7027 105.546 21.348C105.804 23.7211 105.199 26.1095 103.858 28.0138L103.008 21.0356Z" fill="#92E3A9" fill-opacity="0.8" stroke="#263238" stroke-opacity="0.8" stroke-linecap="round" stroke-linejoin="round"/>
<path d="M82.8873 21.0587C82.8873 21.0587 85.3069 31.9022 90.5012 37.2602C95.6954 42.6183 101.255 42.6646 103.18 33.1173C104.761 25.248 100.836 14.7517 100.836 14.7517C100.836 14.7517 88.1675 3.52641 82.8873 21.0587Z" fill="white" fill-opacity="0.8"/>
<mask id="mask1_170_454" style="mask-type:luminance" maskUnits="userSpaceOnUse" x="82" y="11" width="22" height="30">
<path d="M82.8873 21.0587C82.8873 21.0587 85.3069 31.9022 90.5012 37.2602C95.6954 42.6183 101.255 42.6646 103.18 33.1173C104.761 25.248 100.836 14.7517 100.836 14.7517C100.836 14.7517 88.1675 3.52641 82.8873 21.0587Z" fill="white"/>
</mask>
<g mask="url(#mask1_170_454)">
<g style="mix-blend-mode:multiply" opacity="0.5">
<path d="M91.91 11.2221L93.878 16.5454C93.878 16.5454 96.9751 15.8048 98.7173 19.832C100.459 23.8593 102.212 29.7612 101.212 34.3324C100.255 38.6836 97.986 40.1186 94.491 40.2228C98.2979 41.9702 101.75 40.2228 103.18 33.0941C104.761 25.2248 100.836 14.7286 100.836 14.7286C100.836 14.7286 96.545 10.9444 91.91 11.2221Z" fill="#92E3A9" fill-opacity="0.8"/>
</g>
</g>
<path d="M82.8873 21.0587C82.8873 21.0587 85.3069 31.9022 90.5012 37.2602C95.6954 42.6183 101.255 42.6646 103.18 33.1173C104.761 25.248 100.836 14.7517 100.836 14.7517C100.836 14.7517 88.1675 3.52642 82.8873 21.0587Z" stroke="#263238" stroke-opacity="0.8" stroke-linecap="round" stroke-linejoin="round"/>
<path d="M92.5014 26.7871C92.8025 27.4004 92.7487 28.0601 92.3831 28.2684C92.0175 28.4767 91.4798 28.1411 91.1894 27.5277C90.899 26.9144 90.9421 26.2663 91.3077 26.058C91.6733 25.8497 92.211 26.1853 92.5014 26.7871Z" fill="#263238" fill-opacity="0.8"/>
<path d="M98.1151 24.9123C98.3302 25.5604 98.1903 26.2084 97.8032 26.3473C97.4161 26.4862 96.9214 26.0927 96.7278 25.4447C96.5342 24.7966 96.6525 24.1485 97.0397 24.0097C97.4268 23.8708 97.9 24.2874 98.1151 24.9123Z" fill="#263238" fill-opacity="0.8"/>
<path d="M98.5022 21.4406C98.0629 21.123 97.539 20.9691 97.0107 21.0025C96.4823 21.036 95.9788 21.2549 95.5771 21.6258C94.0285 22.9219 96.9536 29.4141 96.9536 29.4141C96.9536 29.4141 97.0074 31.4624 94.5662 30.5134" stroke="#263238" stroke-opacity="0.8" stroke-width="0.5" stroke-linecap="round" stroke-linejoin="round"/>
<path d="M98.5022 32.6196C98.3347 33.0458 98.0775 33.4242 97.7508 33.7251C97.4241 34.026 97.0369 34.241 96.6197 34.3532C96.2025 34.4654 95.7669 34.4718 95.347 34.3718C94.9272 34.2718 94.5347 34.0681 94.2006 33.7769" stroke="#263238" stroke-opacity="0.8" stroke-width="0.5" stroke-linecap="round" stroke-linejoin="round"/>
<path d="M91.953 23.1649C91.953 23.1649 89.1999 20.3759 87.9955 25.7571" stroke="#263238" stroke-opacity="0.8" stroke-width="0.5" stroke-linecap="round" stroke-linejoin="round"/>
<path d="M100.997 11.3147C97.9753 8.491 95.5341 8.52573 94.4694 8.89604C93.4729 8.22688 92.3396 7.82963 91.1679 7.7388C82.7152 6.52368 81.5861 13.525 81.5861 20.1792C81.5861 26.8334 76.209 34.7374 79.8977 35.6516C80.9071 35.9123 81.9697 35.7813 82.8982 35.2817C83.8267 34.7821 84.5617 33.9459 84.9736 32.9205C84.9736 32.9205 88.9203 25.977 88.9203 21.0819C88.9203 16.1867 93.835 16.6496 93.835 16.6496C94.0471 16.3125 94.3245 16.0288 94.6482 15.8179C94.9718 15.607 95.334 15.4739 95.7099 15.4277C96.0858 15.3816 96.4665 15.4234 96.826 15.5504C97.1854 15.6775 97.5151 15.8866 97.7924 16.1636C100.029 18.2235 100.287 20.6421 102.094 21.267C103.901 21.8919 106.923 18.7674 106.923 18.7674C105.201 16.062 103.215 13.5634 100.997 11.3147Z" fill="#263238" fill-opacity="0.8"/>
<path d="M94.0715 13.1316C94.0715 13.1316 90.6732 10.1921 87.6191 13.4903C84.5649 16.7885 84.8983 23.026 83.8766 27.0648C82.855 31.1036 80.1235 31.8327 80.1235 31.8327" stroke="white" stroke-opacity="0.8" stroke-width="0.5" stroke-linecap="round" stroke-linejoin="round"/>
<path d="M91.6949 12.0322C91.6949 12.0322 88.0277 8.12073 83.4142 13.0738C79.8977 16.8695 81.4677 19.3576 80.7795 25.5952" stroke="white" stroke-opacity="0.8" stroke-width="0.5" stroke-linecap="round" stroke-linejoin="round"/>
<path d="M95.7814 11.2915C95.7814 11.2915 102.234 7.99337 104.987 16.4297" stroke="white" stroke-opacity="0.8" stroke-width="0.5" stroke-linecap="round" stroke-linejoin="round"/>
<path d="M81.8656 52.2812L72.1117 94.5208L100.718 103.246L102.126 97.7843L83.3389 88.4569L89.7161 64.1546C89.7161 64.1546 88.8773 59.6066 84.3391 54.4569" fill="white" fill-opacity="0.8"/>
<mask id="mask2_170_454" style="mask-type:luminance" maskUnits="userSpaceOnUse" x="72" y="52" width="31" height="52">
<path d="M81.8656 52.2812L72.1117 94.5208L100.718 103.246L102.126 97.7843L83.3389 88.4569L89.7161 64.1546C89.7161 64.1546 88.8773 59.6066 84.3391 54.4569" fill="white"/>
</mask>
<g mask="url(#mask2_170_454)">
<g style="mix-blend-mode:multiply" opacity="0.5">
<path d="M102.169 97.819L83.382 88.4916L89.7591 64.1894C89.2597 62.172 88.449 60.2591 87.361 58.5305L86.748 58.0328V64.7449C86.748 69.0383 81.7581 82.7285 80.0052 85.9457C78.2523 89.1628 75.5208 93.1901 75.5208 93.1901L81.0053 90.5052L101.793 99.4623L102.169 97.819Z" fill="#92E3A9" fill-opacity="0.8"/>
</g>
</g>
<path d="M81.8656 52.2812L72.1117 94.5208L100.718 103.246L102.126 97.7843L83.3389 88.4569L89.7161 64.1546C89.7161 64.1546 88.8773 59.6066 84.3391 54.4569" stroke="#263238" stroke-opacity="0.8" stroke-linecap="round" stroke-linejoin="round"/>
<path d="M162.295 64.9646L140.637 60.0694L118.516 32.5616L121.785 54.6882L135.356 68.5984L162.629 69.9408L162.295 64.9646Z" fill="white" fill-opacity="0.8"/>
<mask id="mask3_170_454" style="mask-type:luminance" maskUnits="userSpaceOnUse" x="118" y="32" width="45" height="38">
<path d="M162.295 64.9646L140.637 60.0694L118.516 32.5616L121.785 54.6882L135.356 68.5984L162.629 69.9408L162.295 64.9646Z" fill="white"/>
</mask>
<g mask="url(#mask3_170_454)">
<g style="mix-blend-mode:multiply" opacity="0.5">
<path d="M118.516 32.5616L121.15 50.2213L122.828 55.7413L123.043 55.9496C123.677 55.2437 127.259 51.2396 128.173 51.2396C129.087 51.2396 139.4 60.9027 137.905 61.6549L136.4 62.4534L162.091 67.0129L162.274 64.8952L140.658 60.0116L118.516 32.5616Z" fill="#92E3A9" fill-opacity="0.8"/>
</g>
</g>
<path d="M162.295 64.9646L140.637 60.0694L118.516 32.5616L121.785 54.6882L135.356 68.5984L162.629 69.9408L162.295 64.9646Z" stroke="#263238" stroke-opacity="0.8" stroke-linecap="round" stroke-linejoin="round"/>
<path d="M364.483 299.18L88.673 255.691C87.7962 255.551 87.0069 255.042 86.4785 254.276C85.9502 253.51 85.7261 252.55 85.8554 251.606L108.826 82.9831C108.889 82.5164 109.037 82.0676 109.262 81.6625C109.486 81.2575 109.783 80.904 110.135 80.6224C110.486 80.3407 110.886 80.1365 111.311 80.0213C111.736 79.9061 112.178 79.8823 112.612 79.9511L117.838 80.7728C118.5 80.8797 119.177 80.769 119.779 80.4551C120.382 80.1412 120.882 79.6388 121.215 79.0137L128.151 66.1104C128.362 65.7053 128.647 65.3508 128.99 65.0689C130.614 63.8053 132.632 63.2738 134.614 63.5876L204.139 74.5583C205.699 74.7993 207.152 75.5508 208.301 76.7108C208.608 77.0413 208.849 77.4349 209.011 77.868L215.195 94.3473C215.412 94.9302 215.767 95.4413 216.226 95.8293C216.685 96.2173 217.23 96.4685 217.808 96.5576L388.421 123.475C389.298 123.613 390.088 124.119 390.618 124.882C391.149 125.646 391.376 126.605 391.25 127.549L368.279 296.16C368.146 297.101 367.672 297.948 366.961 298.514C366.249 299.08 365.358 299.32 364.483 299.18Z" fill="#263238" fill-opacity="0.8" stroke="#263238" stroke-opacity="0.8" stroke-miterlimit="10"/>
<path d="M367.419 298.359H94.0393C93.2456 298.359 92.4597 298.19 91.7264 297.864C90.9931 297.537 90.3269 297.058 89.7657 296.454C89.2045 295.85 88.7593 295.133 88.4555 294.344C88.1518 293.555 87.9955 292.709 87.9955 291.855V127.248C87.9955 125.523 88.6322 123.869 89.7657 122.649C90.8991 121.429 92.4364 120.744 94.0393 120.744H94.7813C95.9913 120.742 97.173 120.35 98.1751 119.62C99.1771 118.891 99.9538 117.855 100.406 116.647L104.568 105.387C105.033 104.088 105.883 102.99 106.987 102.263C108.173 101.509 109.524 101.11 110.902 101.106H181.169C182.113 101.105 183.05 101.289 183.933 101.65C185.159 102.181 186.182 103.144 186.836 104.381L193.988 117.492C194.521 118.472 195.282 119.284 196.197 119.848C197.112 120.413 198.149 120.709 199.203 120.709H367.419C369.022 120.709 370.559 121.395 371.692 122.614C372.826 123.834 373.462 125.488 373.462 127.213V291.855C373.462 292.709 373.306 293.555 373.002 294.344C372.699 295.133 372.253 295.85 371.692 296.454C371.131 297.058 370.465 297.537 369.731 297.864C368.998 298.19 368.212 298.359 367.419 298.359Z" fill="#92E3A9" fill-opacity="0.8"/>
<mask id="mask4_170_454" style="mask-type:luminance" maskUnits="userSpaceOnUse" x="87" y="101" width="287" height="198">
<path d="M367.419 298.359H94.0393C93.2456 298.359 92.4597 298.19 91.7264 297.864C90.9931 297.537 90.3269 297.058 89.7657 296.454C89.2045 295.85 88.7593 295.133 88.4555 294.344C88.1518 293.555 87.9955 292.709 87.9955 291.855V127.248C87.9955 125.523 88.6322 123.869 89.7657 122.649C90.8991 121.429 92.4364 120.744 94.0393 120.744H94.7813C95.9913 120.742 97.173 120.35 98.1751 119.62C99.1771 118.891 99.9538 117.855 100.406 116.647L104.568 105.387C105.033 104.088 105.883 102.99 106.987 102.263C108.173 101.509 109.524 101.11 110.902 101.106H181.169C182.113 101.105 183.05 101.289 183.933 101.65C185.159 102.181 186.182 103.144 186.836 104.381L193.988 117.492C194.521 118.472 195.282 119.284 196.197 119.848C197.112 120.413 198.149 120.709 199.203 120.709H367.419C369.022 120.709 370.559 121.395 371.692 122.614C372.826 123.834 373.462 125.488 373.462 127.213V291.855C373.462 292.709 373.306 293.555 373.002 294.344C372.699 295.133 372.253 295.85 371.692 296.454C371.131 297.058 370.465 297.537 369.731 297.864C368.998 298.19 368.212 298.359 367.419 298.359Z" fill="white"/>
</mask>
<g mask="url(#mask4_170_454)">
<path opacity="0.1" d="M367.419 298.359H94.0393C93.2456 298.359 92.4597 298.19 91.7264 297.864C90.9931 297.537 90.3269 297.058 89.7657 296.454C89.2045 295.85 88.7593 295.133 88.4555 294.344C88.1518 293.555 87.9955 292.709 87.9955 291.855V127.248C87.9955 125.523 88.6322 123.869 89.7657 122.649C90.8991 121.429 92.4364 120.744 94.0393 120.744H94.7813C95.9913 120.742 97.173 120.35 98.1751 119.62C99.1771 118.891 99.9538 117.855 100.406 116.647L104.568 105.387C105.033 104.088 105.883 102.99 106.987 102.263C108.173 101.509 109.524 101.11 110.902 101.106H181.169C182.113 101.105 183.05 101.289 183.933 101.65C185.159 102.181 186.182 103.144 186.836 104.381L193.988 117.492C194.521 118.472 195.282 119.284 196.197 119.848C197.112 120.413 198.149 120.709 199.203 120.709H367.419C369.022 120.709 370.559 121.395 371.692 122.614C372.826 123.834 373.462 125.488 373.462 127.213V291.855C373.462 292.709 373.306 293.555 373.002 294.344C372.699 295.133 372.253 295.85 371.692 296.454C371.131 297.058 370.465 297.537 369.731 297.864C368.998 298.19 368.212 298.359 367.419 298.359Z" fill="#263238" fill-opacity="0.8"/>
</g>
<path d="M367.419 298.359H94.0393C93.2456 298.359 92.4597 298.19 91.7264 297.864C90.9931 297.537 90.3269 297.058 89.7657 296.454C89.2045 295.85 88.7593 295.133 88.4555 294.344C88.1518 293.555 87.9955 292.709 87.9955 291.855V127.248C87.9955 125.523 88.6322 123.869 89.7657 122.649C90.8991 121.429 92.4364 120.744 94.0393 120.744H94.7813C95.9913 120.742 97.173 120.35 98.1751 119.62C99.1771 118.891 99.9538 117.855 100.406 116.647L104.568 105.387C105.033 104.088 105.883 102.99 106.987 102.263C108.173 101.509 109.524 101.11 110.902 101.106H181.169C182.113 101.105 183.05 101.289 183.933 101.65C185.159 102.181 186.182 103.144 186.836 104.381L193.988 117.492C194.521 118.472 195.282 119.284 196.197 119.848C197.112 120.413 198.149 120.709 199.203 120.709H367.419C369.022 120.709 370.559 121.395 371.692 122.614C372.826 123.834 373.462 125.488 373.462 127.213V291.855C373.462 292.709 373.306 293.555 373.002 294.344C372.699 295.133 372.253 295.85 371.692 296.454C371.131 297.058 370.465 297.537 369.731 297.864C368.998 298.19 368.212 298.359 367.419 298.359Z" stroke="#263238" stroke-opacity="0.8" stroke-miterlimit="10"/>
<path d="M165.242 120.189H121.494C120.451 120.189 119.449 119.742 118.711 118.948C117.973 118.154 117.558 117.076 117.558 115.953C117.557 115.396 117.658 114.844 117.855 114.329C118.052 113.814 118.342 113.345 118.707 112.951C119.073 112.556 119.507 112.243 119.986 112.03C120.464 111.816 120.977 111.706 121.494 111.706H165.242C166.289 111.706 167.293 112.154 168.033 112.95C168.773 113.746 169.189 114.827 169.189 115.953C169.189 116.51 169.087 117.062 168.888 117.577C168.69 118.091 168.399 118.559 168.032 118.952C167.665 119.346 167.23 119.657 166.752 119.87C166.273 120.082 165.76 120.19 165.242 120.189Z" fill="white" fill-opacity="0.8"/>
<path d="M367.419 327.082H94.0393C92.4364 327.082 90.8991 326.396 89.7657 325.177C88.6322 323.957 87.9955 322.303 87.9955 320.578V155.971C87.9955 154.246 88.6322 152.592 89.7657 151.372C90.8991 150.152 92.4364 149.467 94.0393 149.467H94.7813C95.9916 149.466 97.174 149.075 98.1763 148.345C99.1786 147.615 99.955 146.579 100.406 145.37L104.568 134.122C105.03 132.821 105.881 131.721 106.987 130.997C108.171 130.239 109.524 129.839 110.902 129.84H181.169C182.113 129.839 183.05 130.023 183.933 130.384C185.162 130.916 186.186 131.884 186.836 133.127L193.988 146.25C194.521 147.229 195.282 148.041 196.197 148.606C197.112 149.17 198.149 149.467 199.203 149.467H367.419C369.022 149.467 370.559 150.152 371.692 151.372C372.826 152.592 373.462 154.246 373.462 155.971V320.578C373.462 322.303 372.826 323.957 371.692 325.177C370.559 326.396 369.022 327.082 367.419 327.082Z" fill="#263238" fill-opacity="0.8" stroke="#263238" stroke-opacity="0.8" stroke-miterlimit="10"/>
<path d="M186.202 86.2466L142.798 80.4604C141.762 80.3187 140.819 79.7415 140.176 78.8548C139.534 77.968 139.243 76.8437 139.368 75.7272C139.499 74.6102 140.037 73.595 140.864 72.9049C141.691 72.2149 142.739 71.9063 143.777 72.0472L187.17 77.8334C188.207 77.9722 189.152 78.5486 189.795 79.4361C190.438 80.3236 190.728 81.4495 190.6 82.5666C190.536 83.1192 190.372 83.6529 190.116 84.137C189.86 84.6212 189.519 85.0463 189.11 85.3881C188.702 85.7299 188.234 85.9817 187.735 86.129C187.236 86.2763 186.715 86.3163 186.202 86.2466Z" fill="#92E3A9" fill-opacity="0.8"/>
<path opacity="0.5" d="M186.202 86.2466L142.798 80.4604C141.762 80.3187 140.819 79.7415 140.176 78.8548C139.534 77.968 139.243 76.8437 139.368 75.7272C139.499 74.6102 140.037 73.595 140.864 72.9049C141.691 72.2149 142.739 71.9063 143.777 72.0472L187.17 77.8334C188.207 77.9722 189.152 78.5486 189.795 79.4361C190.438 80.3236 190.728 81.4495 190.6 82.5666C190.536 83.1192 190.372 83.6529 190.116 84.137C189.86 84.6212 189.519 85.0463 189.11 85.3881C188.702 85.7299 188.234 85.9817 187.735 86.129C187.236 86.2763 186.715 86.3163 186.202 86.2466Z" fill="white" fill-opacity="0.8"/>
<path d="M165.242 148.923H121.494C120.977 148.923 120.464 148.813 119.986 148.6C119.507 148.386 119.073 148.073 118.707 147.679C118.342 147.284 118.052 146.816 117.855 146.3C117.658 145.785 117.557 145.233 117.558 144.676C117.558 143.552 117.973 142.473 118.711 141.677C119.448 140.881 120.45 140.432 121.494 140.429H165.242C166.289 140.429 167.293 140.876 168.033 141.673C168.773 142.469 169.189 143.55 169.189 144.676C169.189 145.802 168.773 146.883 168.033 147.679C167.293 148.476 166.289 148.923 165.242 148.923Z" fill="#92E3A9" fill-opacity="0.8"/>
<path opacity="0.5" d="M165.242 148.923H121.494C120.977 148.923 120.464 148.813 119.986 148.6C119.507 148.386 119.073 148.073 118.707 147.679C118.342 147.284 118.052 146.816 117.855 146.3C117.658 145.785 117.557 145.233 117.558 144.676C117.558 143.552 117.973 142.473 118.711 141.677C119.448 140.881 120.45 140.432 121.494 140.429H165.242C166.289 140.429 167.293 140.876 168.033 141.673C168.773 142.469 169.189 143.55 169.189 144.676C169.189 145.802 168.773 146.883 168.033 147.679C167.293 148.476 166.289 148.923 165.242 148.923Z" fill="white" fill-opacity="0.8"/>
<path d="M376.355 198.974H85.0919C81.9619 198.974 79.4245 201.705 79.4245 205.073V394.734C79.4245 398.103 81.9619 400.833 85.0919 400.833H376.355C379.485 400.833 382.023 398.103 382.023 394.734V205.073C382.023 201.705 379.485 198.974 376.355 198.974Z" fill="white" fill-opacity="0.8"/>
<mask id="mask5_170_454" style="mask-type:luminance" maskUnits="userSpaceOnUse" x="79" y="198" width="304" height="203">
<path d="M376.355 198.974H85.0919C81.9619 198.974 79.4245 201.705 79.4245 205.073V394.734C79.4245 398.103 81.9619 400.833 85.0919 400.833H376.355C379.485 400.833 382.023 398.103 382.023 394.734V205.073C382.023 201.705 379.485 198.974 376.355 198.974Z" fill="white"/>
</mask>
<g mask="url(#mask5_170_454)">
<g style="mix-blend-mode:multiply">
<path d="M382.023 253.307C348.48 287.042 310.371 315.097 268.997 336.513C207.86 367.979 137.98 389.666 97.2655 400.833H376.344C377.09 400.835 377.828 400.678 378.517 400.372C379.205 400.066 379.831 399.617 380.359 399.051C380.886 398.484 381.305 397.812 381.59 397.071C381.876 396.33 382.023 395.536 382.023 394.734V253.307Z" fill="#92E3A9" fill-opacity="0.8"/>
</g>
<path opacity="0.2" d="M382.023 253.307C348.48 287.042 310.371 315.097 268.997 336.513C207.86 367.979 137.98 389.666 97.2655 400.833H376.344C377.09 400.835 377.828 400.678 378.517 400.372C379.205 400.066 379.831 399.617 380.359 399.051C380.886 398.484 381.305 397.812 381.59 397.071C381.876 396.33 382.023 395.536 382.023 394.734V253.307Z" fill="white" fill-opacity="0.8"/>
</g>
<path d="M376.355 198.974H85.0919C81.9619 198.974 79.4245 201.705 79.4245 205.073V394.734C79.4245 398.103 81.9619 400.833 85.0919 400.833H376.355C379.485 400.833 382.023 398.103 382.023 394.734V205.073C382.023 201.705 379.485 198.974 376.355 198.974Z" stroke="#263238" stroke-opacity="0.8" stroke-miterlimit="10"/>
<path d="M83.8014 216.703V208.602C83.8042 206.984 84.4037 205.433 85.4683 204.289C86.5328 203.146 87.9755 202.504 89.4795 202.504H101.793" stroke="#263238" stroke-opacity="0.8" stroke-miterlimit="10"/>
<path d="M83.8014 339.73V226.574" stroke="#263238" stroke-opacity="0.8" stroke-miterlimit="10"/>
<path d="M377.635 378.336V391.147C377.636 391.949 377.491 392.743 377.207 393.484C376.922 394.225 376.505 394.899 375.979 395.467C375.452 396.034 374.827 396.485 374.139 396.792C373.451 397.099 372.713 397.257 371.968 397.257H362.042" stroke="#263238" stroke-opacity="0.8" stroke-miterlimit="10"/>
<path d="M377.635 213.856V368.812" stroke="#263238" stroke-opacity="0.8" stroke-miterlimit="10"/>
<path d="M275.708 272.783H185.729C184.107 272.783 182.793 274.198 182.793 275.943V325.346C182.793 327.09 184.107 328.505 185.729 328.505H275.708C277.329 328.505 278.644 327.09 278.644 325.346V275.943C278.644 274.198 277.329 272.783 275.708 272.783Z" fill="#263238" fill-opacity="0.8" stroke="#263238" stroke-opacity="0.8" stroke-miterlimit="10"/>
<path d="M275.708 272.783H185.729C184.107 272.783 182.793 274.198 182.793 275.943V286.566C182.793 288.311 184.107 289.726 185.729 289.726H275.708C277.329 289.726 278.644 288.311 278.644 286.566V275.943C278.644 274.198 277.329 272.783 275.708 272.783Z" fill="white" fill-opacity="0.8" stroke="#263238" stroke-opacity="0.8" stroke-miterlimit="10"/>
<path d="M100.718 103.247L102.686 107.193L106.869 110.433C107.132 110.641 107.447 110.759 107.773 110.771C108.099 110.784 108.421 110.69 108.697 110.503L109.063 110.248C109.329 110.074 109.527 109.802 109.62 109.483C109.713 109.163 109.694 108.818 109.568 108.512L107.191 102.633L108.794 103.976C109.048 104.187 109.369 104.283 109.688 104.244C110.007 104.205 110.3 104.034 110.504 103.767C110.681 103.529 110.777 103.233 110.777 102.928C110.777 102.623 110.681 102.327 110.504 102.089L106.772 97.009L102.105 97.7844L100.718 103.247Z" fill="white" fill-opacity="0.8" stroke="#263238" stroke-opacity="0.8" stroke-miterlimit="10"/>
<path d="M109.106 110.248L105.363 104.959" stroke="#263238" stroke-opacity="0.8" stroke-width="0.5" stroke-linecap="round" stroke-linejoin="round"/>
<path d="M106.912 110.433L103.976 106.244" stroke="#263238" stroke-opacity="0.8" stroke-width="0.5" stroke-linecap="round" stroke-linejoin="round"/>
<path d="M162.295 64.9647L168.146 65.335L175.265 70.2302C175.265 70.2302 175.663 71.7231 174.673 71.9314C173.684 72.1397 168.339 70.0219 168.339 70.0219L162.629 69.9409L162.295 64.9647Z" fill="white" fill-opacity="0.8" stroke="#263238" stroke-opacity="0.8" stroke-miterlimit="10"/>
<path d="M162.596 69.1655L168.737 72.1512C168.737 72.1512 169.726 70.6584 168.339 70.0219L166.317 68.5291" fill="white" fill-opacity="0.8"/>
<path d="M162.596 69.1655L168.737 72.1512C168.737 72.1512 169.726 70.6584 168.339 70.0219L166.317 68.5291" stroke="#263238" stroke-opacity="0.8" stroke-linejoin="round"/>
<path d="M379.538 182.02L377.001 173.85L374.151 169.649C374.104 169.573 374.035 169.515 373.954 169.485C373.873 169.455 373.786 169.454 373.705 169.483C373.624 169.512 373.554 169.569 373.506 169.645C373.459 169.721 373.436 169.812 373.441 169.904V182.009L375.592 185.052L379.538 182.02Z" fill="white" fill-opacity="0.8"/>
<path d="M420.899 217.745L399.606 218.555C398.82 218.584 398.043 218.373 397.365 217.944C396.687 217.516 396.136 216.889 395.777 216.136L379.538 182.02C379.538 182.02 375.882 184.15 375.602 185.052C375.323 185.955 387.626 219.157 391.4 229.352C391.718 230.208 392.274 230.937 392.992 231.438C393.711 231.94 394.556 232.189 395.411 232.152L419.21 231.065" fill="white" fill-opacity="0.8"/>
<path d="M420.899 217.745L399.606 218.555C398.82 218.584 398.043 218.373 397.365 217.944C396.687 217.516 396.136 216.889 395.777 216.136L379.538 182.02C379.538 182.02 375.882 184.15 375.602 185.052C375.323 185.955 387.626 219.157 391.4 229.352C391.718 230.208 392.274 230.937 392.992 231.438C393.711 231.94 394.556 232.189 395.411 232.152L419.21 231.065" stroke="#263238" stroke-opacity="0.8" stroke-miterlimit="10"/>
<path d="M381.098 186.267L377.764 187.749" stroke="#263238" stroke-opacity="0.8" stroke-width="0.75" stroke-miterlimit="10"/>
<g opacity="0.5">
<path d="M420.899 217.745L399.606 218.555C398.82 218.584 398.043 218.373 397.365 217.944C396.687 217.516 396.136 216.889 395.777 216.136L379.538 182.02C379.538 182.02 375.882 184.15 375.602 185.052C375.323 185.955 387.626 219.157 391.4 229.352C391.718 230.208 392.274 230.937 392.992 231.438C393.711 231.94 394.556 232.189 395.411 232.152L419.21 231.065" fill="#92E3A9" fill-opacity="0.8"/>
<path d="M420.899 217.745L399.606 218.555C398.82 218.584 398.043 218.373 397.365 217.944C396.687 217.516 396.136 216.889 395.777 216.136L379.538 182.02C379.538 182.02 375.882 184.15 375.602 185.052C375.323 185.955 387.626 219.157 391.4 229.352C391.718 230.208 392.274 230.937 392.992 231.438C393.711 231.94 394.556 232.189 395.411 232.152L419.21 231.065" stroke="#263238" stroke-opacity="0.8" stroke-miterlimit="10"/>
<path d="M381.098 186.267L377.764 187.749" stroke="#263238" stroke-opacity="0.8" stroke-width="0.75" stroke-miterlimit="10"/>
</g>
<path d="M379.538 182.02L377.001 173.85L374.151 169.649C374.104 169.573 374.035 169.515 373.954 169.485C373.873 169.455 373.786 169.454 373.705 169.483C373.624 169.512 373.554 169.569 373.506 169.645C373.459 169.721 373.436 169.812 373.441 169.904V182.009L375.592 185.052L379.538 182.02Z" fill="#92E3A9" fill-opacity="0.8"/>
<mask id="mask6_170_454" style="mask-type:luminance" maskUnits="userSpaceOnUse" x="373" y="169" width="7" height="17">
<path d="M379.538 182.02L377.001 173.85L374.151 169.649C374.104 169.573 374.035 169.515 373.954 169.485C373.873 169.455 373.786 169.454 373.705 169.483C373.624 169.512 373.554 169.569 373.506 169.645C373.459 169.721 373.436 169.812 373.441 169.904V182.009L375.592 185.052L379.538 182.02Z" fill="white"/>
</mask>
<g mask="url(#mask6_170_454)">
<path opacity="0.5" d="M379.538 182.02L377.001 173.85L374.151 169.649C374.104 169.573 374.035 169.515 373.954 169.485C373.873 169.455 373.786 169.454 373.705 169.483C373.624 169.512 373.554 169.569 373.506 169.645C373.459 169.721 373.436 169.812 373.441 169.904V182.009L375.592 185.052L379.538 182.02Z" fill="white" fill-opacity="0.8"/>
</g>
<path d="M379.538 182.02L377.001 173.85L374.151 169.649C374.104 169.573 374.035 169.515 373.954 169.485C373.873 169.455 373.786 169.454 373.705 169.483C373.624 169.512 373.554 169.569 373.506 169.645C373.459 169.721 373.436 169.812 373.441 169.904V182.009L375.592 185.052L379.538 182.02Z" stroke="#263238" stroke-opacity="0.8" stroke-miterlimit="10"/>
<path d="M427.491 196.185C426.468 197.58 425.735 199.194 425.34 200.918C425.028 203.14 425.523 211.692 425.523 211.692L414.446 213.035C414.446 213.035 415.285 204.344 415.328 202.897C415.683 201.103 416.389 199.412 417.4 197.935C418.41 196.458 419.702 195.23 421.189 194.334C424.996 192.32 428.233 193.304 427.491 196.185Z" fill="white" fill-opacity="0.8"/>
<mask id="mask7_170_454" style="mask-type:luminance" maskUnits="userSpaceOnUse" x="414" y="193" width="14" height="21">
<path d="M427.491 196.185C426.468 197.58 425.735 199.194 425.34 200.918C425.028 203.14 425.523 211.692 425.523 211.692L414.446 213.035C414.446 213.035 415.285 204.344 415.328 202.897C415.683 201.103 416.389 199.412 417.4 197.935C418.41 196.458 419.702 195.23 421.189 194.334C424.996 192.32 428.233 193.304 427.491 196.185Z" fill="white"/>
</mask>
<g mask="url(#mask7_170_454)">
<g style="mix-blend-mode:multiply" opacity="0.5">
<path d="M427.416 196.278C425.405 195.688 422.963 195.028 420.899 194.496C419.479 195.405 418.249 196.619 417.285 198.063C416.321 199.506 415.644 201.148 415.296 202.886C415.296 203.441 415.145 205.061 414.995 206.843C416.07 206.577 417.78 206.172 419.049 205.929C420.054 205.755 421.044 205.487 422.006 205.131L421.63 212.074H421.877L425.491 211.634C425.491 211.634 424.996 203.082 425.308 200.86C425.701 199.189 426.419 197.627 427.416 196.278Z" fill="#92E3A9" fill-opacity="0.8"/>
</g>
</g>
<path d="M427.491 196.185C426.468 197.58 425.735 199.194 425.34 200.918C425.028 203.14 425.523 211.692 425.523 211.692L414.446 213.035C414.446 213.035 415.285 204.344 415.328 202.897C415.683 201.103 416.389 199.412 417.4 197.935C418.41 196.458 419.702 195.23 421.189 194.334C424.996 192.32 428.233 193.304 427.491 196.185Z" stroke="#263238" stroke-opacity="0.8" stroke-width="1.00396" stroke-miterlimit="10"/>
<path d="M429.792 197.655C438.976 184.601 416.834 171.038 411.016 184.011C410.205 185.611 409.563 187.303 409.101 189.057C408.22 189.635 405.875 191.186 405.445 191.614C405.015 192.042 406.52 193.142 407.349 193.686C405.768 197.863 406.004 202.261 406.456 203.256C407.241 204.969 411.112 204.992 413.661 204.483C416.21 203.973 417.221 201.347 417.963 200.629C418.705 199.912 422.404 200.826 423.705 201.242C425.007 201.659 428.007 200.236 429.792 197.655Z" fill="white" fill-opacity="0.8"/>
<mask id="mask8_170_454" style="mask-type:luminance" maskUnits="userSpaceOnUse" x="405" y="178" width="27" height="27">
<path d="M429.792 197.655C438.976 184.601 416.834 171.038 411.016 184.011C410.205 185.611 409.563 187.303 409.101 189.057C408.22 189.635 405.875 191.186 405.445 191.614C405.015 192.042 406.52 193.142 407.349 193.686C405.768 197.863 406.004 202.261 406.456 203.256C407.241 204.969 411.112 204.992 413.661 204.483C416.21 203.973 417.221 201.347 417.963 200.629C418.705 199.912 422.404 200.826 423.705 201.242C425.007 201.659 428.007 200.236 429.792 197.655Z" fill="white"/>
</mask>
<g mask="url(#mask8_170_454)">
<g style="mix-blend-mode:multiply" opacity="0.5">
<path d="M420.705 196.405C420.705 196.405 420.899 197.389 419.049 198.187C417.199 198.986 416.834 198.384 416.285 199.773C416.052 200.686 415.581 201.508 414.927 202.142C414.273 202.775 413.465 203.194 412.596 203.348C410.845 203.706 409.074 203.95 407.295 204.077C408.757 204.957 411.661 204.888 413.747 204.482C416.285 203.985 417.307 201.346 418.049 200.629C418.791 199.911 422.49 200.826 423.791 201.242C424.097 201.308 424.411 201.308 424.716 201.242C425.202 200.079 425.493 198.834 425.577 197.562L420.705 196.405Z" fill="#92E3A9" fill-opacity="0.8"/>
</g>
</g>
<path d="M429.792 197.655C438.976 184.601 416.834 171.038 411.016 184.011C410.205 185.611 409.563 187.303 409.101 189.057C408.22 189.635 405.875 191.186 405.445 191.614C405.015 192.042 406.52 193.142 407.349 193.686C405.768 197.863 406.004 202.261 406.456 203.256C407.241 204.969 411.112 204.992 413.661 204.483C416.21 203.973 417.221 201.347 417.963 200.629C418.705 199.912 422.404 200.826 423.705 201.242C425.007 201.659 428.007 200.236 429.792 197.655Z" stroke="#263238" stroke-opacity="0.8" stroke-miterlimit="10"/>
<path d="M411.854 190.202C411.618 190.758 411.22 191.105 410.962 190.978C410.704 190.85 410.682 190.295 410.962 189.739C411.241 189.184 411.596 188.837 411.854 188.964C412.113 189.091 412.091 189.647 411.854 190.202Z" fill="#263238" fill-opacity="0.8"/>
<path d="M411.639 186.638C411.639 186.638 412.715 185.677 412.93 187.888" stroke="#263238" stroke-opacity="0.8" stroke-width="0.5" stroke-linecap="round" stroke-linejoin="round"/>
<path d="M407.133 195.931C407.133 195.931 407.133 197.088 409.069 197.088" stroke="#263238" stroke-opacity="0.8" stroke-width="0.5" stroke-linecap="round" stroke-linejoin="round"/>
<path d="M404.509 271.661L403.66 282.979C403.66 282.979 397.777 328.042 398.057 333.215C398.337 338.388 398.971 391.83 398.971 391.83L406.058 393.045L414.016 333.77L425.189 273.536L404.509 271.661Z" fill="#92E3A9" fill-opacity="0.8" stroke="#263238" stroke-opacity="0.8" stroke-miterlimit="10"/>
<path opacity="0.2" d="M404.509 271.661L403.66 282.979C403.66 282.979 397.777 328.042 398.057 333.215C398.337 338.388 398.971 391.83 398.971 391.83L406.058 393.045L414.016 333.77L425.189 273.536L404.509 271.661Z" fill="#263238" fill-opacity="0.8"/>
<path d="M413.478 312.824C413.478 312.824 410.758 330.056 408.704 338.504C406.649 346.952 406.66 355.376 406.66 364.542C406.66 373.707 403.595 390.603 403.595 390.603" stroke="#263238" stroke-opacity="0.8" stroke-width="0.75" stroke-miterlimit="10"/>
<path d="M418.888 268.884C423.555 266.245 428.566 264.498 429.997 268.004C432.836 275.017 429.437 285.675 429.437 285.675L432.029 334.835L436.772 394.144L429.685 392.917C429.685 392.917 418.802 342.866 417.102 339.811C415.403 336.756 412.726 293.903 412.726 293.903L407.349 288.638" fill="#92E3A9" fill-opacity="0.8"/>
<path d="M418.888 268.884C423.555 266.245 428.566 264.498 429.997 268.004C432.836 275.017 429.437 285.675 429.437 285.675L432.029 334.835L436.772 394.144L429.685 392.917C429.685 392.917 418.802 342.866 417.102 339.811C415.403 336.756 412.726 293.903 412.726 293.903L407.349 288.638" stroke="#263238" stroke-opacity="0.8" stroke-miterlimit="10"/>
<g opacity="0.2">
<path d="M418.888 268.884C423.555 266.245 428.566 264.498 429.997 268.004C432.836 275.017 429.437 285.675 429.437 285.675L432.029 334.835L436.772 394.144L429.685 392.917C429.685 392.917 418.802 342.866 417.102 339.811C415.403 336.756 412.726 293.903 412.726 293.903L407.349 288.638" fill="#263238" fill-opacity="0.8"/>
</g>
<path d="M424.415 306.124C424.576 317.523 425.652 323.008 426.491 326.017C427.512 329.685 427.168 336.652 427.168 339.904C427.168 343.156 425.802 339.175 428.878 354.219C431.954 369.263 433.986 390.163 433.986 390.163" stroke="#263238" stroke-opacity="0.8" stroke-width="0.75" stroke-miterlimit="10"/>
<path d="M424.415 281.278C424.415 281.278 424.749 280.537 424.415 297.78C424.415 298.706 424.415 299.597 424.415 300.465" stroke="#263238" stroke-opacity="0.8" stroke-width="0.75" stroke-miterlimit="10"/>
<path d="M408.682 278.003L408.456 283.164L407.349 286.751L409.005 288.835" stroke="#263238" stroke-opacity="0.8" stroke-width="0.75" stroke-linecap="round" stroke-linejoin="round"/>
<path d="M406.51 281.081C406.51 281.081 409.284 284.067 416.489 283.164" stroke="#263238" stroke-opacity="0.8" stroke-width="0.75" stroke-linecap="round" stroke-linejoin="round"/>
<path d="M423.533 278.5C428.91 277.343 429.255 275.746 431.115 274.404C431.15 272.215 430.784 270.041 430.04 268.004C428.631 264.532 423.587 266.245 418.931 268.884L416.672 272.726L404.552 271.661L404.165 276.776C410.388 279.073 417.044 279.666 423.533 278.5Z" fill="#263238" fill-opacity="0.8"/>
<path d="M405.725 275.202L405.606 277.239L408.682 278.003L408.919 275.329L405.725 275.202Z" fill="white" fill-opacity="0.8" stroke="#263238" stroke-opacity="0.8" stroke-width="0.75" stroke-miterlimit="10"/>
<path d="M427.19 278.223L426.674 273.154L428.233 272.598L429.018 277.1" fill="#92E3A9" fill-opacity="0.8"/>
<path d="M427.19 278.223L426.674 273.154L428.233 272.598L429.018 277.1" stroke="#263238" stroke-opacity="0.8" stroke-miterlimit="10"/>
<path d="M415.167 279.912L414.124 273.999H416.737L417.78 279.067" fill="#92E3A9" fill-opacity="0.8"/>
<path d="M415.167 279.912L414.124 273.999H416.737L417.78 279.067" stroke="#263238" stroke-opacity="0.8" stroke-miterlimit="10"/>
<g opacity="0.2">
<path d="M427.19 278.223L426.674 273.154L428.233 272.598L429.018 277.1" fill="#263238" fill-opacity="0.8"/>
<path d="M415.167 279.912L414.124 273.999H416.737L417.78 279.067" fill="#263238" fill-opacity="0.8"/>
</g>
<path d="M403.122 226.806C403.122 226.806 402.229 233.229 399.552 244.165C396.874 255.101 394.175 268.212 394.175 268.212L395.669 274.947L400.132 267.888L403.122 226.806Z" fill="#263238" fill-opacity="0.8" stroke="#263238" stroke-opacity="0.8" stroke-miterlimit="10"/>
<path d="M410.575 217.513C410.575 217.513 404.316 219.11 403.724 222.316C403.405 223.791 403.204 225.294 403.122 226.806L412.661 218.474L424.587 213.336L410.575 217.513Z" fill="#263238" fill-opacity="0.8" stroke="#263238" stroke-opacity="0.8" stroke-miterlimit="10"/>
<path d="M412.285 215.037C412.285 215.037 407.198 221.228 405.176 223.774C403.154 226.32 403.144 253.642 403.144 257.658C403.144 261.674 401.122 272.575 404.499 274.762C407.875 276.949 428.534 276.22 430.566 272.575C432.599 268.93 433.943 225.232 433.61 221.228C433.357 219.432 432.699 217.729 431.694 216.269C430.69 214.808 429.368 213.635 427.846 212.849C425.491 211.681 412.285 215.037 412.285 215.037Z" fill="white" fill-opacity="0.8"/>
<mask id="mask9_170_454" style="mask-type:luminance" maskUnits="userSpaceOnUse" x="402" y="212" width="32" height="64">
<path d="M412.285 215.037C412.285 215.037 407.198 221.228 405.176 223.774C403.154 226.32 403.144 253.642 403.144 257.658C403.144 261.674 401.122 272.575 404.499 274.762C407.875 276.949 428.534 276.22 430.566 272.575C432.599 268.93 433.943 225.232 433.61 221.228C433.357 219.432 432.699 217.729 431.694 216.269C430.69 214.808 429.368 213.635 427.846 212.849C425.491 211.681 412.285 215.037 412.285 215.037Z" fill="white"/>
</mask>
<g mask="url(#mask9_170_454)">
<g style="mix-blend-mode:multiply" opacity="0.5">
<path d="M427.846 212.85C427.565 212.727 427.266 212.657 426.964 212.641L425.501 213.463C427.963 215.633 429.656 218.649 430.298 222.003C430.978 226.877 430.916 231.837 430.115 236.689C429.383 242.047 417.575 236.689 419.791 238.679C422.006 240.67 430.298 244.037 430.674 245.82C431.05 247.602 426.566 250.576 424.953 250.784C423.34 250.992 426.028 254.95 427.717 258.318C429.405 261.685 428.792 266.419 424.953 269.636C421.114 272.853 412.198 274.438 408.348 274.6C407.101 274.6 406.327 274.948 406.09 275.341C412.005 276.764 428.749 275.839 430.566 272.575C432.599 268.93 433.943 225.232 433.61 221.228C433.356 219.432 432.699 217.729 431.694 216.269C430.69 214.808 429.368 213.635 427.846 212.85Z" fill="#92E3A9" fill-opacity="0.8"/>
</g>
</g>
<path d="M412.285 215.037C412.285 215.037 407.198 221.228 405.176 223.774C403.154 226.32 403.144 253.642 403.144 257.658C403.144 261.674 401.122 272.575 404.499 274.762C407.875 276.949 428.534 276.22 430.566 272.575C432.599 268.93 433.943 225.232 433.61 221.228C433.357 219.432 432.699 217.729 431.694 216.269C430.69 214.808 429.368 213.635 427.846 212.849C425.491 211.681 412.285 215.037 412.285 215.037Z" stroke="#263238" stroke-opacity="0.8" stroke-miterlimit="10"/>
<path d="M422.684 242.753C417.231 240.924 412.457 235.809 412.457 235.809C413.666 241.887 416.951 247.256 421.662 250.854" fill="white" fill-opacity="0.8"/>
<path d="M422.684 242.753C417.231 240.924 412.457 235.809 412.457 235.809C413.666 241.887 416.951 247.256 421.662 250.854" stroke="#263238" stroke-opacity="0.8" stroke-width="0.75" stroke-linecap="round" stroke-linejoin="round"/>
<path d="M426.835 208.845L410.585 212.85L409.575 217.953L427.846 212.85L426.835 208.845Z" fill="white" fill-opacity="0.8" stroke="#263238" stroke-opacity="0.8" stroke-miterlimit="10"/>
<path d="M407.004 400.683L406.058 392.999L398.971 391.783L393.067 396.308L387.776 399.433V400.683H407.004Z" fill="#263238" fill-opacity="0.8" stroke="#263238" stroke-opacity="0.8" stroke-miterlimit="10"/>
<path d="M437.653 401.284L436.772 394.144L429.685 392.917L423.781 397.442L418.49 400.578V401.284H437.653Z" fill="#263238" fill-opacity="0.8" stroke="#263238" stroke-opacity="0.8" stroke-miterlimit="10"/>
<path d="M376.441 175.355L372.075 172.635C372.075 172.635 370.376 172.415 371.107 174.452L375.473 178.074" fill="white" fill-opacity="0.8"/>
<path d="M376.441 175.355L372.075 172.635C372.075 172.635 370.376 172.415 371.107 174.452L375.473 178.074" stroke="#263238" stroke-opacity="0.8" stroke-linecap="round" stroke-linejoin="round"/>
<path d="M375.796 182.425C375.591 181.867 375.288 181.357 374.903 180.921L374.086 179.972L369.645 174.047C369.645 174.047 368.268 173.052 368.569 175.204L371.322 180.99L366.429 176.049C366.429 176.049 365.504 175.227 365.504 176.385C365.504 177.542 369.946 182.645 369.946 182.645L365.042 180.169C365.042 180.169 363.967 180.99 364.741 181.812C365.515 182.634 369.634 184.289 369.634 184.289L365.967 184.127C365.967 184.127 364.891 185.11 365.655 185.446C366.418 185.781 370.709 186.754 370.709 186.754C371.255 187.252 371.877 187.644 372.548 187.911L373.624 190.052L377.743 187.818L375.796 182.425Z" fill="white" fill-opacity="0.8" stroke="#263238" stroke-opacity="0.8" stroke-linecap="round" stroke-linejoin="round"/>
<path d="M419.769 233.796L395.229 239.987C393.972 240.225 392.678 239.987 391.567 239.314C390.455 238.641 389.594 237.574 389.131 236.295L373.645 190.005L377.764 187.772L394.874 221.876C395.262 222.656 395.873 223.281 396.617 223.658C397.36 224.035 398.197 224.145 399.003 223.971L417.769 218.265" fill="white" fill-opacity="0.8"/>
<path d="M419.769 233.796L395.229 239.987C393.972 240.225 392.678 239.987 391.567 239.314C390.455 238.641 389.594 237.574 389.131 236.295L373.645 190.005L377.764 187.772L394.874 221.876C395.262 222.656 395.873 223.281 396.617 223.658C397.36 224.035 398.197 224.145 399.003 223.971L417.769 218.265" stroke="#263238" stroke-opacity="0.8" stroke-miterlimit="10"/>
<path d="M380.076 192.135L375.301 194.704" stroke="#263238" stroke-opacity="0.8" stroke-width="0.75" stroke-miterlimit="10"/>
<path d="M416.715 184.15C416.715 184.15 414.102 186.962 415.403 189.068C416.174 190.285 416.762 191.624 417.145 193.037C417.145 193.037 416.07 195.85 416.93 195.85C417.791 195.85 417.361 193.743 418.888 194.218C420.415 194.692 421.931 197.493 420.63 198.43C419.656 199.016 418.625 199.482 417.554 199.819C417.418 199.864 417.297 199.951 417.205 200.069C417.114 200.187 417.057 200.331 417.041 200.483C417.025 200.636 417.051 200.79 417.115 200.927C417.18 201.064 417.28 201.178 417.404 201.254C418.818 202.282 420.448 202.918 422.146 203.106C423.535 203.138 424.923 202.982 426.276 202.643C426.276 202.643 430.577 196.324 433.674 194.681C436.772 193.037 435.417 185.55 435.417 184.613C435.417 183.675 432.373 181.569 432.373 181.569C432.373 181.569 433.244 179.463 429.33 174.788C425.415 170.112 418.017 169.163 417.801 170.807C417.726 171.242 417.768 171.691 417.922 172.101C418.076 172.511 418.337 172.865 418.673 173.121C418.673 173.121 412.145 170.078 409.101 173.353C406.058 176.628 416.715 184.15 416.715 184.15Z" fill="#263238" fill-opacity="0.8" stroke="#263238" stroke-opacity="0.8" stroke-miterlimit="10"/>
<path d="M416.715 184.15C416.715 184.15 422.006 191.093 429.846 191.764" stroke="white" stroke-opacity="0.8" stroke-width="0.5" stroke-linecap="round" stroke-linejoin="round"/>
<path d="M414.844 186.267C414.844 186.267 417.307 193.975 427.491 196.174" stroke="white" stroke-opacity="0.8" stroke-width="0.5" stroke-linecap="round" stroke-linejoin="round"/>
</svg>
