<svg width="500" height="373" viewBox="0 0 500 373" fill="none" xmlns="http://www.w3.org/2000/svg">
<path d="M500 327.4H0V327.65H500V327.4Z" fill="#EBEBEB"/>
<path d="M449.9 343.49H416.78V343.74H449.9V343.49Z" fill="#EBEBEB"/>
<path d="M331.22 346.21H322.53V346.46H331.22V346.21Z" fill="#EBEBEB"/>
<path d="M415.78 334.21H396.59V334.46H415.78V334.21Z" fill="#EBEBEB"/>
<path d="M95.6502 335.89H52.4602V336.14H95.6502V335.89Z" fill="#EBEBEB"/>
<path d="M110.89 335.89H104.56V336.14H110.89V335.89Z" fill="#EBEBEB"/>
<path d="M225.15 340.11H131.47V340.36H225.15V340.11Z" fill="#EBEBEB"/>
<path d="M237 282.8H43.9097C42.3971 282.797 40.9473 282.195 39.8786 281.124C38.8099 280.054 38.2097 278.603 38.2097 277.09V5.66C38.2229 4.15603 38.8289 2.71798 39.8962 1.65822C40.9634 0.598458 42.4057 0.00257639 43.9097 0H237C238.514 0 239.966 0.601588 241.037 1.67242C242.108 2.74325 242.71 4.19561 242.71 5.71V277.09C242.71 278.604 242.108 280.057 241.037 281.128C239.966 282.198 238.514 282.8 237 282.8ZM43.9097 0.200001C42.4634 0.20265 41.0772 0.779065 40.0554 1.80273C39.0336 2.82639 38.4597 4.21365 38.4597 5.66V277.09C38.4597 278.536 39.0336 279.924 40.0554 280.947C41.0772 281.971 42.4634 282.547 43.9097 282.55H237C238.447 282.547 239.834 281.971 240.858 280.948C241.881 279.925 242.457 278.537 242.46 277.09V5.66C242.457 4.21273 241.881 2.82549 240.858 1.80212C239.834 0.77874 238.447 0.202644 237 0.200001H43.9097Z" fill="#EBEBEB"/>
<path d="M453.31 282.8H260.21C258.696 282.797 257.245 282.195 256.175 281.125C255.105 280.054 254.502 278.604 254.5 277.09V5.66C254.516 4.15511 255.124 2.71708 256.193 1.65759C257.261 0.598109 258.705 0.00254829 260.21 0H453.31C454.812 0.0052045 456.252 0.602249 457.317 1.66173C458.382 2.72121 458.987 4.15775 459 5.66V277.09C459 278.601 458.401 280.05 457.334 281.121C456.268 282.191 454.821 282.795 453.31 282.8ZM260.21 0.200001C258.762 0.202644 257.375 0.77874 256.352 1.80212C255.328 2.82549 254.752 4.21273 254.75 5.66V277.09C254.752 278.537 255.328 279.925 256.352 280.948C257.375 281.971 258.762 282.547 260.21 282.55H453.31C454.757 282.547 456.144 281.971 457.168 280.948C458.191 279.925 458.767 278.537 458.77 277.09V5.66C458.767 4.21273 458.191 2.82549 457.168 1.80212C456.144 0.77874 454.757 0.202644 453.31 0.200001H260.21Z" fill="#EBEBEB"/>
<path d="M421.94 66.7902H271.19V200.56H421.94V66.7902Z" fill="#E6E6E6"/>
<path d="M417.97 70.4596H274.96V196.97H417.97V70.4596Z" fill="#F0F0F0"/>
<path d="M308.52 70.4596L274.96 196.69V137.37L292.68 70.4596H308.52Z" fill="white"/>
<path d="M320.41 70.4596L286.55 196.97H281.15L315.01 70.4596H320.41Z" fill="white"/>
<path d="M417.97 150.28V170.5L411.12 196.97H405.71L417.97 150.28Z" fill="white"/>
<path d="M324.84 68.1797H322.43V199.79H324.84V68.1797Z" fill="#E6E6E6"/>
<path d="M371.53 68.1797H369.12V199.79H371.53V68.1797Z" fill="#E6E6E6"/>
<path d="M238.63 112.82H78.0598V160H238.63V112.82Z" fill="#E6E6E6"/>
<path d="M238.63 112.82H96.54V160H238.63V112.82Z" fill="#EBEBEB"/>
<path d="M235.63 157V115.82L99.5401 115.82V157H235.63Z" fill="#E0E0E0"/>
<path d="M126.88 115.82H124.51V157H126.88V115.82Z" fill="#EBEBEB"/>
<path d="M166.3 146.6V144.23H125.12V146.6H166.3Z" fill="#EBEBEB"/>
<path d="M208.91 129.86V127.49H167.73V129.86H208.91Z" fill="#EBEBEB"/>
<path d="M168.91 115.82H166.54V157H168.91V115.82Z" fill="#EBEBEB"/>
<path d="M211.94 115.82H209.57V157H211.94V115.82Z" fill="#EBEBEB"/>
<path d="M151.894 98.1881C160.215 96.2243 165.368 87.8869 163.405 79.5662C161.441 71.2454 153.103 66.0922 144.783 68.056C136.462 70.0199 131.309 78.3572 133.272 86.678C135.236 94.9987 143.574 100.152 151.894 98.1881Z" fill="#E0E0E0"/>
<path d="M150.451 96.0876C157.625 94.9231 162.497 88.1632 161.332 80.989C160.168 73.8149 153.408 68.9431 146.234 70.1076C139.06 71.2721 134.188 78.032 135.352 85.2062C136.517 92.3803 143.277 97.2521 150.451 96.0876Z" fill="#F0F0F0"/>
<path d="M147.72 92.1299V82.9299L141.62 86.3799" fill="#F0F0F0"/>
<path d="M147.72 92.6303C147.588 92.6303 147.46 92.5776 147.367 92.4839C147.273 92.3901 147.22 92.2629 147.22 92.1303V83.7903L141.87 86.7903C141.813 86.8237 141.751 86.8454 141.685 86.8539C141.62 86.8624 141.553 86.8577 141.49 86.84C141.426 86.8222 141.367 86.7918 141.316 86.7507C141.264 86.7095 141.222 86.6584 141.19 86.6003C141.157 86.5435 141.135 86.4805 141.127 86.4152C141.118 86.3498 141.123 86.2834 141.141 86.2199C141.158 86.1564 141.189 86.0971 141.23 86.0457C141.271 85.9942 141.322 85.9516 141.38 85.9203L147.47 82.4703C147.546 82.4264 147.633 82.4033 147.72 82.4033C147.808 82.4033 147.894 82.4264 147.97 82.4703C148.045 82.5154 148.106 82.5784 148.15 82.6535C148.194 82.7286 148.218 82.8134 148.22 82.9003V92.1003C148.224 92.1685 148.214 92.2367 148.191 92.3009C148.168 92.365 148.132 92.4238 148.085 92.4734C148.038 92.5231 147.982 92.5626 147.919 92.5896C147.856 92.6166 147.789 92.6304 147.72 92.6303Z" fill="#E0E0E0"/>
<path d="M250 372.56C357.082 372.56 443.89 367.492 443.89 361.24C443.89 354.989 357.082 349.92 250 349.92C142.917 349.92 56.1099 354.989 56.1099 361.24C56.1099 367.492 142.917 372.56 250 372.56Z" fill="#F5F5F5"/>
<path d="M278.94 181V177.73H273.2V181C273.201 181.92 272.958 182.824 272.496 183.62C272.034 184.415 271.37 185.074 270.57 185.53C269.77 185.985 269.105 186.644 268.643 187.44C268.181 188.236 267.939 189.14 267.94 190.06V220.56C267.939 221.014 268.027 221.463 268.2 221.882C268.373 222.301 268.627 222.682 268.948 223.003C269.268 223.323 269.649 223.577 270.068 223.75C270.488 223.923 270.937 224.011 271.39 224.01H280.75C281.204 224.011 281.653 223.923 282.072 223.75C282.491 223.577 282.872 223.323 283.193 223.003C283.513 222.682 283.767 222.301 283.94 221.882C284.113 221.463 284.202 221.014 284.2 220.56V190.06C284.2 189.14 283.956 188.237 283.495 187.441C283.033 186.646 282.369 185.987 281.57 185.53C280.771 185.074 280.106 184.415 279.645 183.62C279.183 182.824 278.94 181.92 278.94 181Z" fill="#508D4E"/>
<path opacity="0.7" d="M278.94 181V177.73H273.2V181C273.201 181.92 272.958 182.824 272.496 183.62C272.034 184.415 271.37 185.074 270.57 185.53C269.77 185.985 269.105 186.644 268.643 187.44C268.181 188.236 267.939 189.14 267.94 190.06V220.56C267.939 221.014 268.027 221.463 268.2 221.882C268.373 222.301 268.627 222.682 268.948 223.003C269.268 223.323 269.649 223.577 270.068 223.75C270.488 223.923 270.937 224.011 271.39 224.01H280.75C281.204 224.011 281.653 223.923 282.072 223.75C282.491 223.577 282.872 223.323 283.193 223.003C283.513 222.682 283.767 222.301 283.94 221.882C284.113 221.463 284.202 221.014 284.2 220.56V190.06C284.2 189.14 283.956 188.237 283.495 187.441C283.033 186.646 282.369 185.987 281.57 185.53C280.771 185.074 280.106 184.415 279.645 183.62C279.183 182.824 278.94 181.92 278.94 181Z" fill="white"/>
<path d="M279.16 175.67H272.97V179.54H279.16V175.67Z" fill="#508D4E"/>
<path opacity="0.2" d="M284.2 199.28H267.94V203.72H284.2V199.28Z" fill="white"/>
<path opacity="0.2" d="M284.2 204.47H267.94V208.91H284.2V204.47Z" fill="white"/>
<path opacity="0.2" d="M284.2 209.66H267.94V214.1H284.2V209.66Z" fill="white"/>
<path d="M300.94 224H291.18L290 208.91H302.13L300.94 224Z" fill="#508D4E"/>
<path opacity="0.7" d="M302.13 208.91L301.79 213.25L300.94 224H291.19L290.34 213.25L290 208.91H302.13Z" fill="white"/>
<path opacity="0.2" d="M301.79 213.25L300.94 224H291.19L290.34 213.25H301.79Z" fill="white"/>
<path d="M303.04 209.66H289.09L290.09 207.79H302.04L303.04 209.66Z" fill="#508D4E"/>
<path d="M342.21 213.25H309.61C308.993 213.253 308.402 213.499 307.966 213.936C307.529 214.372 307.283 214.963 307.28 215.58V362H313.28V351.6H338.62V362H344.62V215.58C344.619 215.268 344.555 214.959 344.433 214.671C344.31 214.384 344.131 214.124 343.907 213.907C343.682 213.69 343.416 213.52 343.125 213.407C342.834 213.294 342.523 213.241 342.21 213.25Z" fill="#263238"/>
<path opacity="0.7" d="M342.21 213.25H309.61C308.993 213.253 308.402 213.499 307.966 213.936C307.529 214.372 307.283 214.963 307.28 215.58V362H313.28V351.6H338.62V362H344.62V215.58C344.619 215.268 344.555 214.959 344.433 214.671C344.31 214.384 344.131 214.124 343.907 213.907C343.682 213.69 343.416 213.52 343.125 213.407C342.834 213.294 342.523 213.241 342.21 213.25Z" fill="white"/>
<path opacity="0.4" d="M340.21 213.25H309.61C308.993 213.253 308.402 213.499 307.966 213.936C307.529 214.372 307.283 214.963 307.28 215.58V362H311.28V351.6H338.62V362H342.62V215.58C342.619 215.268 342.555 214.959 342.433 214.671C342.31 214.384 342.131 214.124 341.907 213.907C341.682 213.69 341.416 213.52 341.125 213.407C340.834 213.294 340.523 213.241 340.21 213.25Z" fill="white"/>
<path d="M338.99 224H248.31V351.34H338.99V224Z" fill="#263238"/>
<path opacity="0.75" d="M338.99 224H248.31V351.34H338.99V224Z" fill="white"/>
<path d="M280.17 213.25H247.58C246.961 213.25 246.367 213.495 245.929 213.932C245.49 214.368 245.243 214.961 245.24 215.58V362H251.24V351.6H276.58V362H282.58V215.58C282.58 215.267 282.517 214.957 282.395 214.669C282.273 214.381 282.094 214.121 281.869 213.903C281.645 213.686 281.378 213.516 281.086 213.404C280.794 213.292 280.483 213.239 280.17 213.25Z" fill="#263238"/>
<path opacity="0.7" d="M280.17 213.25H247.58C246.961 213.25 246.367 213.495 245.929 213.932C245.49 214.368 245.243 214.961 245.24 215.58V362H251.24V351.6H276.58V362H282.58V215.58C282.58 215.267 282.517 214.957 282.395 214.669C282.273 214.381 282.094 214.121 281.869 213.903C281.645 213.686 281.378 213.516 281.086 213.404C280.794 213.292 280.483 213.239 280.17 213.25Z" fill="white"/>
<path opacity="0.4" d="M278.17 213.25H247.58C246.961 213.25 246.367 213.495 245.929 213.932C245.49 214.369 245.243 214.961 245.24 215.58V362H249.24V351.6H276.58V362H280.58V215.58C280.579 215.268 280.515 214.959 280.393 214.671C280.27 214.384 280.091 214.124 279.866 213.907C279.642 213.69 279.376 213.52 279.085 213.407C278.793 213.294 278.482 213.241 278.17 213.25Z" fill="white"/>
<path opacity="0.2" d="M334.77 227.77H283.98V243.28H334.77V227.77Z" fill="white"/>
<path opacity="0.2" d="M334.77 246.76H283.98V346.92H334.77V246.76Z" fill="white"/>
<path d="M261.75 315.15C260.99 314.92 260.53 314.53 260.53 314.15V289.15C260.529 289.054 260.55 288.958 260.59 288.87C260.671 288.707 260.791 288.566 260.94 288.46C261.191 288.291 261.468 288.162 261.76 288.08C262.108 287.977 262.467 287.914 262.83 287.89H388.45C388.818 287.919 389.183 287.983 389.54 288.08C389.824 288.167 390.093 288.295 390.34 288.46C390.486 288.569 390.606 288.709 390.69 288.87C390.731 288.958 390.748 289.054 390.74 289.15V314.15C390.74 314.57 390.29 314.96 389.53 315.15C388.699 315.38 387.826 315.414 386.98 315.25L325.64 302.93L264.3 315.25C263.944 315.319 263.582 315.353 263.22 315.35C262.723 315.353 262.228 315.285 261.75 315.15ZM265.91 290.94V312.21L318.91 301.58L265.91 290.94ZM332.38 301.58L385.38 312.21V290.94L332.38 301.58ZM276.15 290.29L325.64 300.23L375.12 290.29H276.15Z" fill="#263238"/>
<g opacity="0.3">
<path d="M261.75 315.15C260.99 314.92 260.53 314.53 260.53 314.15V289.15C260.529 289.054 260.55 288.958 260.59 288.87C260.671 288.707 260.791 288.566 260.94 288.46C261.191 288.291 261.468 288.162 261.76 288.08C262.108 287.977 262.467 287.914 262.83 287.89H388.45C388.818 287.919 389.183 287.983 389.54 288.08C389.824 288.167 390.093 288.295 390.34 288.46C390.486 288.569 390.606 288.709 390.69 288.87C390.731 288.958 390.748 289.054 390.74 289.15V314.15C390.74 314.57 390.29 314.96 389.53 315.15C388.699 315.38 387.826 315.414 386.98 315.25L325.64 302.93L264.3 315.25C263.944 315.319 263.582 315.353 263.22 315.35C262.723 315.353 262.228 315.285 261.75 315.15ZM265.91 290.94V312.21L318.91 301.58L265.91 290.94ZM332.38 301.58L385.38 312.21V290.94L332.38 301.58ZM276.15 290.29L325.64 300.23L375.12 290.29H276.15Z" fill="white"/>
</g>
<path d="M245.3 286.38H427.21C427.563 286.379 427.914 286.448 428.241 286.582C428.568 286.717 428.865 286.915 429.115 287.165C429.365 287.415 429.563 287.712 429.698 288.039C429.832 288.366 429.901 288.717 429.9 289.07C429.9 289.784 429.616 290.468 429.112 290.972C428.607 291.477 427.923 291.76 427.21 291.76H245.3C244.586 291.76 243.902 291.477 243.398 290.972C242.893 290.468 242.61 289.784 242.61 289.07C242.608 288.717 242.677 288.366 242.812 288.039C242.946 287.712 243.145 287.415 243.395 287.165C243.645 286.915 243.942 286.717 244.269 286.582C244.596 286.448 244.946 286.379 245.3 286.38Z" fill="#263238"/>
<g opacity="0.3">
<path d="M245.3 286.38H427.21C427.563 286.379 427.914 286.448 428.241 286.582C428.568 286.717 428.865 286.915 429.115 287.165C429.365 287.415 429.563 287.712 429.698 288.039C429.832 288.366 429.901 288.717 429.9 289.07C429.9 289.784 429.616 290.468 429.112 290.972C428.607 291.477 427.923 291.76 427.21 291.76H245.3C244.586 291.76 243.902 291.477 243.398 290.972C242.893 290.468 242.61 289.784 242.61 289.07C242.608 288.717 242.677 288.366 242.812 288.039C242.946 287.712 243.145 287.415 243.395 287.165C243.645 286.915 243.942 286.717 244.269 286.582C244.596 286.448 244.946 286.379 245.3 286.38Z" fill="white"/>
</g>
<path d="M414.729 335.17C415.467 335.171 416.175 334.882 416.702 334.366C417.23 333.85 417.534 333.148 417.549 332.41L418.039 312.73C418.049 312.353 417.982 311.978 417.844 311.627C417.706 311.276 417.499 310.957 417.235 310.687C416.971 310.418 416.656 310.204 416.308 310.059C415.96 309.913 415.586 309.839 415.209 309.84H263.209C262.721 309.84 262.241 309.967 261.816 310.209C261.392 310.451 261.038 310.8 260.789 311.22L249.899 329.49C249.516 330.133 249.404 330.903 249.588 331.628C249.772 332.354 250.236 332.977 250.879 333.36C251.523 333.744 252.292 333.856 253.017 333.672C253.743 333.488 254.366 333.024 254.749 332.38L264.819 315.48H412.319L411.909 332.27C411.891 333.019 412.169 333.745 412.685 334.289C413.2 334.832 413.91 335.149 414.659 335.17H414.729Z" fill="#263238"/>
<g opacity="0.3">
<path d="M414.729 335.17C415.467 335.171 416.175 334.882 416.702 334.366C417.23 333.85 417.534 333.148 417.549 332.41L418.039 312.73C418.049 312.353 417.982 311.978 417.844 311.627C417.706 311.276 417.499 310.957 417.235 310.687C416.971 310.418 416.656 310.204 416.308 310.059C415.96 309.913 415.586 309.839 415.209 309.84H263.209C262.721 309.84 262.241 309.967 261.816 310.209C261.392 310.451 261.038 310.8 260.789 311.22L249.899 329.49C249.516 330.133 249.404 330.903 249.588 331.628C249.772 332.354 250.236 332.977 250.879 333.36C251.523 333.744 252.292 333.856 253.017 333.672C253.743 333.488 254.366 333.024 254.749 332.38L264.819 315.48H412.319L411.909 332.27C411.891 333.019 412.169 333.745 412.685 334.289C413.2 334.832 413.91 335.149 414.659 335.17H414.729Z" fill="white"/>
</g>
<path d="M109 190.3V293.57C109 296.48 110.66 298.84 112.69 298.84H231.28C233.28 298.84 234.97 296.48 234.97 293.57V190.3C234.97 187.4 233.31 185.04 231.28 185.04H112.65C110.62 185 109 187.4 109 190.3ZM209.89 196.65C209.89 193.97 211.4 191.8 213.28 191.8H225.28C225.765 191.825 226.236 191.967 226.655 192.214C227.073 192.461 227.424 192.807 227.68 193.22C228.353 194.235 228.702 195.431 228.68 196.65C228.68 199.33 227.16 201.49 225.28 201.49H213.28C212.794 201.465 212.323 201.323 211.904 201.076C211.486 200.828 211.135 200.483 210.88 200.07C210.197 199.061 209.838 197.868 209.85 196.65H209.89ZM115.3 196.65C115.3 193.97 116.82 191.8 118.69 191.8H130.69C131.175 191.825 131.646 191.967 132.065 192.214C132.483 192.461 132.834 192.807 133.09 193.22C133.759 194.237 134.108 195.432 134.09 196.65C134.09 199.33 132.57 201.49 130.7 201.49H118.7C118.214 201.465 117.743 201.323 117.324 201.076C116.906 200.828 116.555 200.483 116.3 200.07C115.613 199.062 115.251 197.869 115.26 196.65H115.3Z" fill="#508D4E"/>
<path opacity="0.6" d="M109 190.3V293.57C109 296.48 110.66 298.84 112.69 298.84H231.28C233.28 298.84 234.97 296.48 234.97 293.57V190.3C234.97 187.4 233.31 185.04 231.28 185.04H112.65C110.62 185 109 187.4 109 190.3ZM209.89 196.65C209.89 193.97 211.4 191.8 213.28 191.8H225.28C225.765 191.825 226.236 191.967 226.655 192.214C227.073 192.461 227.424 192.807 227.68 193.22C228.353 194.235 228.702 195.431 228.68 196.65C228.68 199.33 227.16 201.49 225.28 201.49H213.28C212.794 201.465 212.323 201.323 211.904 201.076C211.486 200.828 211.135 200.483 210.88 200.07C210.197 199.061 209.838 197.868 209.85 196.65H209.89ZM115.3 196.65C115.3 193.97 116.82 191.8 118.69 191.8H130.69C131.175 191.825 131.646 191.967 132.065 192.214C132.483 192.461 132.834 192.807 133.09 193.22C133.759 194.237 134.108 195.432 134.09 196.65C134.09 199.33 132.57 201.49 130.7 201.49H118.7C118.214 201.465 117.743 201.323 117.324 201.076C116.906 200.828 116.555 200.483 116.3 200.07C115.613 199.062 115.251 197.869 115.26 196.65H115.3Z" fill="white"/>
<path d="M110.939 190.3V293.57C110.939 296.48 112.599 298.84 114.629 298.84H233.259C235.259 298.84 236.949 296.48 236.949 293.57V190.3C236.949 187.4 235.289 185.04 233.259 185.04H114.629C112.599 185 110.939 187.4 110.939 190.3ZM211.829 196.65C211.829 193.97 213.349 191.8 215.229 191.8H227.229C227.714 191.825 228.186 191.967 228.604 192.214C229.022 192.461 229.374 192.807 229.629 193.22C230.303 194.235 230.652 195.431 230.629 196.65C230.629 199.33 229.109 201.49 227.229 201.49H215.229C214.742 201.467 214.268 201.325 213.849 201.078C213.429 200.83 213.075 200.484 212.819 200.07C212.151 199.056 211.806 197.864 211.829 196.65ZM117.239 196.65C117.239 193.97 118.759 191.8 120.629 191.8H132.629C133.114 191.825 133.586 191.967 134.004 192.214C134.422 192.461 134.774 192.807 135.029 193.22C135.699 194.237 136.048 195.432 136.029 196.65C136.029 199.33 134.509 201.49 132.639 201.49H120.639C120.154 201.465 119.682 201.323 119.264 201.076C118.846 200.828 118.494 200.483 118.239 200.07C117.567 199.057 117.219 197.865 117.239 196.65Z" fill="#508D4E"/>
<path opacity="0.7" d="M110.939 190.3V293.57C110.939 296.48 112.599 298.84 114.629 298.84H233.259C235.259 298.84 236.949 296.48 236.949 293.57V190.3C236.949 187.4 235.289 185.04 233.259 185.04H114.629C112.599 185 110.939 187.4 110.939 190.3ZM211.829 196.65C211.829 193.97 213.349 191.8 215.229 191.8H227.229C227.714 191.825 228.186 191.967 228.604 192.214C229.022 192.461 229.374 192.807 229.629 193.22C230.303 194.235 230.652 195.431 230.629 196.65C230.629 199.33 229.109 201.49 227.229 201.49H215.229C214.742 201.467 214.268 201.325 213.849 201.078C213.429 200.83 213.075 200.484 212.819 200.07C212.151 199.056 211.806 197.864 211.829 196.65ZM117.239 196.65C117.239 193.97 118.759 191.8 120.629 191.8H132.629C133.114 191.825 133.586 191.967 134.004 192.214C134.422 192.461 134.774 192.807 135.029 193.22C135.699 194.237 136.048 195.432 136.029 196.65C136.029 199.33 134.509 201.49 132.639 201.49H120.639C120.154 201.465 119.682 201.323 119.264 201.076C118.846 200.828 118.494 200.483 118.239 200.07C117.567 199.057 117.219 197.865 117.239 196.65Z" fill="white"/>
<path opacity="0.1" d="M120.189 281.34H227.699C229.329 281.34 230.649 280.02 230.649 278.39V251.3C230.649 249.671 229.329 248.35 227.699 248.35H120.189C118.56 248.35 117.239 249.671 117.239 251.3V278.39C117.239 280.02 118.56 281.34 120.189 281.34Z" fill="black"/>
<path d="M236.949 287.22H110.939V288.8H236.949V287.22Z" fill="#508D4E"/>
<path d="M141.669 315.15C140.919 314.92 140.459 314.53 140.459 314.15V289.15C140.435 289.059 140.435 288.962 140.459 288.87C140.543 288.709 140.663 288.569 140.809 288.46C141.063 288.295 141.339 288.167 141.629 288.08C141.978 287.977 142.337 287.914 142.699 287.89H268.369C268.738 287.918 269.103 287.981 269.459 288.08C269.744 288.164 270.014 288.293 270.259 288.46C270.411 288.562 270.532 288.704 270.609 288.87C270.649 288.958 270.67 289.054 270.669 289.15V314.15C270.669 314.57 270.209 314.96 269.449 315.15C268.622 315.379 267.752 315.414 266.909 315.25L205.559 302.93L144.219 315.25C143.373 315.412 142.501 315.377 141.669 315.15ZM145.839 290.94V312.21L198.839 301.58L145.839 290.94ZM212.309 301.58L265.309 312.21V290.94L212.309 301.58ZM156.079 290.29L205.559 300.23L255.049 290.29H156.079Z" fill="#263238"/>
<g opacity="0.5">
<path d="M141.669 315.15C140.919 314.92 140.459 314.53 140.459 314.15V289.15C140.435 289.059 140.435 288.962 140.459 288.87C140.543 288.709 140.663 288.569 140.809 288.46C141.063 288.295 141.339 288.167 141.629 288.08C141.978 287.977 142.337 287.914 142.699 287.89H268.369C268.738 287.918 269.103 287.981 269.459 288.08C269.744 288.164 270.014 288.293 270.259 288.46C270.411 288.562 270.532 288.704 270.609 288.87C270.649 288.958 270.67 289.054 270.669 289.15V314.15C270.669 314.57 270.209 314.96 269.449 315.15C268.622 315.379 267.752 315.414 266.909 315.25L205.559 302.93L144.219 315.25C143.373 315.412 142.501 315.377 141.669 315.15ZM145.839 290.94V312.21L198.839 301.58L145.839 290.94ZM212.309 301.58L265.309 312.21V290.94L212.309 301.58ZM156.079 290.29L205.559 300.23L255.049 290.29H156.079Z" fill="white"/>
</g>
<path d="M125.219 286.38H307.139C307.853 286.38 308.537 286.664 309.041 287.168C309.546 287.673 309.829 288.357 309.829 289.07C309.827 289.783 309.542 290.466 309.039 290.97C308.535 291.473 307.852 291.758 307.139 291.76H125.219C124.507 291.758 123.824 291.473 123.32 290.97C122.816 290.466 122.532 289.783 122.529 289.07C122.529 288.357 122.813 287.673 123.317 287.168C123.822 286.664 124.506 286.38 125.219 286.38Z" fill="#263238"/>
<g opacity="0.6">
<path d="M125.219 286.38H307.139C307.853 286.38 308.537 286.664 309.041 287.168C309.546 287.673 309.829 288.357 309.829 289.07C309.827 289.783 309.542 290.466 309.039 290.97C308.535 291.473 307.852 291.758 307.139 291.76H125.219C124.507 291.758 123.824 291.473 123.32 290.97C122.816 290.466 122.532 289.783 122.529 289.07C122.529 288.357 122.813 287.673 123.317 287.168C123.822 286.664 124.506 286.38 125.219 286.38Z" fill="white"/>
</g>
<path d="M294.659 335.17C295.396 335.168 296.103 334.878 296.629 334.363C297.156 333.847 297.461 333.147 297.479 332.41L297.959 312.73C297.968 312.354 297.902 311.98 297.765 311.63C297.627 311.279 297.421 310.96 297.158 310.691C296.895 310.422 296.581 310.208 296.235 310.061C295.888 309.915 295.515 309.84 295.139 309.84H143.139C142.649 309.839 142.167 309.966 141.741 310.208C141.315 310.45 140.959 310.799 140.709 311.22L129.829 329.49C129.446 330.133 129.334 330.903 129.518 331.628C129.701 332.354 130.166 332.977 130.809 333.36C131.452 333.744 132.221 333.856 132.947 333.672C133.673 333.488 134.296 333.023 134.679 332.38L144.739 315.48H292.239L291.819 332.27C291.8 333.019 292.079 333.745 292.595 334.289C293.11 334.832 293.82 335.149 294.569 335.17H294.659Z" fill="#263238"/>
<g opacity="0.6">
<path d="M294.659 335.17C295.396 335.168 296.103 334.878 296.629 334.363C297.156 333.847 297.461 333.147 297.479 332.41L297.959 312.73C297.968 312.354 297.902 311.98 297.765 311.63C297.627 311.279 297.421 310.96 297.158 310.691C296.895 310.422 296.581 310.208 296.235 310.061C295.888 309.915 295.515 309.84 295.139 309.84H143.139C142.649 309.839 142.167 309.966 141.741 310.208C141.315 310.45 140.959 310.799 140.709 311.22L129.829 329.49C129.446 330.133 129.334 330.903 129.518 331.628C129.701 332.354 130.166 332.977 130.809 333.36C131.452 333.744 132.221 333.856 132.947 333.672C133.673 333.488 134.296 333.023 134.679 332.38L144.739 315.48H292.239L291.819 332.27C291.8 333.019 292.079 333.745 292.595 334.289C293.11 334.832 293.82 335.149 294.569 335.17H294.659Z" fill="white"/>
</g>
<path d="M128.11 270.65H326.93C327.951 270.65 328.78 269.822 328.78 268.8V252.64C328.78 251.618 327.951 250.79 326.93 250.79L128.11 250.79C127.088 250.79 126.26 251.618 126.26 252.64V268.8C126.26 269.822 127.088 270.65 128.11 270.65Z" fill="#263238"/>
<path opacity="0.2" d="M128.11 270.65H326.93C327.951 270.65 328.78 269.822 328.78 268.8V252.64C328.78 251.618 327.951 250.79 326.93 250.79L128.11 250.79C127.088 250.79 126.26 251.618 126.26 252.64V268.8C126.26 269.822 127.088 270.65 128.11 270.65Z" fill="white"/>
<path d="M193.45 271.5H421.73C422.912 271.5 423.87 270.542 423.87 269.36V251.98C423.87 250.798 422.912 249.84 421.73 249.84L193.45 249.84C192.268 249.84 191.31 250.798 191.31 251.98V269.36C191.31 270.542 192.268 271.5 193.45 271.5Z" fill="#508D4E"/>
<path opacity="0.2" d="M193.45 271.5H421.73C422.912 271.5 423.87 270.542 423.87 269.36V251.98C423.87 250.798 422.912 249.84 421.73 249.84L193.45 249.84C192.268 249.84 191.31 250.798 191.31 251.98V269.36C191.31 270.542 192.268 271.5 193.45 271.5Z" fill="white"/>
<path d="M264.1 349.9L259.78 354.22H256.98L255.76 347.28L264.1 349.9Z" fill="#508D4E"/>
<path d="M252.31 344.83H255.58C259.38 344.83 262.46 348.68 262.46 353.42C262.46 358.16 259.38 362.01 255.58 362.01H252.31C248.51 362.01 245.43 358.16 245.43 353.42C245.43 348.68 248.51 344.83 252.31 344.83Z" fill="#263238"/>
<path opacity="0.3" d="M252.31 362.01C256.109 362.01 259.19 358.164 259.19 353.42C259.19 348.676 256.109 344.83 252.31 344.83C248.51 344.83 245.43 348.676 245.43 353.42C245.43 358.164 248.51 362.01 252.31 362.01Z" fill="white"/>
<path opacity="0.3" d="M252.31 359.56C254.751 359.56 256.73 356.811 256.73 353.42C256.73 350.029 254.751 347.28 252.31 347.28C249.869 347.28 247.89 350.029 247.89 353.42C247.89 356.811 249.869 359.56 252.31 359.56Z" fill="white"/>
<path d="M251.05 352.61V345.68C251.048 345.02 251.178 344.367 251.43 343.758C251.682 343.149 252.052 342.595 252.52 342.13L256.519 338.13H264.06V349.94H257.54L253.72 353.76C253.561 353.914 253.373 354.035 253.167 354.114C252.961 354.193 252.74 354.229 252.52 354.22C252.115 354.189 251.738 354.006 251.465 353.706C251.192 353.407 251.043 353.015 251.05 352.61Z" fill="#508D4E"/>
<path opacity="0.3" d="M251.049 345.69V352.61C251.049 353.014 251.205 353.403 251.484 353.696C251.764 353.988 252.145 354.162 252.549 354.18C252.771 354.194 252.993 354.16 253.2 354.081C253.407 354.001 253.594 353.878 253.749 353.72L257.569 349.9H264.089V338.1H256.549L252.549 342.1C252.072 342.567 251.693 343.126 251.436 343.743C251.178 344.359 251.047 345.021 251.049 345.69Z" fill="white"/>
<path opacity="0.2" d="M251.049 345.69V352.61C251.049 353.014 251.205 353.403 251.484 353.696C251.764 353.988 252.145 354.162 252.549 354.18C252.771 354.194 252.992 354.16 253.2 354.081C253.407 354.001 253.594 353.878 253.749 353.72L257.569 349.9V338.1H256.569L252.569 342.1C252.088 342.566 251.706 343.124 251.445 343.74C251.184 344.357 251.049 345.02 251.049 345.69Z" fill="white"/>
<path d="M249.82 338.96H264.16C264.784 338.96 265.29 338.454 265.29 337.83V326.87C265.29 326.246 264.784 325.74 264.16 325.74H249.82C249.195 325.74 248.69 326.246 248.69 326.87V337.83C248.69 338.454 249.195 338.96 249.82 338.96Z" fill="#508D4E"/>
<path opacity="0.2" d="M248.69 326.86V337.86C248.688 338.009 248.717 338.157 248.773 338.296C248.829 338.434 248.912 338.56 249.017 338.666C249.122 338.772 249.247 338.856 249.385 338.913C249.523 338.971 249.671 339 249.82 339H264.15C264.45 338.998 264.738 338.876 264.949 338.663C265.161 338.449 265.28 338.161 265.28 337.86V326.86C265.277 326.561 265.157 326.275 264.946 326.064C264.735 325.853 264.449 325.733 264.15 325.73H249.82C249.52 325.73 249.233 325.849 249.021 326.061C248.809 326.273 248.69 326.561 248.69 326.86Z" fill="white"/>
<path opacity="0.2" d="M248.69 326.86V337.86C248.688 338.009 248.717 338.157 248.773 338.296C248.829 338.434 248.912 338.56 249.017 338.666C249.122 338.772 249.247 338.856 249.385 338.913C249.523 338.971 249.671 339 249.82 339H257.56C257.86 338.998 258.148 338.876 258.359 338.663C258.571 338.449 258.69 338.161 258.69 337.86V326.86C258.687 326.561 258.567 326.275 258.356 326.064C258.145 325.853 257.859 325.733 257.56 325.73H249.82C249.52 325.73 249.233 325.849 249.021 326.061C248.809 326.273 248.69 326.561 248.69 326.86Z" fill="white"/>
<path d="M417.08 337.46H260.54C260.378 337.46 260.223 337.396 260.108 337.281C259.994 337.167 259.93 337.012 259.93 336.85V327.47C259.93 327.308 259.994 327.153 260.108 327.039C260.223 326.924 260.378 326.86 260.54 326.86H417.08V337.46Z" fill="#508D4E"/>
<path opacity="0.3" d="M417.08 337.46H260.54C260.378 337.46 260.223 337.396 260.108 337.281C259.994 337.167 259.93 337.012 259.93 336.85V327.47C259.93 327.308 259.994 327.153 260.108 327.039C260.223 326.924 260.378 326.86 260.54 326.86H417.08V337.46Z" fill="white"/>
<path d="M424.189 349.9L419.879 354.22H417.079L415.859 347.28L424.189 349.9Z" fill="#508D4E"/>
<path d="M412.409 344.83H415.679C419.479 344.83 422.559 348.68 422.559 353.42C422.559 358.16 419.479 362.01 415.679 362.01H412.409C408.609 362.01 405.529 358.16 405.529 353.42C405.529 348.68 408.609 344.83 412.409 344.83Z" fill="#263238"/>
<path opacity="0.3" d="M412.409 362.01C416.209 362.01 419.289 358.164 419.289 353.42C419.289 348.676 416.209 344.83 412.409 344.83C408.61 344.83 405.529 348.676 405.529 353.42C405.529 358.164 408.61 362.01 412.409 362.01Z" fill="white"/>
<path opacity="0.3" d="M412.409 359.56C414.85 359.56 416.829 356.811 416.829 353.42C416.829 350.029 414.85 347.28 412.409 347.28C409.968 347.28 407.989 350.029 407.989 353.42C407.989 356.811 409.968 359.56 412.409 359.56Z" fill="white"/>
<path d="M411.15 352.61V345.68C411.15 345.02 411.281 344.366 411.535 343.757C411.789 343.148 412.161 342.595 412.63 342.13L416.63 338.13H424.18V349.94H417.65L413.83 353.76C413.672 353.914 413.484 354.035 413.277 354.114C413.071 354.193 412.85 354.229 412.63 354.22C412.224 354.192 411.844 354.009 411.569 353.71C411.294 353.41 411.144 353.017 411.15 352.61Z" fill="#508D4E"/>
<path opacity="0.3" d="M411.149 345.69V352.61C411.149 353.014 411.305 353.403 411.584 353.696C411.864 353.988 412.245 354.162 412.649 354.18C412.871 354.194 413.093 354.16 413.3 354.081C413.507 354.001 413.694 353.878 413.849 353.72L417.669 349.9H424.199V338.1H416.649L412.649 342.1C412.172 342.567 411.794 343.126 411.536 343.743C411.278 344.359 411.147 345.021 411.149 345.69Z" fill="white"/>
<path opacity="0.2" d="M411.149 345.69V352.61C411.149 353.014 411.305 353.403 411.584 353.696C411.864 353.988 412.245 354.162 412.649 354.18C412.871 354.194 413.093 354.16 413.3 354.081C413.507 354.001 413.694 353.878 413.849 353.72L417.669 349.9V338.1H416.669L412.669 342.1C412.189 342.566 411.806 343.124 411.545 343.74C411.284 344.357 411.149 345.02 411.149 345.69Z" fill="white"/>
<path d="M409.92 338.96H424.26C424.884 338.96 425.39 338.454 425.39 337.83V326.87C425.39 326.246 424.884 325.74 424.26 325.74H409.92C409.296 325.74 408.79 326.246 408.79 326.87V337.83C408.79 338.454 409.296 338.96 409.92 338.96Z" fill="#508D4E"/>
<path opacity="0.2" d="M408.789 326.86V337.86C408.788 338.009 408.816 338.157 408.872 338.296C408.928 338.434 409.011 338.56 409.116 338.666C409.222 338.772 409.347 338.856 409.484 338.913C409.622 338.971 409.77 339 409.919 339H424.249C424.55 338.998 424.837 338.876 425.049 338.663C425.26 338.449 425.379 338.161 425.379 337.86V326.86C425.376 326.561 425.257 326.275 425.045 326.064C424.834 325.853 424.548 325.733 424.249 325.73H409.919C409.619 325.73 409.332 325.849 409.12 326.061C408.908 326.273 408.789 326.561 408.789 326.86Z" fill="white"/>
<path opacity="0.2" d="M408.789 326.86V337.86C408.788 338.009 408.816 338.157 408.872 338.296C408.928 338.434 409.011 338.56 409.116 338.666C409.222 338.772 409.347 338.856 409.484 338.913C409.622 338.971 409.77 339 409.919 339H417.659C417.96 338.998 418.247 338.876 418.459 338.663C418.67 338.449 418.789 338.161 418.789 337.86V326.86C418.786 326.561 418.667 326.275 418.455 326.064C418.244 325.853 417.958 325.733 417.659 325.73H409.919C409.619 325.73 409.332 325.849 409.12 326.061C408.908 326.273 408.789 326.561 408.789 326.86Z" fill="white"/>
<path d="M125.529 284.44H351.199C352.591 284.44 353.719 283.311 353.719 281.92V269.82C353.719 268.428 352.591 267.3 351.199 267.3H125.529C124.138 267.3 123.009 268.428 123.009 269.82V281.92C123.009 283.311 124.138 284.44 125.529 284.44Z" fill="#508D4E"/>
<path opacity="0.5" d="M125.529 284.44H351.199C352.591 284.44 353.719 283.311 353.719 281.92V269.82C353.719 268.428 352.591 267.3 351.199 267.3H125.529C124.138 267.3 123.009 268.428 123.009 269.82V281.92C123.009 283.311 124.138 284.44 125.529 284.44Z" fill="white"/>
<g opacity="0.7">
<path d="M187.609 280.58H227.239C227.875 280.609 228.511 280.509 229.107 280.286C229.703 280.063 230.248 279.721 230.709 279.281C231.169 278.841 231.536 278.313 231.786 277.727C232.037 277.142 232.166 276.512 232.166 275.875C232.166 275.238 232.037 274.608 231.786 274.022C231.536 273.437 231.169 272.908 230.709 272.468C230.248 272.029 229.703 271.687 229.107 271.464C228.511 271.24 227.875 271.14 227.239 271.17H187.609C186.973 271.14 186.338 271.24 185.741 271.464C185.145 271.687 184.6 272.029 184.139 272.468C183.679 272.908 183.312 273.437 183.062 274.022C182.811 274.608 182.682 275.238 182.682 275.875C182.682 276.512 182.811 277.142 183.062 277.727C183.312 278.313 183.679 278.841 184.139 279.281C184.6 279.721 185.145 280.063 185.741 280.286C186.338 280.509 186.973 280.609 187.609 280.58Z" fill="white"/>
</g>
<g opacity="0.7">
<path d="M239.64 280.58H304.29C304.926 280.609 305.561 280.509 306.158 280.286C306.754 280.063 307.299 279.721 307.76 279.281C308.22 278.841 308.587 278.313 308.837 277.727C309.088 277.142 309.217 276.512 309.217 275.875C309.217 275.238 309.088 274.608 308.837 274.022C308.587 273.437 308.22 272.908 307.76 272.468C307.299 272.029 306.754 271.687 306.158 271.464C305.561 271.24 304.926 271.14 304.29 271.17H239.64C238.429 271.226 237.287 271.746 236.45 272.622C235.614 273.498 235.147 274.663 235.147 275.875C235.147 277.086 235.614 278.251 236.45 279.128C237.287 280.004 238.429 280.524 239.64 280.58Z" fill="white"/>
</g>
<g opacity="0.7">
<path d="M130.57 280.58H176.21C176.846 280.609 177.482 280.509 178.078 280.286C178.674 280.063 179.219 279.721 179.68 279.281C180.14 278.841 180.507 278.313 180.757 277.727C181.008 277.142 181.137 276.512 181.137 275.875C181.137 275.238 181.008 274.608 180.757 274.022C180.507 273.437 180.14 272.908 179.68 272.468C179.219 272.029 178.674 271.687 178.078 271.464C177.482 271.24 176.846 271.14 176.21 271.17H130.57C129.36 271.226 128.217 271.746 127.381 272.622C126.544 273.498 126.077 274.663 126.077 275.875C126.077 277.086 126.544 278.251 127.381 279.128C128.217 280.004 129.36 280.524 130.57 280.58Z" fill="white"/>
</g>
<path d="M311.089 220.32V293.57C311.089 296.48 312.739 298.84 314.779 298.84H433.399C435.399 298.84 437.099 296.48 437.099 293.57V220.32C437.099 217.42 435.439 215.06 433.399 215.06H314.779C312.739 215.06 311.089 217.42 311.089 220.32ZM411.999 226.67C411.999 223.99 413.519 221.82 415.399 221.82H427.399C427.884 221.845 428.356 221.987 428.774 222.235C429.192 222.482 429.544 222.827 429.799 223.24C430.469 224.258 430.818 225.453 430.799 226.67C430.799 229.35 429.279 231.51 427.399 231.51H415.399C414.914 231.486 414.442 231.344 414.024 231.096C413.606 230.849 413.255 230.504 412.999 230.09C412.327 229.078 411.979 227.885 411.999 226.67ZM317.419 226.67C317.419 223.99 318.939 221.82 320.809 221.82H332.809C333.294 221.845 333.766 221.987 334.184 222.235C334.602 222.482 334.954 222.827 335.209 223.24C335.883 224.256 336.232 225.452 336.209 226.67C336.209 229.35 334.689 231.51 332.809 231.51H320.809C320.324 231.486 319.852 231.344 319.434 231.096C319.016 230.849 318.665 230.504 318.409 230.09C317.73 229.08 317.375 227.888 317.389 226.67H317.419Z" fill="#508D4E"/>
<path opacity="0.6" d="M311.089 220.32V293.57C311.089 296.48 312.739 298.84 314.779 298.84H433.399C435.399 298.84 437.099 296.48 437.099 293.57V220.32C437.099 217.42 435.439 215.06 433.399 215.06H314.779C312.739 215.06 311.089 217.42 311.089 220.32ZM411.999 226.67C411.999 223.99 413.519 221.82 415.399 221.82H427.399C427.884 221.845 428.356 221.987 428.774 222.235C429.192 222.482 429.544 222.827 429.799 223.24C430.469 224.258 430.818 225.453 430.799 226.67C430.799 229.35 429.279 231.51 427.399 231.51H415.399C414.914 231.486 414.442 231.344 414.024 231.096C413.606 230.849 413.255 230.504 412.999 230.09C412.327 229.078 411.979 227.885 411.999 226.67ZM317.419 226.67C317.419 223.99 318.939 221.82 320.809 221.82H332.809C333.294 221.845 333.766 221.987 334.184 222.235C334.602 222.482 334.954 222.827 335.209 223.24C335.883 224.256 336.232 225.452 336.209 226.67C336.209 229.35 334.689 231.51 332.809 231.51H320.809C320.324 231.486 319.852 231.344 319.434 231.096C319.016 230.849 318.665 230.504 318.409 230.09C317.73 229.08 317.375 227.888 317.389 226.67H317.419Z" fill="white"/>
<path d="M313.069 220.32V293.57C313.069 296.48 314.719 298.84 316.759 298.84H435.379C437.379 298.84 439.079 296.48 439.079 293.57V220.32C439.079 217.42 437.419 215.06 435.379 215.06H316.759C314.719 215.06 313.069 217.42 313.069 220.32ZM413.999 226.67C413.999 223.99 415.519 221.82 417.399 221.82H429.399C429.884 221.845 430.356 221.987 430.774 222.235C431.192 222.482 431.544 222.827 431.799 223.24C432.469 224.258 432.818 225.453 432.799 226.67C432.799 229.35 431.279 231.51 429.399 231.51H417.399C416.914 231.486 416.442 231.344 416.024 231.096C415.606 230.849 415.255 230.504 414.999 230.09C414.327 229.078 413.979 227.885 413.999 226.67ZM319.419 226.67C319.419 223.99 320.939 221.82 322.809 221.82H334.809C335.294 221.845 335.766 221.987 336.184 222.235C336.602 222.482 336.954 222.827 337.209 223.24C337.883 224.256 338.232 225.452 338.209 226.67C338.209 229.35 336.689 231.51 334.809 231.51H322.809C322.324 231.486 321.852 231.344 321.434 231.096C321.016 230.849 320.665 230.504 320.409 230.09C319.723 229.083 319.36 227.89 319.369 226.67H319.419Z" fill="#508D4E"/>
<path opacity="0.7" d="M313.069 220.32V293.57C313.069 296.48 314.719 298.84 316.759 298.84H435.379C437.379 298.84 439.079 296.48 439.079 293.57V220.32C439.079 217.42 437.419 215.06 435.379 215.06H316.759C314.719 215.06 313.069 217.42 313.069 220.32ZM413.999 226.67C413.999 223.99 415.519 221.82 417.399 221.82H429.399C429.884 221.845 430.356 221.987 430.774 222.235C431.192 222.482 431.544 222.827 431.799 223.24C432.469 224.258 432.818 225.453 432.799 226.67C432.799 229.35 431.279 231.51 429.399 231.51H417.399C416.914 231.486 416.442 231.344 416.024 231.096C415.606 230.849 415.255 230.504 414.999 230.09C414.327 229.078 413.979 227.885 413.999 226.67ZM319.419 226.67C319.419 223.99 320.939 221.82 322.809 221.82H334.809C335.294 221.845 335.766 221.987 336.184 222.235C336.602 222.482 336.954 222.827 337.209 223.24C337.883 224.256 338.232 225.452 338.209 226.67C338.209 229.35 336.689 231.51 334.809 231.51H322.809C322.324 231.486 321.852 231.344 321.434 231.096C321.016 230.849 320.665 230.504 320.409 230.09C319.723 229.083 319.36 227.89 319.369 226.67H319.419Z" fill="white"/>
<path opacity="0.1" d="M322.309 281.34H429.819C431.449 281.34 432.769 280.02 432.769 278.39V251.3C432.769 249.671 431.449 248.35 429.819 248.35H322.309C320.68 248.35 319.359 249.671 319.359 251.3V278.39C319.359 280.02 320.68 281.34 322.309 281.34Z" fill="black"/>
<path d="M439.079 287.22H313.069V288.8H439.079V287.22Z" fill="#508D4E"/>
<path d="M359.759 213V252.47H399.089V213H359.759ZM373.559 215H385.289V222.69H373.559V215Z" fill="#508D4E"/>
<path d="M390.49 250.96H398.71V230.3H390.49V250.96Z" fill="#508D4E"/>
<path opacity="0.2" d="M390.49 250.96H398.71V230.3H390.49V250.96Z" fill="black"/>
<path d="M360.13 250.96H368.35V230.3H360.13V250.96Z" fill="#508D4E"/>
<path opacity="0.2" d="M360.13 250.96H368.35V230.3H360.13V250.96Z" fill="black"/>
<path d="M392.47 250.96H400.69V230.3H392.47V250.96Z" fill="#508D4E"/>
<path opacity="0.2" d="M392.47 250.96H400.69V230.3H392.47V250.96Z" fill="white"/>
<path d="M362.11 250.96H370.33V230.3H362.11V250.96Z" fill="#508D4E"/>
<path opacity="0.2" d="M362.11 250.96H370.33V230.3H362.11V250.96Z" fill="white"/>
<path d="M356.449 215.07H361.759V213.05H356.449V215.07Z" fill="#508D4E"/>
<path d="M141.659 349.9L137.349 354.22H134.549L133.329 347.28L141.659 349.9Z" fill="#508D4E"/>
<path d="M129.879 344.83H133.149C136.949 344.83 140.029 348.68 140.029 353.42C140.029 358.16 136.999 362 133.149 362H129.879C126.079 362 122.999 358.15 122.999 353.41C122.999 348.67 126.079 344.83 129.879 344.83Z" fill="#263238"/>
<path opacity="0.3" d="M129.879 362.01C133.679 362.01 136.759 358.164 136.759 353.42C136.759 348.676 133.679 344.83 129.879 344.83C126.079 344.83 122.999 348.676 122.999 353.42C122.999 358.164 126.079 362.01 129.879 362.01Z" fill="white"/>
<path opacity="0.3" d="M129.88 359.56C132.321 359.56 134.3 356.811 134.3 353.42C134.3 350.029 132.321 347.28 129.88 347.28C127.439 347.28 125.46 350.029 125.46 353.42C125.46 356.811 127.439 359.56 129.88 359.56Z" fill="white"/>
<path d="M128.62 352.61V345.68C128.62 345.02 128.751 344.366 129.005 343.757C129.259 343.148 129.631 342.595 130.1 342.13L134.1 338.13H141.64V349.94H135.12L131.3 353.76C131.142 353.914 130.953 354.035 130.747 354.114C130.541 354.193 130.32 354.229 130.1 354.22C129.694 354.192 129.314 354.009 129.039 353.71C128.764 353.41 128.613 353.017 128.62 352.61Z" fill="#508D4E"/>
<path opacity="0.7" d="M128.619 345.69V352.61C128.619 353.014 128.775 353.403 129.054 353.696C129.334 353.988 129.715 354.162 130.119 354.18C130.341 354.194 130.563 354.16 130.77 354.081C130.977 354.001 131.164 353.878 131.319 353.72L135.139 349.9H141.669V338.1H134.119L130.119 342.1C129.642 342.567 129.264 343.126 129.006 343.743C128.748 344.359 128.617 345.021 128.619 345.69Z" fill="white"/>
<path opacity="0.2" d="M128.619 345.69V352.61C128.619 353.014 128.775 353.403 129.054 353.696C129.334 353.988 129.715 354.162 130.119 354.18C130.341 354.194 130.563 354.16 130.77 354.081C130.977 354.001 131.164 353.878 131.319 353.72L135.139 349.9V338.1H134.139L130.139 342.1C129.659 342.566 129.276 343.124 129.015 343.74C128.754 344.357 128.619 345.02 128.619 345.69Z" fill="white"/>
<path d="M127.39 338.96H141.73C142.354 338.96 142.86 338.454 142.86 337.83V326.87C142.86 326.246 142.354 325.74 141.73 325.74H127.39C126.766 325.74 126.26 326.246 126.26 326.87V337.83C126.26 338.454 126.766 338.96 127.39 338.96Z" fill="#508D4E"/>
<path opacity="0.5" d="M141.719 325.73H127.389C126.765 325.73 126.259 326.236 126.259 326.86V337.82C126.259 338.444 126.765 338.95 127.389 338.95H141.719C142.343 338.95 142.849 338.444 142.849 337.82V326.86C142.849 326.236 142.343 325.73 141.719 325.73Z" fill="white"/>
<path opacity="0.2" d="M126.259 326.86V337.86C126.258 338.009 126.286 338.157 126.342 338.296C126.398 338.434 126.481 338.56 126.586 338.666C126.692 338.772 126.817 338.856 126.954 338.913C127.092 338.971 127.24 339 127.389 339H135.129C135.43 338.998 135.717 338.876 135.929 338.663C136.14 338.449 136.259 338.161 136.259 337.86V326.86C136.256 326.561 136.137 326.275 135.925 326.064C135.714 325.853 135.428 325.733 135.129 325.73H127.389C127.089 325.73 126.802 325.849 126.59 326.061C126.378 326.273 126.259 326.561 126.259 326.86Z" fill="white"/>
<path d="M294.649 337.46H138.149C138.069 337.46 137.99 337.444 137.916 337.414C137.842 337.383 137.774 337.338 137.718 337.281C137.661 337.225 137.616 337.157 137.586 337.083C137.555 337.009 137.539 336.93 137.539 336.85V327.47C137.539 327.39 137.555 327.311 137.586 327.237C137.616 327.163 137.661 327.095 137.718 327.039C137.774 326.982 137.842 326.937 137.916 326.906C137.99 326.876 138.069 326.86 138.149 326.86H294.649V337.46Z" fill="#508D4E"/>
<path opacity="0.7" d="M294.649 337.46H138.149C138.069 337.46 137.99 337.444 137.916 337.414C137.842 337.383 137.774 337.338 137.718 337.281C137.661 337.225 137.616 337.157 137.586 337.083C137.555 337.009 137.539 336.93 137.539 336.85V327.47C137.539 327.39 137.555 327.311 137.586 327.237C137.616 327.163 137.661 327.095 137.718 327.039C137.774 326.982 137.842 326.937 137.916 326.906C137.99 326.876 138.069 326.86 138.149 326.86H294.649V337.46Z" fill="white"/>
<path d="M301.769 349.9L297.449 354.22H294.649L293.429 347.28L301.769 349.9Z" fill="#508D4E"/>
<path d="M289.999 344.83H293.269C297.069 344.83 300.149 348.68 300.149 353.42C300.149 358.16 297.069 362.01 293.269 362.01H289.999C286.199 362.01 283.119 358.16 283.119 353.42C283.119 348.68 286.179 344.83 289.999 344.83Z" fill="#263238"/>
<path opacity="0.3" d="M289.979 362.01C293.779 362.01 296.859 358.164 296.859 353.42C296.859 348.676 293.779 344.83 289.979 344.83C286.179 344.83 283.099 348.676 283.099 353.42C283.099 358.164 286.179 362.01 289.979 362.01Z" fill="white"/>
<path opacity="0.3" d="M289.979 359.56C292.42 359.56 294.399 356.811 294.399 353.42C294.399 350.029 292.42 347.28 289.979 347.28C287.538 347.28 285.559 350.029 285.559 353.42C285.559 356.811 287.538 359.56 289.979 359.56Z" fill="white"/>
<path d="M288.72 352.61V345.68C288.72 345.02 288.851 344.366 289.105 343.757C289.359 343.148 289.731 342.595 290.2 342.13L294.2 338.13H301.75V349.94H295.22L291.4 353.76C291.242 353.915 291.054 354.036 290.848 354.116C290.641 354.195 290.421 354.23 290.2 354.22C289.794 354.192 289.414 354.009 289.139 353.71C288.864 353.41 288.714 353.017 288.72 352.61Z" fill="#508D4E"/>
<path opacity="0.7" d="M288.72 345.69V352.61C288.719 353.014 288.875 353.403 289.154 353.696C289.434 353.988 289.815 354.162 290.22 354.18C290.441 354.194 290.663 354.16 290.87 354.081C291.077 354.001 291.264 353.878 291.42 353.72L295.24 349.9H301.77V338.1H294.22L290.22 342.1C289.742 342.567 289.364 343.126 289.106 343.743C288.848 344.359 288.717 345.021 288.72 345.69Z" fill="white"/>
<path opacity="0.2" d="M288.719 345.69V352.61C288.719 353.014 288.875 353.403 289.154 353.696C289.434 353.988 289.815 354.162 290.219 354.18C290.441 354.194 290.663 354.16 290.87 354.081C291.077 354.001 291.264 353.878 291.419 353.72L295.239 349.9V338.1H294.239L290.239 342.1C289.759 342.566 289.376 343.124 289.115 343.74C288.854 344.357 288.72 345.02 288.719 345.69Z" fill="white"/>
<path d="M287.489 338.96H301.829C302.453 338.96 302.959 338.454 302.959 337.83V326.87C302.959 326.246 302.453 325.74 301.829 325.74H287.489C286.865 325.74 286.359 326.246 286.359 326.87V337.83C286.359 338.454 286.865 338.96 287.489 338.96Z" fill="#508D4E"/>
<path opacity="0.5" d="M286.359 326.86V337.86C286.358 338.009 286.386 338.157 286.443 338.296C286.499 338.434 286.582 338.56 286.687 338.666C286.792 338.772 286.917 338.856 287.055 338.913C287.192 338.971 287.34 339 287.489 339H301.819C302.12 338.998 302.407 338.876 302.619 338.663C302.831 338.449 302.949 338.161 302.949 337.86V326.86C302.947 326.561 302.827 326.275 302.616 326.064C302.404 325.853 302.118 325.733 301.819 325.73H287.489C287.19 325.73 286.902 325.849 286.69 326.061C286.478 326.273 286.359 326.561 286.359 326.86Z" fill="white"/>
<path opacity="0.2" d="M286.359 326.86V337.86C286.358 338.009 286.386 338.157 286.443 338.296C286.499 338.434 286.582 338.56 286.687 338.666C286.792 338.772 286.917 338.856 287.055 338.913C287.192 338.971 287.34 339 287.489 339H295.229C295.379 339 295.526 338.971 295.664 338.913C295.802 338.856 295.927 338.772 296.032 338.666C296.137 338.56 296.22 338.434 296.276 338.296C296.333 338.157 296.361 338.009 296.359 337.86V326.86C296.359 326.561 296.24 326.273 296.028 326.061C295.817 325.849 295.529 325.73 295.229 325.73H287.489C287.19 325.73 286.902 325.849 286.69 326.061C286.478 326.273 286.359 326.561 286.359 326.86Z" fill="white"/>
<path opacity="0.1" d="M226.339 206.69H121.589C119.187 206.69 117.239 208.638 117.239 211.04V239.07C117.239 241.473 119.187 243.42 121.589 243.42H226.339C228.742 243.42 230.689 241.473 230.689 239.07V211.04C230.689 208.638 228.742 206.69 226.339 206.69Z" fill="black"/>
<path d="M171.08 358.79C171.078 358.153 171.265 357.529 171.618 356.998C171.97 356.468 172.472 356.053 173.061 355.808C173.649 355.563 174.297 355.498 174.922 355.621C175.547 355.744 176.122 356.05 176.573 356.5C177.024 356.95 177.332 357.523 177.457 358.148C177.582 358.773 177.519 359.421 177.276 360.01C177.032 360.599 176.62 361.102 176.09 361.457C175.56 361.811 174.937 362 174.3 362C173.448 362 172.63 361.662 172.026 361.06C171.423 360.459 171.082 359.642 171.08 358.79Z" fill="#263238"/>
<path d="M126.349 358.79C126.349 358.153 126.538 357.53 126.893 357C127.247 356.47 127.75 356.058 128.339 355.814C128.928 355.571 129.576 355.508 130.201 355.633C130.826 355.758 131.4 356.065 131.85 356.517C132.3 356.968 132.606 357.543 132.729 358.168C132.852 358.793 132.787 359.441 132.541 360.029C132.296 360.617 131.882 361.12 131.351 361.472C130.82 361.825 130.197 362.012 129.559 362.01C128.707 362.007 127.891 361.667 127.289 361.063C126.687 360.46 126.349 359.642 126.349 358.79Z" fill="#263238"/>
<path d="M174.299 360.79C173.769 360.79 173.26 360.58 172.885 360.205C172.51 359.83 172.299 359.321 172.299 358.79V355.48C172.297 355.123 172.154 354.781 171.901 354.529C171.648 354.276 171.307 354.133 170.949 354.13H132.949C132.59 354.13 132.246 354.272 131.991 354.525C131.736 354.778 131.592 355.121 131.589 355.48V358.79C131.589 359.321 131.379 359.83 131.004 360.205C130.628 360.58 130.12 360.79 129.589 360.79C129.059 360.79 128.55 360.58 128.175 360.205C127.8 359.83 127.589 359.321 127.589 358.79V355.48C127.592 354.061 128.158 352.7 129.163 351.697C130.168 350.694 131.53 350.13 132.949 350.13H170.949C172.367 350.133 173.727 350.698 174.729 351.7C175.732 352.703 176.297 354.062 176.299 355.48V358.79C176.299 359.321 176.089 359.83 175.714 360.205C175.339 360.58 174.83 360.79 174.299 360.79Z" fill="#263238"/>
<path d="M151.93 354.13C151.399 354.13 150.891 353.92 150.516 353.544C150.141 353.169 149.93 352.661 149.93 352.13V104.36C149.93 103.83 150.141 103.321 150.516 102.946C150.891 102.571 151.399 102.36 151.93 102.36C152.46 102.36 152.969 102.571 153.344 102.946C153.719 103.321 153.93 103.83 153.93 104.36V352.13C153.93 352.661 153.719 353.169 153.344 353.544C152.969 353.92 152.46 354.13 151.93 354.13Z" fill="#263238"/>
<path d="M174.509 112.4C174.244 112.4 173.99 112.295 173.802 112.107C173.615 111.92 173.509 111.666 173.509 111.4C173.509 111.135 173.615 110.881 173.802 110.693C173.99 110.506 174.244 110.4 174.509 110.4C175.361 110.4 176.177 110.062 176.779 109.46C177.381 108.858 177.719 108.042 177.719 107.19V106.87C177.719 106.019 177.381 105.203 176.779 104.601C176.177 103.999 175.361 103.66 174.509 103.66H129.359C128.508 103.66 127.692 103.999 127.09 104.601C126.488 105.203 126.149 106.019 126.149 106.87V107.19C126.149 108.042 126.488 108.858 127.09 109.46C127.692 110.062 128.508 110.4 129.359 110.4C130.211 110.4 131.027 110.062 131.629 109.46C132.231 108.858 132.569 108.042 132.569 107.19V106.59C132.569 106.325 132.675 106.071 132.862 105.883C133.05 105.696 133.304 105.59 133.569 105.59C133.835 105.59 134.089 105.696 134.277 105.883C134.464 106.071 134.569 106.325 134.569 106.59V107.19C134.569 108.572 134.02 109.897 133.043 110.874C132.066 111.851 130.741 112.4 129.359 112.4C127.978 112.4 126.652 111.851 125.675 110.874C124.698 109.897 124.149 108.572 124.149 107.19V106.87C124.149 105.489 124.698 104.163 125.675 103.186C126.652 102.209 127.978 101.66 129.359 101.66H174.509C175.194 101.66 175.871 101.795 176.503 102.057C177.135 102.319 177.71 102.703 178.193 103.186C178.677 103.67 179.061 104.245 179.323 104.877C179.585 105.509 179.719 106.186 179.719 106.87V107.19C179.719 107.875 179.585 108.552 179.323 109.184C179.061 109.816 178.677 110.391 178.193 110.874C177.71 111.358 177.135 111.742 176.503 112.004C175.871 112.266 175.194 112.4 174.509 112.4Z" fill="#263238"/>
<path d="M167.74 115.91C167.74 115.38 167.95 114.871 168.325 114.496C168.7 114.121 169.209 113.91 169.74 113.91C170.27 113.91 170.779 113.699 171.154 113.324C171.529 112.949 171.74 112.441 171.74 111.91V111.54C171.721 110.726 172.014 109.935 172.559 109.33C173.103 108.724 173.858 108.349 174.669 108.28C175.089 108.257 175.51 108.32 175.904 108.465C176.299 108.61 176.66 108.833 176.965 109.123C177.27 109.412 177.513 109.761 177.679 110.147C177.845 110.533 177.93 110.95 177.929 111.37V111.99C177.958 112.501 178.181 112.982 178.553 113.334C178.925 113.685 179.418 113.881 179.929 113.88C180.448 113.898 180.939 114.117 181.299 114.49C181.659 114.863 181.86 115.362 181.859 115.88V137.76C181.859 138.386 181.611 138.986 181.168 139.429C180.726 139.871 180.125 140.12 179.499 140.12H178.499C177.873 140.12 177.271 140.368 176.827 140.811C176.383 141.253 176.132 141.853 176.13 142.48V144.16H173.559V142.48C173.557 141.853 173.306 141.253 172.862 140.811C172.418 140.368 171.816 140.12 171.189 140.12H170.189C169.88 140.12 169.573 140.059 169.286 139.94C169 139.822 168.74 139.648 168.521 139.429C168.302 139.21 168.128 138.95 168.009 138.663C167.891 138.377 167.829 138.07 167.829 137.76L167.74 115.91Z" fill="#508D4E"/>
<path opacity="0.7" d="M167.74 115.91C167.74 115.38 167.95 114.871 168.325 114.496C168.7 114.121 169.209 113.91 169.74 113.91C170.27 113.91 170.779 113.699 171.154 113.324C171.529 112.949 171.74 112.441 171.74 111.91V111.54C171.721 110.726 172.014 109.935 172.559 109.33C173.103 108.724 173.858 108.349 174.669 108.28C175.089 108.257 175.51 108.32 175.904 108.465C176.299 108.61 176.66 108.833 176.965 109.123C177.27 109.412 177.513 109.761 177.679 110.147C177.845 110.533 177.93 110.95 177.929 111.37V111.99C177.958 112.501 178.181 112.982 178.553 113.334C178.925 113.685 179.418 113.881 179.929 113.88C180.448 113.898 180.939 114.117 181.299 114.49C181.659 114.863 181.86 115.362 181.859 115.88V137.76C181.859 138.386 181.611 138.986 181.168 139.429C180.726 139.871 180.125 140.12 179.499 140.12H178.499C177.873 140.12 177.271 140.368 176.827 140.811C176.383 141.253 176.132 141.853 176.13 142.48V144.16H173.559V142.48C173.557 141.853 173.306 141.253 172.862 140.811C172.418 140.368 171.816 140.12 171.189 140.12H170.189C169.88 140.12 169.573 140.059 169.286 139.94C169 139.822 168.74 139.648 168.521 139.429C168.302 139.21 168.128 138.95 168.009 138.663C167.891 138.377 167.829 138.07 167.829 137.76L167.74 115.91Z" fill="white"/>
<path opacity="0.1" d="M170.01 138.61H179.52C180.122 138.61 180.61 138.122 180.61 137.52V116.1C180.61 115.498 180.122 115.01 179.52 115.01H170.01C169.408 115.01 168.92 115.498 168.92 116.1V137.52C168.92 138.122 169.408 138.61 170.01 138.61Z" fill="black"/>
<path d="M180.609 128.74V137.43C180.609 137.743 180.485 138.043 180.264 138.264C180.042 138.486 179.742 138.61 179.429 138.61H170.099C169.786 138.61 169.486 138.486 169.265 138.264C169.044 138.043 168.919 137.743 168.919 137.43V128.74H180.609Z" fill="#508D4E"/>
<path d="M174.51 112.4C173.129 112.397 171.805 111.847 170.828 110.871C169.852 109.894 169.302 108.571 169.3 107.19V106.59C169.3 106.325 169.405 106.07 169.592 105.883C169.78 105.695 170.034 105.59 170.3 105.59C170.565 105.59 170.819 105.695 171.007 105.883C171.194 106.07 171.3 106.325 171.3 106.59V107.19C171.3 108.041 171.638 108.858 172.24 109.46C172.842 110.062 173.658 110.4 174.51 110.4C174.775 110.4 175.029 110.505 175.217 110.693C175.404 110.88 175.51 111.135 175.51 111.4C175.51 111.665 175.404 111.919 175.217 112.107C175.029 112.294 174.775 112.4 174.51 112.4Z" fill="#263238"/>
<path d="M169.5 213.72C167.973 213.717 166.509 213.109 165.43 212.03C164.35 210.95 163.742 209.486 163.74 207.96V193.5C163.74 193.44 163.88 191.3 162.49 190.79L162.83 189.85C164.94 190.62 164.75 193.42 164.74 193.54V208C164.74 209.262 165.241 210.473 166.134 211.365C167.027 212.258 168.237 212.76 169.5 212.76C170.762 212.76 171.973 212.258 172.866 211.365C173.758 210.473 174.26 209.262 174.26 208V141.8H175.26V208C175.247 209.519 174.634 210.973 173.556 212.044C172.477 213.115 171.02 213.717 169.5 213.72Z" fill="#508D4E"/>
<path d="M157.849 337.45V312.94H242.089V362.01H217.069H157.849H132.829V337.45H157.849Z" fill="#263238"/>
<path opacity="0.2" d="M132.829 337.45V362.01H242.089V312.94H157.849V337.45H132.829Z" fill="white"/>
<path opacity="0.2" d="M132.829 337.45V362.01H192.869V337.45H217.879V312.94H157.849V337.45H132.829Z" fill="white"/>
<path opacity="0.2" d="M192.869 337.45H132.829V362H192.869V337.45Z" fill="white"/>
<path d="M225.3 148.57C225.3 148.57 222.62 141.85 213.02 143.43C203.42 145.01 200.02 154.43 201.45 158.49C202.88 162.55 201.19 167.63 199.74 168.65C198.29 169.67 199.47 172.18 200.39 173.89C201.31 175.6 201.39 176.64 199.06 180.42C198.053 181.962 197.622 183.81 197.842 185.638C198.061 187.467 198.917 189.16 200.26 190.42C202.5 192.26 225.33 195.35 229.67 191.73C236.39 186.13 230.6 182.17 230.6 180.46C230.6 178.46 232.07 177.46 232.39 173.8C232.71 170.14 229.39 167.73 229.01 165.8C228.63 163.87 230.01 161.99 230.01 159.58C230.01 157.17 228.34 156.87 228.01 153.39C227.963 152.431 227.694 151.497 227.224 150.66C226.753 149.823 226.095 149.108 225.3 148.57Z" fill="#263238"/>
<path d="M154.719 348.71C158.692 347.485 162.51 345.807 166.099 343.71C168.339 342.51 168.359 343.1 170.669 341.98C171.003 341.788 171.286 341.519 171.497 341.197C171.707 340.874 171.839 340.507 171.881 340.124C171.923 339.741 171.874 339.354 171.738 338.994C171.602 338.633 171.383 338.31 171.099 338.05C170.014 337.183 169.01 336.219 168.099 335.17L161.559 336.27C161.289 338.95 156.939 344.7 153.159 346.05C150.429 347 152.699 349.27 154.719 348.71Z" fill="#EBB376"/>
<path d="M197.389 225C197.389 225 172.389 254.82 164.259 269.35C161.089 275 161.349 337.57 161.349 337.57L170.669 335.11L179.999 276.72L217.759 239.72L224.559 225.81L197.389 225Z" fill="#508D4E"/>
<g opacity="0.2">
<path d="M161.349 337.54L170.669 335.08L179.579 279.45L180.019 276.72L195.249 261.8L217.779 239.74L224.569 225.83L197.389 225C197.389 225 172.389 254.81 164.259 269.34C161.089 275 161.349 337.54 161.349 337.54Z" fill="black"/>
</g>
<path opacity="0.2" d="M179.58 279.45L180.02 276.72L195.25 261.8L203.41 237.21C203.41 237.21 183.41 248.01 177.32 258.29C174.14 263.68 176.56 272.38 179.58 279.45Z" fill="black"/>
<path d="M182.52 337.93C186.572 337.018 190.505 335.639 194.24 333.82C196.57 332.82 196.54 333.39 198.93 332.44C199.277 332.273 199.58 332.027 199.815 331.72C200.049 331.414 200.207 331.057 200.278 330.678C200.348 330.299 200.327 329.909 200.218 329.539C200.109 329.169 199.915 328.83 199.65 328.55C198.626 327.606 197.689 326.572 196.85 325.46L190.24 326.05C189.77 328.71 184.99 334.11 181.13 335.17C178.36 335.94 180.46 338.35 182.52 337.93Z" fill="#EBB376"/>
<path d="M224.58 225.82C224.58 225.82 188.86 242.08 181.76 256.65C176.76 266.85 189.59 326.22 189.59 326.22L198.49 325.59C198.33 304.99 199.93 268.36 199.93 268.36C199.93 268.36 225.28 256.53 227.66 251.15C232.14 241 224.58 225.82 224.58 225.82Z" fill="#508D4E"/>
<g opacity="0.2">
<path d="M224.58 225.82C224.58 225.82 188.86 242.08 181.76 256.65C176.76 266.85 189.59 326.22 189.59 326.22L198.49 325.59C198.33 304.99 199.93 268.36 199.93 268.36C199.93 268.36 225.28 256.53 227.66 251.15C232.14 241 224.58 225.82 224.58 225.82Z" fill="black"/>
</g>
<path d="M201.859 193.16C198.676 195.701 195.336 198.039 191.859 200.16C188.049 202.45 182.969 205.33 178.319 204.35C169.979 202.69 162.869 197.76 156.319 192.68C155.905 192.342 155.63 191.864 155.546 191.337C155.461 190.809 155.573 190.269 155.861 189.819C156.148 189.368 156.591 189.039 157.105 188.894C157.619 188.749 158.168 188.797 158.649 189.03C163.723 191.63 168.981 193.856 174.379 195.69C176.599 196.33 178.949 197.02 180.919 196.61C186.489 194.06 191.549 189.8 196.579 186.26C197.504 185.611 198.645 185.345 199.761 185.517C200.878 185.689 201.886 186.286 202.573 187.183C203.259 188.081 203.573 189.209 203.447 190.332C203.322 191.455 202.767 192.486 201.899 193.21L201.859 193.16Z" fill="#E9B376"/>
<path d="M203.409 181.36C197.189 182.05 188.819 190.67 188.819 190.67C188.819 190.67 192.189 202.4 195.439 203.1C198.689 203.8 203.409 181.36 203.409 181.36Z" fill="#508D4E"/>
<path opacity="0.1" d="M197.33 201.43C196.68 202.58 196.03 203.22 195.44 203.1C194.17 202.82 192.88 200.86 191.78 198.58C193.057 196.631 194.657 194.913 196.51 193.5C197.57 195.44 197.79 198.69 197.33 201.43Z" fill="black"/>
<path d="M194.59 193.2C194.383 197.123 194.443 201.055 194.77 204.97C195.1 210.71 194.98 217.28 195.99 226.67H225.99C225.25 218.54 225.53 207.77 230.36 189.37C230.648 188.408 230.717 187.393 230.562 186.401C230.407 185.409 230.032 184.464 229.465 183.635C228.897 182.807 228.151 182.116 227.281 181.613C226.412 181.11 225.441 180.808 224.44 180.73C223.29 180.64 222.08 180.56 220.83 180.53C216.46 180.293 212.078 180.376 207.72 180.78C206.3 180.93 204.82 181.14 203.42 181.36C198.32 182.17 194.65 188.11 194.59 193.2Z" fill="#508D4E"/>
<path d="M149.659 188.84L150.429 190.84C150.573 191.212 150.803 191.545 151.1 191.811C151.398 192.077 151.754 192.268 152.139 192.37L155.799 193.37C156.522 193.559 157.28 193.572 158.009 193.409C158.738 193.245 159.417 192.91 159.989 192.43L160.699 191.83C159.699 188.4 156.009 185.47 156.009 185.47L155.069 184.47C154.879 184.264 154.65 184.099 154.395 183.984C154.14 183.869 153.864 183.807 153.584 183.8C153.304 183.793 153.026 183.843 152.766 183.946C152.506 184.049 152.269 184.204 152.069 184.4L150.159 186.25C149.833 186.586 149.612 187.01 149.524 187.47C149.435 187.93 149.482 188.406 149.659 188.84Z" fill="#EBB376"/>
<path d="M219.62 165.78C218.56 170.02 217.31 177.78 220.1 180.54C220.1 180.54 217.27 184.18 207.21 189.82C203.41 184.82 206.99 180.82 206.99 180.82C211.76 179.6 211.83 176.11 211.19 172.82L219.62 165.78Z" fill="#EBB376"/>
<path opacity="0.2" d="M216.18 168.65L211.18 172.81C211.346 173.573 211.44 174.35 211.46 175.13C213.27 174.84 215.85 172.82 216.14 170.93C216.294 170.179 216.307 169.406 216.18 168.65Z" fill="black"/>
<path d="M223.059 157.24C221.909 164.08 221.569 166.99 217.739 170.33C211.989 175.33 203.909 172.91 203.009 165.98C202.199 159.74 204.219 149.61 211.189 147.23C212.67 146.667 214.274 146.51 215.836 146.776C217.397 147.042 218.859 147.72 220.07 148.741C221.281 149.763 222.197 151.089 222.722 152.583C223.248 154.078 223.364 155.685 223.059 157.24Z" fill="#EBB376"/>
<path d="M214.379 158.55C214.309 159.12 213.959 159.55 213.589 159.55C213.219 159.55 212.969 159.05 213.049 158.47C213.129 157.89 213.479 157.47 213.849 157.47C214.219 157.47 214.459 158 214.379 158.55Z" fill="#263238"/>
<path d="M207.199 157.93C207.129 158.51 206.769 158.93 206.399 158.93C206.029 158.93 205.789 158.43 205.859 157.85C205.929 157.27 206.289 156.85 206.659 156.85C207.029 156.85 207.269 157.35 207.199 157.93Z" fill="#263238"/>
<path d="M206.819 156.89L205.509 156.41C205.509 156.41 206.079 157.54 206.819 156.89Z" fill="#263238"/>
<path d="M209.09 158.49C208.42 159.78 207.591 160.979 206.62 162.06C206.891 162.293 207.213 162.46 207.56 162.547C207.908 162.633 208.27 162.638 208.62 162.56L209.09 158.49Z" fill="#D58745"/>
<path d="M215.899 155C215.855 155.001 215.81 154.993 215.768 154.976C215.727 154.959 215.69 154.933 215.659 154.9C215.384 154.594 215.037 154.361 214.65 154.221C214.262 154.082 213.847 154.04 213.439 154.1C213.397 154.108 213.354 154.108 213.312 154.1C213.27 154.091 213.23 154.075 213.194 154.05C213.159 154.026 213.129 153.995 213.105 153.959C213.082 153.922 213.067 153.882 213.059 153.84C213.047 153.75 213.069 153.659 213.121 153.585C213.173 153.511 213.251 153.459 213.339 153.44C213.856 153.352 214.386 153.398 214.879 153.573C215.373 153.748 215.814 154.046 216.159 154.44C216.221 154.505 216.255 154.59 216.255 154.68C216.255 154.769 216.221 154.855 216.159 154.92C216.086 154.978 215.993 155.007 215.899 155Z" fill="#263238"/>
<path d="M204.719 154C204.635 154.009 204.55 153.988 204.479 153.94C204.419 153.877 204.385 153.793 204.385 153.705C204.385 153.617 204.419 153.533 204.479 153.47C204.79 153.019 205.2 152.646 205.679 152.38C206.158 152.115 206.692 151.964 207.239 151.94C207.282 151.94 207.325 151.948 207.364 151.966C207.403 151.983 207.438 152.009 207.467 152.041C207.495 152.074 207.517 152.112 207.529 152.153C207.542 152.194 207.545 152.237 207.539 152.28C207.53 152.37 207.488 152.454 207.422 152.517C207.356 152.579 207.27 152.616 207.179 152.62C206.747 152.643 206.326 152.767 205.95 152.98C205.573 153.193 205.251 153.491 205.009 153.85C204.974 153.893 204.93 153.929 204.88 153.955C204.83 153.981 204.775 153.996 204.719 154Z" fill="#263238"/>
<path d="M213.999 157.5L212.699 157C212.699 157 213.259 158.15 213.999 157.5Z" fill="#263238"/>
<path d="M221.149 162.36C221.149 162.36 218.279 155.09 218.759 148.94C218.759 148.94 210.579 146.04 206.229 151.12C206.229 151.12 207.369 146.32 214.629 145.54C221.889 144.76 230.169 153.76 221.149 162.36Z" fill="#263238"/>
<path d="M224.72 163C223.897 164.221 222.624 165.066 221.18 165.35C219.32 165.67 218.69 163.81 219.45 162.03C220.13 160.43 221.92 158.34 223.67 158.83C225.42 159.32 225.77 161.47 224.72 163Z" fill="#EBB376"/>
<path d="M208.119 166C208.074 166.001 208.03 165.989 207.992 165.966C207.953 165.943 207.921 165.91 207.899 165.87C207.882 165.842 207.871 165.81 207.867 165.777C207.862 165.744 207.865 165.71 207.874 165.678C207.884 165.646 207.9 165.617 207.921 165.591C207.943 165.566 207.969 165.545 207.999 165.53C209.108 165.013 210.307 164.718 211.529 164.66C211.593 164.663 211.654 164.688 211.7 164.733C211.746 164.777 211.775 164.837 211.779 164.9C211.781 164.933 211.776 164.966 211.764 164.997C211.753 165.028 211.736 165.056 211.713 165.08C211.691 165.104 211.664 165.124 211.634 165.138C211.605 165.151 211.572 165.159 211.539 165.16C210.395 165.221 209.273 165.496 208.229 165.97L208.119 166Z" fill="#263238"/>
<path opacity="0.1" d="M229.999 190.63C228.689 195.71 227.689 200.07 226.999 203.9C222.659 198.23 224.639 189.67 224.639 189.67C226.399 188.57 228.299 189.15 229.999 190.63Z" fill="black"/>
<path d="M231.79 187.48C233.84 198.2 235.02 209.34 237.66 219.84C240.23 228.02 243.46 236.07 246.25 244.19C246.419 244.697 246.396 245.248 246.186 245.739C245.975 246.23 245.592 246.627 245.108 246.854C244.625 247.081 244.074 247.122 243.562 246.97C243.05 246.818 242.611 246.484 242.33 246.03C237.25 237.21 232.07 228.27 229.05 218.48C226.589 208.719 224.624 198.839 223.16 188.88C222.47 183.21 230.65 181.88 231.79 187.48Z" fill="#E9B376"/>
<path d="M226.609 181.37C232.349 183.77 235.459 193.9 235.459 193.9C235.459 193.9 230.839 202.49 224.529 205.54C224.529 205.54 219.099 191.81 220.999 186.27C222.899 180.73 226.609 181.37 226.609 181.37Z" fill="#508D4E"/>
<path d="M243.89 242.81L251.89 243.43L250.25 250.23C250.25 250.23 244.6 250.59 242.64 246.36L243.89 242.81Z" fill="#EBB376"/>
<path d="M256.7 246.48L254.26 251.26L250.24 250.24L251.88 243.43L256.7 246.48Z" fill="#EBB376"/>
<path d="M212.539 146.68C212.539 146.68 212.929 152 216.269 152.4C219.609 152.8 219.629 157.4 219.629 157.4L224.149 150.74L220.589 146.2L212.539 146.68Z" fill="#263238"/>
<path d="M196.469 178.05C196.403 178.05 196.34 178.024 196.293 177.977C196.246 177.93 196.219 177.867 196.219 177.8C196.219 177.734 196.246 177.67 196.293 177.624C196.34 177.577 196.403 177.55 196.469 177.55C196.928 177.445 197.348 177.212 197.679 176.877C198.01 176.542 198.239 176.12 198.339 175.66C198.475 174.797 198.305 173.913 197.859 173.16C197.187 171.966 197.004 170.557 197.349 169.23C197.692 168.381 198.138 167.579 198.679 166.84C199.839 165.08 201.159 163.08 200.509 159.84C199.429 154.5 201.509 149.98 206.709 146.42C206.766 146.387 206.833 146.376 206.898 146.389C206.962 146.402 207.02 146.438 207.059 146.49C207.078 146.518 207.091 146.549 207.098 146.581C207.104 146.614 207.104 146.647 207.098 146.68C207.091 146.713 207.078 146.744 207.06 146.771C207.041 146.799 207.017 146.822 206.989 146.84C201.909 150.32 199.989 154.54 200.989 159.74C201.679 163.14 200.299 165.22 199.079 167.06C198.569 167.767 198.146 168.532 197.819 169.34C197.506 170.548 197.683 171.831 198.309 172.91C198.808 173.771 198.985 174.781 198.809 175.76C198.678 176.312 198.394 176.815 197.988 177.212C197.583 177.608 197.074 177.882 196.519 178L196.469 178.05Z" fill="#263238"/>
<path d="M220.47 159.21C220.269 159.214 220.07 159.17 219.89 159.08C219.19 158.76 218.89 157.89 218.58 156.88C218.1 155.4 217.58 153.72 215.58 153.18C211.25 151.99 212.26 146.68 212.27 146.63C212.284 146.567 212.322 146.512 212.376 146.477C212.43 146.441 212.496 146.428 212.56 146.44C212.592 146.445 212.624 146.456 212.652 146.474C212.68 146.491 212.704 146.514 212.723 146.541C212.742 146.569 212.755 146.599 212.761 146.632C212.767 146.664 212.767 146.698 212.76 146.73C212.76 146.93 211.83 151.63 215.71 152.73C217.92 153.34 218.54 155.23 219.04 156.73C219.33 157.62 219.58 158.4 220.04 158.63C220.219 158.692 220.41 158.716 220.599 158.701C220.789 158.685 220.973 158.631 221.14 158.54C221.17 158.525 221.202 158.517 221.236 158.516C221.269 158.514 221.302 158.52 221.333 158.532C221.364 158.545 221.393 158.563 221.416 158.587C221.44 158.611 221.458 158.639 221.47 158.67C221.483 158.701 221.489 158.734 221.489 158.767C221.489 158.801 221.482 158.834 221.469 158.865C221.456 158.895 221.437 158.923 221.413 158.947C221.389 158.97 221.361 158.988 221.33 159C221.058 159.122 220.767 159.193 220.47 159.21Z" fill="#263238"/>
<path d="M232.64 182.32C232.602 182.321 232.564 182.314 232.529 182.298C232.495 182.282 232.464 182.259 232.44 182.23C231.05 180.52 231.8 178.58 232.52 176.71C232.948 175.799 233.215 174.822 233.31 173.82C233.207 172.035 232.631 170.309 231.64 168.82C230.71 167.13 229.83 165.53 230.36 163.63C231.24 160.47 229.78 158.1 228.6 156.19C227.867 155.252 227.395 154.138 227.23 152.96C227.23 152.894 227.256 152.83 227.303 152.783C227.35 152.736 227.413 152.71 227.48 152.71C227.546 152.71 227.61 152.736 227.657 152.783C227.703 152.83 227.73 152.894 227.73 152.96C227.902 154.052 228.346 155.084 229.02 155.96C230.25 157.96 231.78 160.43 230.85 163.79C230.37 165.5 231.16 166.94 232.08 168.61C233.112 170.183 233.709 172.001 233.81 173.88C233.716 174.94 233.438 175.975 232.99 176.94C232.28 178.76 231.62 180.48 232.83 181.94C232.854 181.962 232.873 181.99 232.886 182.02C232.899 182.05 232.906 182.082 232.906 182.115C232.906 182.148 232.899 182.18 232.886 182.21C232.873 182.24 232.854 182.268 232.83 182.29C232.802 182.309 232.771 182.322 232.738 182.327C232.705 182.332 232.672 182.33 232.64 182.32Z" fill="#263238"/>
<path d="M160.7 189.7L159.99 192.41L158.45 191.86L159.27 188.98L160.7 189.7Z" fill="#508D4E"/>
<path opacity="0.7" d="M160.7 189.7L159.99 192.41L158.45 191.86L159.27 188.98L160.7 189.7Z" fill="white"/>
<path d="M162.66 190.82C162.604 190.831 162.546 190.831 162.49 190.82C161.625 190.484 160.665 190.484 159.8 190.82C159.741 190.849 159.676 190.866 159.611 190.87C159.545 190.875 159.479 190.866 159.417 190.844C159.355 190.823 159.297 190.79 159.248 190.746C159.199 190.702 159.159 190.649 159.13 190.59C159.101 190.532 159.084 190.468 159.08 190.403C159.076 190.339 159.085 190.273 159.106 190.212C159.128 190.151 159.161 190.094 159.205 190.046C159.248 189.997 159.301 189.958 159.36 189.93C160.473 189.485 161.716 189.485 162.83 189.93C162.962 189.953 163.081 190.027 163.158 190.137C163.236 190.246 163.267 190.383 163.245 190.515C163.222 190.648 163.148 190.766 163.038 190.844C162.929 190.922 162.792 190.953 162.66 190.93V190.82Z" fill="#508D4E"/>
<path d="M91.2904 337.85C91.2904 337.85 96.0404 327.49 90.6104 317.27C85.1804 307.05 83.6104 304.65 87.0704 302.55C90.5304 300.45 92.1204 310.73 92.1204 310.73C93.8319 306.088 94.0072 301.019 92.6204 296.27C90.2204 288.88 88.7104 276.84 91.9904 275.55C95.2704 274.26 92.6204 290.55 95.4804 296.13C96.9308 292.224 97.8686 288.147 98.2704 284C98.6604 278.07 98.0504 268.59 100.64 266.15C103.23 263.71 104.9 265.41 102.35 278.51C100.818 286.338 99.971 294.285 99.8204 302.26C99.8204 302.26 105.45 285.07 109.24 284.57C113.03 284.07 113.02 289.64 109.78 294.46C106.54 299.28 100.29 307.94 99.2704 312.39C99.2704 312.39 105.46 299.46 111.02 303.39C116.58 307.32 106.18 315.17 101.54 317.99C96.9004 320.81 93.6804 338.51 93.6804 338.51L91.2904 337.85Z" fill="#508D4E"/>
<path opacity="0.2" d="M91.2904 337.85C91.2904 337.85 96.0404 327.49 90.6104 317.27C85.1804 307.05 83.6104 304.65 87.0704 302.55C90.5304 300.45 92.1204 310.73 92.1204 310.73C93.8319 306.088 94.0072 301.019 92.6204 296.27C90.2204 288.88 88.7104 276.84 91.9904 275.55C95.2704 274.26 92.6204 290.55 95.4804 296.13C96.9308 292.224 97.8686 288.147 98.2704 284C98.6604 278.07 98.0504 268.59 100.64 266.15C103.23 263.71 104.9 265.41 102.35 278.51C100.818 286.338 99.971 294.285 99.8204 302.26C99.8204 302.26 105.45 285.07 109.24 284.57C113.03 284.07 113.02 289.64 109.78 294.46C106.54 299.28 100.29 307.94 99.2704 312.39C99.2704 312.39 105.46 299.46 111.02 303.39C116.58 307.32 106.18 315.17 101.54 317.99C96.9004 320.81 93.6804 338.51 93.6804 338.51L91.2904 337.85Z" fill="black"/>
<path d="M95.0011 342.1C95.0011 342.1 90.3711 331.67 95.9211 321.53C101.471 311.39 103.071 309.02 99.6411 306.87C96.2111 304.72 94.4911 314.97 94.4911 314.97C92.8339 310.31 92.7182 305.241 94.1611 300.51C96.6511 293.15 98.3111 281.14 95.0411 279.8C91.7711 278.46 94.2311 294.8 91.3111 300.32C89.9046 296.395 89.0138 292.304 88.6611 288.15C88.3411 282.21 89.0711 272.74 86.5011 270.27C83.9311 267.8 82.2511 269.46 84.6511 282.6C86.0881 290.45 86.8377 298.41 86.8911 306.39C86.8911 306.39 81.4611 289.12 77.6911 288.56C73.9211 288 73.8511 293.56 77.0311 298.44C80.2111 303.32 86.3511 312.06 87.3211 316.52C87.3211 316.52 81.3211 303.52 75.6811 307.38C70.0411 311.24 80.3811 319.23 84.9811 322.12C89.5811 325.01 92.6011 342.75 92.6011 342.75L95.0011 342.1Z" fill="#508D4E"/>
<path d="M73.7007 334.67H111.911L108.821 362.01H76.8007L73.7007 334.67Z" fill="#263238"/>
</svg>
