<svg width="538" height="400" viewBox="0 0 538 400" fill="none" xmlns="http://www.w3.org/2000/svg">
<path d="M483.75 369.334H448.138V369.603H483.75V369.334Z" fill="#EBEBEB"/>
<path d="M356.141 372.259H346.797V372.527H356.141V372.259Z" fill="#EBEBEB"/>
<path d="M447.063 359.356H426.429V359.625H447.063V359.356Z" fill="#EBEBEB"/>
<path d="M102.847 361.162H56.407V361.431H102.847V361.162Z" fill="#EBEBEB"/>
<path d="M119.234 361.162H112.427V361.431H119.234V361.162Z" fill="#EBEBEB"/>
<path d="M141.357 365.466L141.356 365.735L242.084 366.192L242.085 365.923L141.357 365.466Z" fill="#EBEBEB"/>
<path d="M256.337 304.078H48.7085C47.0801 304.078 45.5185 303.431 44.3671 302.28C43.2157 301.128 42.5688 299.567 42.5688 297.938V6.08586C42.583 4.46686 43.2361 2.919 44.386 1.7792C45.5359 0.639405 47.0894 -6.20692e-05 48.7085 4.51875e-09H256.337C257.144 4.51875e-09 257.942 0.158805 258.687 0.467349C259.432 0.775894 260.109 1.22814 260.679 1.79825C261.249 2.36837 261.701 3.0452 262.01 3.79009C262.318 4.53498 262.477 5.33335 262.477 6.13962V297.938C262.477 298.744 262.318 299.543 262.01 300.288C261.701 301.033 261.249 301.71 260.679 302.28C260.109 302.85 259.432 303.302 258.687 303.611C257.942 303.919 257.144 304.078 256.337 304.078ZM48.7085 0.215049C47.1523 0.217891 45.6607 0.837333 44.5603 1.93771C43.4599 3.03808 42.8405 4.5297 42.8377 6.08586V297.938C42.8405 299.494 43.4599 300.986 44.5603 302.086C45.6607 303.187 47.1523 303.806 48.7085 303.809H256.337C257.893 303.806 259.385 303.187 260.485 302.086C261.586 300.986 262.205 299.494 262.208 297.938V6.08586C262.205 4.5297 261.586 3.03808 260.485 1.93771C259.385 0.837333 257.893 0.217891 256.337 0.215049H48.7085Z" fill="#EBEBEB"/>
<path d="M488.912 304.078H281.283C279.654 304.078 278.093 303.431 276.941 302.28C275.79 301.128 275.143 299.567 275.143 297.938V6.08586C275.157 4.46686 275.81 2.919 276.96 1.7792C278.11 0.639405 279.664 -6.20692e-05 281.283 4.51875e-09H488.912C490.54 4.51876e-09 492.102 0.646851 493.253 1.79825C494.404 2.94966 495.051 4.51129 495.051 6.13962V297.938C495.051 299.567 494.404 301.128 493.253 302.28C492.102 303.431 490.54 304.078 488.912 304.078ZM281.283 0.215049C279.727 0.217891 278.235 0.837333 277.135 1.93771C276.034 3.03808 275.415 4.5297 275.412 6.08586V297.938C275.415 299.494 276.034 300.986 277.135 302.086C278.235 303.187 279.727 303.806 281.283 303.809H488.912C490.468 303.806 491.959 303.187 493.06 302.086C494.16 300.986 494.78 299.494 494.782 297.938V6.08586C494.78 4.5297 494.16 3.03808 493.06 1.93771C491.959 0.837333 490.468 0.217891 488.912 0.215049H281.283Z" fill="#EBEBEB"/>
<path d="M537.62 352.033H0V352.302H537.62V352.033Z" fill="#EBEBEB"/>
<path d="M459.999 263.477H305.852C294.171 263.477 284.702 272.946 284.702 284.627V330.507C284.702 342.188 294.171 351.657 305.852 351.657H459.999C471.679 351.657 481.148 342.188 481.148 330.507V284.627C481.148 272.946 471.679 263.477 459.999 263.477Z" fill="#E0E0E0"/>
<path d="M449.644 264.122H295.498C283.817 264.122 274.348 273.591 274.348 285.272V331.152C274.348 342.833 283.817 352.302 295.498 352.302H449.644C461.325 352.302 470.794 342.833 470.794 331.152V285.272C470.794 273.591 461.325 264.122 449.644 264.122Z" fill="#F5F5F5"/>
<path d="M299.271 272.434H447.009C450.928 272.434 454.685 273.99 457.456 276.761C460.227 279.531 461.783 283.289 461.783 287.208V305.368H284.508V287.208C284.508 283.291 286.063 279.535 288.832 276.765C291.6 273.994 295.355 272.437 299.271 272.434Z" fill="#E0E0E0"/>
<path d="M284.508 309.787H461.783V327.948C461.783 331.867 460.227 335.624 457.456 338.395C454.685 341.166 450.928 342.722 447.009 342.722H299.282C295.364 342.722 291.606 341.166 288.835 338.395C286.065 335.624 284.508 331.867 284.508 327.948V309.787Z" fill="#E0E0E0"/>
<path d="M414.709 278.81H389.581V305.551H414.709V278.81Z" fill="#E6E6E6"/>
<path d="M389.581 278.81H383.14V305.551H389.581V278.81Z" fill="#F5F5F5"/>
<path d="M421.29 274.681H402.419V305.551H421.29V274.681Z" fill="#E6E6E6"/>
<path d="M402.419 274.681H396.968V305.551H402.419V274.681Z" fill="#F5F5F5"/>
<path d="M423.892 278.81H407.978V305.551H423.892V278.81Z" fill="#EBEBEB"/>
<path d="M407.978 278.81H404.344V305.551H407.978V278.81Z" fill="#F5F5F5"/>
<path d="M441.87 283.336H421V305.562H441.87V283.336Z" fill="#E6E6E6"/>
<path d="M420.999 283.336H415.655V305.562H420.999V283.336Z" fill="#F5F5F5"/>
<path d="M447.343 279.906H431.666V305.551H447.343V279.906Z" fill="#E6E6E6"/>
<path d="M431.676 279.906H427.139V305.551H431.676V279.906Z" fill="#F5F5F5"/>
<path d="M451.525 283.336H436.289V305.562H451.525V283.336Z" fill="#E6E6E6"/>
<path d="M436.289 283.336H433.268V305.562H436.289V283.336Z" fill="#F0F0F0"/>
<path d="M336.518 314.927H311.389V341.668H336.518V314.927Z" fill="#E6E6E6"/>
<path d="M311.389 314.927H304.948V341.668H311.389V314.927Z" fill="#F5F5F5"/>
<path d="M343.098 310.798H324.228V341.668H343.098V310.798Z" fill="#E6E6E6"/>
<path d="M324.228 310.798H318.776V341.668H324.228V310.798Z" fill="#F5F5F5"/>
<path d="M422.236 314.927H397.108V341.668H422.236V314.927Z" fill="#E6E6E6"/>
<path d="M397.108 314.927H390.667V341.668H397.108V314.927Z" fill="#F5F5F5"/>
<path d="M428.816 310.798H409.946V341.668H428.816V310.798Z" fill="#E6E6E6"/>
<path d="M409.957 310.798H404.494V341.668H409.957V310.798Z" fill="#F5F5F5"/>
<path d="M345.7 314.927H329.787V341.668H345.7V314.927Z" fill="#EBEBEB"/>
<path d="M329.787 314.927H326.153V341.668H329.787V314.927Z" fill="#F5F5F5"/>
<path d="M363.678 319.454H342.808V341.679H363.678V319.454Z" fill="#E6E6E6"/>
<path d="M342.808 319.454H337.464V341.679H342.808V319.454Z" fill="#F5F5F5"/>
<path d="M369.151 316.024H353.474V341.668H369.151V316.024Z" fill="#E6E6E6"/>
<path d="M353.485 316.024H348.948V341.668H353.485V316.024Z" fill="#F5F5F5"/>
<path d="M373.334 319.454H358.098V341.679H373.334V319.454Z" fill="#E6E6E6"/>
<path d="M358.098 319.454H355.076V341.679H358.098V319.454Z" fill="#F0F0F0"/>
<path d="M336.303 279.627C336.044 279.112 335.626 278.694 335.111 278.434C334.596 278.175 334.011 278.088 333.443 278.186C332.872 278.328 332.359 278.642 331.974 279.087C331.588 279.532 331.35 280.085 331.292 280.67C330.901 280.38 330.43 280.218 329.944 280.204C329.457 280.191 328.978 280.327 328.572 280.595C328.169 280.893 327.855 281.297 327.666 281.761C327.476 282.226 327.418 282.734 327.497 283.229C327.272 283.064 327.015 282.948 326.742 282.888C326.47 282.828 326.188 282.826 325.914 282.882C325.641 282.937 325.382 283.05 325.154 283.211C324.927 283.373 324.736 283.58 324.594 283.82C324.326 284.337 324.27 284.938 324.437 285.495C324.603 286.053 324.979 286.524 325.486 286.81C325.127 286.848 324.795 287.02 324.556 287.291C324.318 287.562 324.19 287.913 324.198 288.275C324.206 288.636 324.35 288.981 324.6 289.241C324.851 289.502 325.19 289.658 325.55 289.68C325.19 289.706 324.85 289.856 324.589 290.105C324.328 290.355 324.162 290.687 324.12 291.046C324.085 291.407 324.172 291.77 324.367 292.075C324.562 292.381 324.854 292.613 325.196 292.734C325.026 292.832 324.88 292.967 324.769 293.129C324.658 293.291 324.585 293.476 324.555 293.67C324.525 293.864 324.539 294.062 324.596 294.25C324.653 294.438 324.751 294.611 324.884 294.756C325.035 294.874 325.214 294.953 325.403 294.987C325.592 295.021 325.787 295.009 325.97 294.95C326.153 294.892 326.319 294.79 326.454 294.653C326.589 294.516 326.689 294.348 326.744 294.164C326.772 294.218 326.812 294.264 326.861 294.299C326.91 294.334 326.967 294.357 327.026 294.366C327.086 294.376 327.147 294.371 327.204 294.353C327.261 294.335 327.314 294.303 327.357 294.261C327.396 294.214 327.425 294.158 327.44 294.099C327.456 294.039 327.458 293.977 327.447 293.916C327.435 293.855 327.411 293.798 327.375 293.748C327.339 293.698 327.292 293.657 327.239 293.627C327.326 293.725 327.438 293.797 327.564 293.836C327.69 293.874 327.824 293.876 327.951 293.843C328.078 293.809 328.193 293.741 328.284 293.646C328.375 293.551 328.437 293.433 328.464 293.304C328.423 293.61 328.462 293.921 328.578 294.207C328.693 294.492 328.881 294.743 329.123 294.934C329.365 295.125 329.653 295.25 329.958 295.296C330.263 295.342 330.575 295.308 330.862 295.196C330.801 295.338 330.772 295.491 330.775 295.645C330.779 295.799 330.816 295.951 330.883 296.09C330.95 296.228 331.047 296.351 331.166 296.449C331.284 296.547 331.423 296.619 331.572 296.659C332.172 296.759 332.787 296.637 333.303 296.315C333.817 295.995 334.399 295.8 335.002 295.745C335.528 295.811 336.042 295.952 336.529 296.164C337.338 296.412 338.2 296.429 339.018 296.214C339.837 296 340.579 295.562 341.163 294.949C341.382 295.2 341.661 295.391 341.974 295.506C342.286 295.62 342.623 295.653 342.952 295.603C343.281 295.553 343.593 295.42 343.857 295.217C344.121 295.015 344.33 294.749 344.464 294.444C344.527 294.753 344.687 295.033 344.921 295.244C345.156 295.455 345.451 295.585 345.765 295.616C346.078 295.623 346.384 295.528 346.638 295.346C346.892 295.164 347.08 294.904 347.174 294.605C347.174 294.885 347.174 295.164 347.174 295.444C347.467 295.469 347.761 295.419 348.03 295.3C348.299 295.181 348.534 294.997 348.713 294.763C348.892 294.53 349.009 294.255 349.054 293.964C349.099 293.674 349.069 293.376 348.969 293.1C349.392 293.083 349.796 292.918 350.109 292.632C350.421 292.347 350.623 291.96 350.679 291.541C350.726 291.115 350.625 290.687 350.391 290.328C350.158 289.969 349.807 289.702 349.399 289.573C350.094 289.35 350.7 288.913 351.133 288.326C351.565 287.739 351.802 287.03 351.809 286.301C351.816 285.571 351.594 284.858 351.173 284.262C350.752 283.667 350.154 283.219 349.464 282.982C349.204 282.882 348.922 282.849 348.646 282.886C348.37 282.924 348.107 283.031 347.883 283.197C347.778 283.291 347.693 283.406 347.635 283.535C347.578 283.663 347.548 283.803 347.548 283.944C347.548 284.085 347.578 284.225 347.635 284.354C347.693 284.482 347.778 284.598 347.883 284.691C348.068 284.027 348.036 283.321 347.79 282.676C347.544 282.032 347.098 281.483 346.518 281.111C345.927 280.795 345.243 280.698 344.588 280.838C343.933 280.978 343.348 281.345 342.937 281.874C343.132 281.581 343.236 281.237 343.236 280.885C343.236 280.533 343.132 280.189 342.937 279.896C342.743 279.615 342.463 279.405 342.139 279.296C341.816 279.187 341.466 279.187 341.141 279.294C341.062 278.85 340.82 278.452 340.461 278.18C340.103 277.907 339.655 277.779 339.206 277.821C338.762 277.921 338.37 278.179 338.103 278.547C337.836 278.915 337.712 279.368 337.754 279.821C337.715 279.647 337.625 279.49 337.497 279.366C337.369 279.243 337.208 279.16 337.034 279.127C336.859 279.094 336.679 279.112 336.515 279.18C336.351 279.248 336.21 279.362 336.109 279.509C335.679 279.369 336.303 279.627 336.303 279.627Z" fill="#EBEBEB"/>
<path d="M336.625 288.164C336.451 288.035 336.253 287.942 336.043 287.891C335.832 287.839 335.614 287.83 335.399 287.863C335.186 287.902 334.988 288.002 334.83 288.151C334.671 288.3 334.559 288.491 334.507 288.702C334.462 288.914 334.498 289.135 334.608 289.321C334.717 289.508 334.892 289.648 335.098 289.713C335.615 289.842 336.174 289.422 336.647 289.487C336.829 289.534 337.008 289.592 337.184 289.659C337.576 289.7 337.972 289.654 338.344 289.524C338.716 289.394 339.054 289.183 339.335 288.906C339.562 288.75 339.762 288.558 339.926 288.336C340.002 288.224 340.048 288.093 340.059 287.958C340.071 287.822 340.047 287.686 339.991 287.562C339.86 287.413 339.69 287.302 339.5 287.244C339.31 287.185 339.108 287.18 338.916 287.229C338.156 287.32 337.437 287.622 336.84 288.1L336.894 287.745L336.625 288.164Z" fill="#FAFAFA"/>
<path d="M347.528 287.562C347.333 287.408 347.11 287.291 346.872 287.218C346.736 287.184 346.592 287.199 346.466 287.259C346.339 287.32 346.238 287.423 346.179 287.551C346.12 287.678 346.108 287.822 346.144 287.958C346.181 288.093 346.263 288.212 346.378 288.293C346.661 288.486 346.992 288.598 347.335 288.616C347.679 288.67 348.12 288.691 348.292 288.379C348.341 288.262 348.352 288.133 348.323 288.009C348.294 287.886 348.226 287.774 348.13 287.691C347.928 287.532 347.693 287.418 347.442 287.358L347.528 287.562Z" fill="#FAFAFA"/>
<path d="M330.314 281.896C329.966 282.044 329.658 282.272 329.415 282.561C329.172 282.851 329.001 283.194 328.916 283.562C328.871 283.65 328.854 283.749 328.869 283.846C328.884 283.943 328.93 284.033 328.999 284.103C329.069 284.172 329.159 284.218 329.256 284.233C329.353 284.248 329.452 284.231 329.54 284.186L331.54 283.713C331.213 283.822 330.908 283.986 330.636 284.197C330.506 284.307 330.405 284.449 330.345 284.609C330.285 284.769 330.267 284.942 330.292 285.111C330.359 285.299 330.486 285.461 330.653 285.571C330.819 285.682 331.017 285.735 331.217 285.724C331.61 285.688 331.984 285.539 332.292 285.293C332.475 285.184 332.631 285.036 332.75 284.859C332.869 284.683 332.948 284.482 332.98 284.272C332.98 283.842 332.454 283.444 332.12 283.713C332.886 283.512 333.613 283.185 334.271 282.745C334.515 282.595 334.727 282.398 334.894 282.165C334.975 282.046 335.024 281.908 335.035 281.764C335.046 281.621 335.02 281.477 334.959 281.347C334.271 280.111 333.411 281.928 332.991 282.089C332.249 282.401 331.325 281.476 330.314 281.896Z" fill="#FAFAFA"/>
<path d="M327.217 287.186C327.177 287.305 327.171 287.433 327.202 287.555C327.232 287.677 327.297 287.788 327.389 287.874C327.437 287.913 327.493 287.941 327.553 287.956C327.613 287.97 327.676 287.971 327.737 287.959C327.797 287.947 327.854 287.921 327.904 287.884C327.954 287.847 327.994 287.8 328.023 287.745C327.566 287.839 327.15 288.072 326.83 288.412C326.55 288.788 326.615 289.487 327.056 289.594C327.199 289.622 327.346 289.619 327.488 289.588C327.631 289.557 327.765 289.497 327.884 289.412C328.608 289.014 329.299 288.558 329.948 288.046C329.755 288.508 330.228 289.024 330.722 289.067C331.224 289.055 331.709 288.885 332.109 288.584C332.625 288.261 333.185 287.777 333.088 287.186C332.994 286.937 332.805 286.736 332.564 286.626C332.322 286.515 332.047 286.504 331.797 286.594C331.302 286.793 330.87 287.124 330.55 287.551C330.83 287.143 330.432 286.53 329.948 286.476C329.708 286.462 329.469 286.508 329.251 286.609C329.034 286.711 328.844 286.864 328.701 287.057C329.249 286.756 329.378 285.982 328.636 285.863C328.152 285.799 327.324 286.777 327.217 287.186Z" fill="#FAFAFA"/>
<path d="M342.432 285.401C342.325 285.363 342.212 285.347 342.099 285.354C341.986 285.361 341.876 285.391 341.775 285.443C341.675 285.494 341.585 285.565 341.513 285.653C341.441 285.74 341.388 285.841 341.356 285.949C341.312 286.169 341.356 286.397 341.479 286.584C341.601 286.772 341.793 286.903 342.012 286.949C341.848 286.962 341.689 287.008 341.543 287.083C341.397 287.159 341.268 287.263 341.163 287.39C341.099 287.454 341.05 287.532 341.02 287.618C340.99 287.703 340.98 287.795 340.991 287.885C341.023 288.016 341.099 288.133 341.207 288.215C341.314 288.297 341.447 288.34 341.582 288.336C341.853 288.323 342.118 288.25 342.356 288.121C342.087 288.12 341.822 288.194 341.593 288.336C341.538 288.375 341.491 288.424 341.456 288.481C341.42 288.538 341.397 288.602 341.387 288.668C341.377 288.735 341.38 288.802 341.397 288.867C341.414 288.932 341.444 288.993 341.485 289.046C341.576 289.113 341.682 289.154 341.794 289.166C341.905 289.177 342.018 289.158 342.12 289.111C342.608 288.973 343.058 288.723 343.432 288.379C343.559 288.539 343.723 288.665 343.911 288.746C344.099 288.827 344.303 288.859 344.507 288.842C344.608 288.826 344.704 288.791 344.791 288.737C344.878 288.683 344.953 288.613 345.013 288.53C345.072 288.446 345.114 288.352 345.136 288.252C345.158 288.153 345.16 288.05 345.141 287.949C345.085 287.813 344.991 287.694 344.872 287.607C344.752 287.52 344.611 287.467 344.464 287.455C344.167 287.436 343.869 287.484 343.593 287.594C343.905 287.42 344.15 287.148 344.292 286.82C344.399 286.487 344.163 286.035 343.819 286.068C343.475 286.1 343.217 286.638 342.905 286.831C342.561 286.465 343.281 285.713 342.432 285.401Z" fill="#FAFAFA"/>
<path d="M335.324 283.756C335.116 283.931 334.955 284.156 334.855 284.409C334.755 284.663 334.721 284.937 334.754 285.207C334.749 285.507 334.826 285.802 334.976 286.061C335.125 286.321 335.342 286.535 335.604 286.681C335.79 286.738 335.987 286.756 336.181 286.732C336.375 286.708 336.562 286.643 336.728 286.541C336.895 286.44 337.038 286.303 337.149 286.142C337.259 285.981 337.333 285.798 337.367 285.605C337.404 285.213 337.32 284.82 337.128 284.476C336.936 284.132 336.645 283.855 336.292 283.681C336.136 283.616 335.967 283.59 335.799 283.603C335.631 283.616 335.468 283.668 335.324 283.756Z" fill="#FAFAFA"/>
<path d="M340.356 283.121L340.55 283.272C340.386 283.086 340.156 282.971 339.908 282.953C339.661 282.935 339.416 283.015 339.227 283.175C339.131 283.258 339.053 283.36 338.999 283.475C338.944 283.59 338.915 283.715 338.912 283.842C338.909 283.969 338.933 284.095 338.983 284.212C339.032 284.329 339.106 284.434 339.198 284.521C339.291 284.608 339.401 284.674 339.521 284.715C339.642 284.756 339.769 284.772 339.896 284.76C340.022 284.749 340.145 284.711 340.256 284.649C340.367 284.587 340.463 284.503 340.539 284.401C340.8 284.525 341.094 284.562 341.378 284.508C341.662 284.454 341.922 284.311 342.12 284.1C342.287 283.872 342.359 283.588 342.319 283.308C342.278 283.029 342.13 282.776 341.905 282.605C341.78 282.542 341.641 282.512 341.501 282.516C341.362 282.52 341.225 282.56 341.104 282.63C340.984 282.701 340.882 282.8 340.81 282.92C340.738 283.039 340.696 283.175 340.69 283.315L340.475 283.078L340.356 283.121Z" fill="#FAFAFA"/>
<path d="M345.915 284.014C345.532 284.336 345.236 284.75 345.055 285.218C344.98 285.457 344.996 285.715 345.102 285.942C345.207 286.169 345.394 286.348 345.625 286.444C346.109 286.562 346.571 286.164 346.84 285.756C346.981 285.579 347.081 285.374 347.133 285.155C347.185 284.936 347.188 284.707 347.141 284.487C346.991 284.067 346.378 283.809 346.066 284.143L345.915 284.014Z" fill="#FAFAFA"/>
<path d="M337.915 281.1C337.863 281.003 337.791 280.917 337.705 280.848C337.618 280.78 337.519 280.729 337.412 280.7C337.306 280.671 337.194 280.664 337.085 280.679C336.975 280.694 336.87 280.731 336.776 280.788C336.593 280.915 336.459 281.1 336.395 281.312C336.331 281.525 336.34 281.753 336.421 281.96C336.518 282.168 336.668 282.347 336.857 282.477C337.047 282.608 337.267 282.685 337.496 282.702C338.044 282.756 338.689 282.315 338.571 281.777C338.699 281.933 338.866 282.051 339.055 282.121C339.244 282.191 339.448 282.21 339.646 282.175C340.03 282.117 340.396 281.977 340.722 281.766C341.173 281.508 341.668 281.1 341.614 280.573C341.581 280.364 341.477 280.173 341.321 280.03C341.165 279.888 340.965 279.802 340.754 279.788C340.543 279.78 340.333 279.815 340.136 279.888C339.938 279.962 339.757 280.074 339.603 280.218C339.345 280.433 339.141 280.702 338.872 280.885C338.743 280.989 338.588 281.057 338.423 281.082C338.259 281.106 338.091 281.086 337.937 281.025L337.915 281.1Z" fill="#FAFAFA"/>
<path d="M344.754 305.551H330.98L329.625 291.669H346.098L344.754 305.551Z" fill="#F0F0F0"/>
<path d="M347.162 292.39H328.432L328.088 290.541H347.496L347.162 292.39Z" fill="#FAFAFA"/>
<path d="M455.353 263.143H439.547L444.493 247.187L445.225 244.854H448.794L455.353 263.143Z" fill="#E0E0E0"/>
<path d="M445.225 244.854L444.493 247.187L439.547 263.143L424.935 262.918L420.236 247.187L419.516 244.854H445.225Z" fill="#E0E0E0"/>
<path d="M445.225 244.854L444.494 247.187L439.548 263.143L409.538 262.692L415.925 244.854H445.225Z" fill="#FAFAFA"/>
<path d="M445.225 244.854L444.494 247.187H415.096L415.924 244.854H445.225Z" fill="#EBEBEB"/>
<path d="M419.623 254.767H413.032L415.333 248.316L421.634 248.38L419.623 254.767ZM413.784 254.23H419.225L420.903 248.853L415.709 248.789L413.784 254.23Z" fill="#EBEBEB"/>
<path d="M426.988 254.767H420.419L422.72 248.316L429.021 248.38L426.988 254.767ZM421.161 254.23H426.601L428.268 248.853L423.075 248.789L421.161 254.23Z" fill="#EBEBEB"/>
<path d="M434.397 254.767H427.806L430.107 248.316L436.408 248.38L434.397 254.767ZM428.569 254.23H433.999L435.676 248.853L430.483 248.789L428.569 254.23Z" fill="#EBEBEB"/>
<path d="M441.741 254.767H435.149L437.45 248.316L443.751 248.38L441.741 254.767ZM435.902 254.23H441.343L443.02 248.853L437.827 248.789L435.902 254.23Z" fill="#EBEBEB"/>
<path d="M417.322 261.649H410.741L413.042 255.197L419.343 255.273L417.322 261.649ZM411.494 261.111H416.924L418.601 255.735L413.408 255.681L411.494 261.111Z" fill="#EBEBEB"/>
<path d="M424.72 261.649H418.139L420.429 255.197L426.73 255.273L424.72 261.649ZM418.892 261.111H424.333L426.01 255.735L420.816 255.681L418.892 261.111Z" fill="#EBEBEB"/>
<path d="M432.064 261.649H425.473L427.774 255.197L434.075 255.273L432.064 261.649ZM426.236 261.111H431.612L433.29 255.735L428.096 255.681L426.236 261.111Z" fill="#EBEBEB"/>
<path d="M439.44 261.649H432.849L435.15 255.197L441.451 255.273L439.44 261.649ZM433.612 261.111H439.042L440.719 255.735L435.526 255.681L433.612 261.111Z" fill="#EBEBEB"/>
<path d="M380.517 263.434H362.087V252.896C362.087 250.452 363.058 248.108 364.786 246.38C366.514 244.652 368.858 243.681 371.302 243.681C372.512 243.68 373.711 243.917 374.83 244.38C375.949 244.843 376.965 245.521 377.821 246.377C378.677 247.233 379.356 248.25 379.818 249.368C380.281 250.487 380.518 251.686 380.517 252.896V263.434Z" fill="#F0F0F0"/>
<path d="M371.195 261.154C375.488 261.154 378.969 257.674 378.969 253.38C378.969 249.087 375.488 245.606 371.195 245.606C366.901 245.606 363.421 249.087 363.421 253.38C363.421 257.674 366.901 261.154 371.195 261.154Z" fill="white"/>
<path d="M377.323 253.38C377.325 254.617 376.96 255.826 376.275 256.855C375.589 257.884 374.613 258.686 373.471 259.16C372.329 259.635 371.072 259.759 369.86 259.519C368.647 259.278 367.533 258.683 366.658 257.808C365.784 256.934 365.189 255.82 364.948 254.607C364.707 253.394 364.832 252.137 365.306 250.995C365.78 249.853 366.583 248.878 367.612 248.192C368.641 247.507 369.85 247.142 371.086 247.144C372.74 247.147 374.324 247.805 375.493 248.974C376.662 250.142 377.32 251.727 377.323 253.38Z" fill="#EBEBEB"/>
<path d="M371.818 253.52C371.82 253.654 371.782 253.786 371.709 253.899C371.636 254.012 371.531 254.101 371.407 254.153C371.284 254.206 371.147 254.221 371.015 254.196C370.883 254.172 370.761 254.108 370.665 254.014C370.57 253.919 370.504 253.799 370.477 253.667C370.45 253.535 370.463 253.399 370.514 253.274C370.565 253.15 370.651 253.043 370.763 252.968C370.875 252.893 371.006 252.853 371.14 252.853C371.318 252.853 371.489 252.923 371.616 253.048C371.742 253.173 371.815 253.342 371.818 253.52Z" fill="#FAFAFA"/>
<path d="M371.065 253.767L368.205 251.09L368.485 250.789L371.076 253.23L375.71 249.133L375.979 249.434L371.065 253.767Z" fill="#FAFAFA"/>
<path d="M419.946 43.7946L431.644 55.4932L419.946 67.1918V43.7946Z" fill="#E6E6E6"/>
<path d="M402.129 39.5797L417.945 55.3965L402.129 71.2025V39.5797Z" fill="#E6E6E6"/>
<path d="M461.009 120.201L454.16 113.362L467.213 100.298L454.418 89.2018L460.751 81.8901L481.396 99.7929L461.009 120.201Z" fill="#E6E6E6"/>
<path d="M134.2 324.647C133.67 324.646 133.152 324.488 132.712 324.193C132.271 323.898 131.927 323.48 131.724 322.99C131.521 322.501 131.466 321.962 131.568 321.442C131.67 320.922 131.924 320.443 132.297 320.067L148.06 304.293L132.437 290.745C132.146 290.522 131.903 290.242 131.724 289.921C131.545 289.601 131.433 289.248 131.396 288.883C131.359 288.518 131.397 288.149 131.508 287.799C131.618 287.449 131.799 287.126 132.04 286.849C132.28 286.571 132.575 286.346 132.905 286.187C133.236 286.028 133.596 285.939 133.962 285.924C134.329 285.909 134.695 285.97 135.037 286.102C135.379 286.234 135.691 286.434 135.953 286.691L153.759 302.142C154.037 302.385 154.262 302.682 154.421 303.015C154.58 303.349 154.668 303.711 154.681 304.08C154.695 304.449 154.632 304.816 154.497 305.16C154.363 305.504 154.159 305.816 153.899 306.078L136.093 323.862C135.846 324.113 135.551 324.311 135.226 324.446C134.901 324.581 134.552 324.649 134.2 324.647Z" fill="#E6E6E6"/>
<path d="M146.233 324.647C145.703 324.646 145.185 324.488 144.744 324.193C144.303 323.898 143.96 323.48 143.756 322.99C143.553 322.501 143.499 321.962 143.601 321.442C143.703 320.922 143.956 320.443 144.33 320.067L160.082 304.293L144.459 290.745C144.167 290.522 143.924 290.242 143.745 289.921C143.566 289.601 143.455 289.248 143.418 288.883C143.38 288.518 143.418 288.149 143.529 287.799C143.64 287.449 143.821 287.126 144.061 286.849C144.302 286.571 144.596 286.346 144.927 286.187C145.258 286.028 145.617 285.939 145.984 285.924C146.35 285.909 146.716 285.97 147.059 286.102C147.401 286.234 147.713 286.434 147.975 286.691L165.781 302.142C166.059 302.384 166.285 302.681 166.444 303.014C166.603 303.347 166.692 303.709 166.705 304.078C166.717 304.447 166.654 304.815 166.519 305.159C166.384 305.502 166.18 305.815 165.92 306.078L148.125 323.862C147.623 324.364 146.943 324.647 146.233 324.647Z" fill="#E6E6E6"/>
<path d="M268.81 400C383.949 400 477.288 394.55 477.288 387.828C477.288 381.106 383.949 375.656 268.81 375.656C153.67 375.656 60.3315 381.106 60.3315 387.828C60.3315 394.55 153.67 400 268.81 400Z" fill="#F5F5F5"/>
<path d="M256.455 309.175C256.455 309.175 241.811 297.637 229.693 308.658L234.564 309.304L227.284 311.207C226.273 312.44 225.356 313.748 224.542 315.121C223.467 316.895 222.499 318.551 221.596 320.12L226.456 321.131L218.994 324.636C211.349 338.109 210.07 342.206 210.07 342.206C214.945 342.202 219.807 341.686 224.575 340.668L228.876 329.464L229.746 339.356C234.966 337.887 239.881 335.498 244.262 332.303L242.359 322.292L248.176 328.841C251.481 325.38 253.885 321.159 255.176 316.551L251.886 313.379L255.767 314.174C256.115 312.526 256.345 310.855 256.455 309.175Z" fill="#508D4E"/>
<path opacity="0.2" d="M256.455 309.175C256.455 309.175 241.811 297.637 229.693 308.658L234.564 309.304L227.284 311.207C226.273 312.44 225.356 313.748 224.542 315.121C223.467 316.895 222.499 318.551 221.596 320.12L226.456 321.131L218.994 324.636C211.349 338.109 210.07 342.206 210.07 342.206C214.945 342.202 219.807 341.686 224.575 340.668L228.876 329.464L229.746 339.356C234.966 337.887 239.881 335.498 244.262 332.303L242.359 322.292L248.176 328.841C251.481 325.38 253.885 321.159 255.176 316.551L251.886 313.379L255.767 314.174C256.115 312.526 256.345 310.855 256.455 309.175Z" fill="white"/>
<path d="M285.272 300.53C285.272 300.53 304.207 285.605 319.862 299.852L313.562 300.68L322.959 303.142C324.273 304.731 325.459 306.421 326.507 308.196C327.884 310.486 329.142 312.637 330.325 314.647L324.034 315.959L333.712 320.486C343.582 337.894 345.249 343.195 345.249 343.195C338.95 343.181 332.669 342.514 326.507 341.206L320.948 326.733L319.809 339.507C313.072 337.604 306.726 334.521 301.067 330.4L303.53 317.497L296.003 325.959C291.735 321.489 288.63 316.039 286.96 310.088L291.261 305.992L286.25 307.067C285.768 304.914 285.441 302.729 285.272 300.53Z" fill="#508D4E"/>
<path opacity="0.3" d="M285.272 300.53C285.272 300.53 304.207 285.605 319.862 299.852L313.562 300.68L322.959 303.142C324.273 304.731 325.459 306.421 326.507 308.196C327.884 310.486 329.142 312.637 330.325 314.647L324.034 315.959L333.712 320.486C343.582 337.894 345.249 343.195 345.249 343.195C338.95 343.181 332.669 342.514 326.507 341.206L320.948 326.733L319.809 339.507C313.072 337.604 306.726 334.521 301.067 330.4L303.53 317.497L296.003 325.959C291.735 321.489 288.63 316.039 286.96 310.088L291.261 305.992L286.25 307.067C285.768 304.914 285.441 302.729 285.272 300.53Z" fill="white"/>
<path d="M277.52 273.218C277.52 273.218 274.681 297.153 253.542 298.153L257.402 293.11L249.026 298.024C246.973 297.818 244.939 297.458 242.94 296.949C240.349 296.293 237.94 295.669 235.671 295.067L239.198 289.691L229.177 293.304C209.876 287.928 204.962 285.401 204.962 285.401C209.424 280.961 214.336 276.997 219.618 273.573L233.779 279.874L225.542 270.036C231.656 266.615 238.33 264.31 245.252 263.229L252.682 274.122L252.015 262.821C258.197 262.958 264.25 264.616 269.638 267.649L269.52 273.562L272.337 269.262C274.154 270.459 275.886 271.781 277.52 273.218Z" fill="#508D4E"/>
<path opacity="0.5" d="M277.52 273.218C277.52 273.218 274.681 297.153 253.542 298.153L257.402 293.11L249.026 298.024C246.973 297.818 244.939 297.458 242.94 296.949C240.349 296.293 237.94 295.669 235.671 295.067L239.198 289.691L229.177 293.304C209.876 287.928 204.962 285.401 204.962 285.401C209.424 280.961 214.336 276.997 219.618 273.573L233.779 279.874L225.542 270.036C231.656 266.615 238.33 264.31 245.252 263.229L252.682 274.122L252.015 262.821C258.197 262.958 264.25 264.616 269.638 267.649L269.52 273.562L272.337 269.262C274.154 270.459 275.886 271.781 277.52 273.218Z" fill="white"/>
<path d="M231.403 319.798C231.403 319.798 263.789 274.272 274.186 341.389H270.477C270.477 341.389 266.939 310.637 254.606 308.357C242.273 306.078 231.403 319.798 231.403 319.798Z" fill="#508D4E"/>
<path d="M311.723 311.454C311.723 311.454 280.541 248.337 270.477 341.388H274.047C274.047 341.388 277.455 298.755 289.358 295.583C301.261 292.411 311.723 311.454 311.723 311.454Z" fill="#508D4E"/>
<path d="M237.564 283.423C237.564 283.423 284.939 276.122 277.52 342.313H281.24C281.24 342.313 290.401 276.337 237.564 283.423Z" fill="#508D4E"/>
<path d="M264.273 379.183L262.735 338.185H290.154L288.616 379.183C288.55 380.98 287.788 382.68 286.492 383.925C285.196 385.171 283.468 385.865 281.67 385.861H271.219C269.422 385.865 267.693 385.171 266.397 383.925C265.101 382.68 264.34 380.98 264.273 379.183Z" fill="#263238"/>
<path d="M393.172 257.198H74.417L59.2776 40.7303H378.043L393.172 257.198Z" fill="#508D4E"/>
<path d="M379.108 57.3321H60.4388L59.2776 40.7303H377.946L379.108 57.3321Z" fill="#263238"/>
<path opacity="0.7" d="M346.377 48.1923C346.415 48.6345 346.36 49.0797 346.214 49.4988C346.068 49.9179 345.835 50.3014 345.53 50.6242C345.226 50.947 344.856 51.2018 344.446 51.372C344.037 51.5422 343.595 51.6238 343.152 51.6115C342.225 51.5988 341.336 51.2416 340.659 50.6095C339.981 49.9775 339.563 49.1158 339.485 48.1923C339.447 47.7496 339.503 47.304 339.649 46.8843C339.795 46.4647 340.028 46.0805 340.332 45.7569C340.636 45.4332 341.006 45.1774 341.415 45.006C341.825 44.8346 342.267 44.7516 342.711 44.7623C343.639 44.7777 344.527 45.1372 345.205 45.771C345.882 46.4048 346.3 47.2677 346.377 48.1923Z" fill="white"/>
<path opacity="0.7" d="M356.646 48.1925C356.686 48.635 356.631 49.081 356.486 49.5008C356.34 49.9207 356.108 50.3049 355.803 50.6281C355.498 50.9513 355.128 51.2061 354.717 51.3757C354.306 51.5452 353.864 51.6257 353.42 51.6117C352.493 51.6014 351.603 51.245 350.925 50.6125C350.246 49.9799 349.829 49.1169 349.754 48.1925C349.714 47.7494 349.769 47.3031 349.914 46.8827C350.059 46.4623 350.292 46.0774 350.597 45.7534C350.901 45.4294 351.271 45.1735 351.682 45.0027C352.093 44.8319 352.535 44.7501 352.979 44.7625C353.908 44.7755 354.798 45.1342 355.476 45.7685C356.154 46.4027 356.571 47.267 356.646 48.1925Z" fill="white"/>
<path opacity="0.7" d="M366.926 48.1925C366.964 48.6346 366.908 49.0799 366.762 49.499C366.616 49.918 366.383 50.3016 366.079 50.6244C365.774 50.9472 365.405 51.202 364.995 51.3722C364.585 51.5423 364.144 51.624 363.7 51.6117C362.773 51.6014 361.883 51.245 361.204 50.6125C360.526 49.9799 360.109 49.1169 360.034 48.1925C359.994 47.7494 360.049 47.3031 360.194 46.8827C360.339 46.4623 360.572 46.0774 360.876 45.7534C361.181 45.4294 361.551 45.1735 361.962 45.0027C362.372 44.8319 362.815 44.7501 363.259 44.7625C364.187 44.7779 365.076 45.1374 365.753 45.7712C366.431 46.405 366.849 47.2679 366.926 48.1925Z" fill="white"/>
<path opacity="0.4" d="M393.172 257.197H74.4172L64.1702 110.664H382.925L393.172 257.197Z" fill="white"/>
<path opacity="0.4" d="M135.781 110.664H64.1702L66.568 96.4492C66.9571 94.0694 68.1887 91.9087 70.0382 90.3612C71.8877 88.8137 74.2318 87.9826 76.6429 88.0194H120.136C122.662 88.0564 125.112 88.8918 127.134 90.4061C129.157 91.9203 130.648 94.0357 131.394 96.4492L135.781 110.664Z" fill="white"/>
<path opacity="0.1" d="M210.187 110.664H138.576L140.974 96.4492C141.363 94.0694 142.595 91.9087 144.444 90.3612C146.294 88.8137 148.638 87.9826 151.049 88.0194H194.543C197.069 88.0564 199.518 88.8918 201.541 90.4061C203.563 91.9203 205.054 94.0357 205.8 96.4492L210.187 110.664Z" fill="black"/>
<path opacity="0.1" d="M284.594 110.664H212.983L215.381 96.4492C215.77 94.0694 217.002 91.9087 218.851 90.3612C220.701 88.8137 223.045 87.9826 225.456 88.0194H268.95C271.475 88.058 273.924 88.8941 275.946 90.4081C277.968 91.9221 279.459 94.0366 280.207 96.4492L284.594 110.664Z" fill="black"/>
<path d="M99.9973 102.621H96.7716L96.2555 104.126H94.6211L97.2554 97.0944H98.8683L102.503 104.126H100.75L99.9973 102.621ZM99.4059 101.385L98.1049 98.6965L97.1694 101.385H99.4059Z" fill="black"/>
<path d="M176.791 102.212C176.877 103.428 175.963 104.126 174.113 104.126H170.479L169.984 97.0944H173.414C175.178 97.0944 176.135 97.8255 176.21 98.9223C176.242 99.2335 176.18 99.5471 176.033 99.823C175.885 100.099 175.659 100.324 175.382 100.471C175.771 100.575 176.117 100.799 176.37 101.112C176.623 101.425 176.77 101.811 176.791 102.212ZM171.683 98.3201L171.802 99.976H173.414C174.21 99.976 174.629 99.6964 174.586 99.1481C174.543 98.5997 174.092 98.3201 173.307 98.3201H171.683ZM175.135 102.04C175.135 101.449 174.629 101.159 173.78 101.159H171.888L172.006 102.901H173.909C174.748 102.901 175.178 102.643 175.135 102.04Z" fill="black"/>
<path d="M243.251 100.61C243.206 100.127 243.267 99.6403 243.429 99.1833C243.592 98.7262 243.852 98.3101 244.192 97.964C244.532 97.618 244.943 97.3503 245.397 97.1796C245.851 97.009 246.337 96.9395 246.821 96.976C247.378 96.9587 247.932 97.0611 248.446 97.2762C248.959 97.4914 249.421 97.8144 249.799 98.2233L248.821 99.1803C248.59 98.9241 248.308 98.7191 247.993 98.5784C247.678 98.4377 247.338 98.3643 246.993 98.3631C246.696 98.3382 246.397 98.3801 246.118 98.4857C245.839 98.5913 245.587 98.7579 245.381 98.9733C245.175 99.1888 245.02 99.4476 244.926 99.7308C244.833 100.014 244.805 100.315 244.842 100.61C244.87 101.225 245.138 101.805 245.588 102.225C246.039 102.645 246.635 102.872 247.251 102.858C247.581 102.867 247.909 102.796 248.207 102.652C248.504 102.508 248.763 102.294 248.961 102.03L250.036 102.987C249.715 103.404 249.301 103.739 248.826 103.967C248.352 104.195 247.831 104.308 247.305 104.298C246.281 104.334 245.285 103.968 244.528 103.279C243.77 102.59 243.312 101.632 243.251 100.61Z" fill="black"/>
<path d="M348.797 179.382H300.992C298.148 179.344 295.42 178.246 293.342 176.303C291.264 174.36 289.986 171.713 289.756 168.877L289.003 158.189C288.887 156.843 289.055 155.488 289.495 154.211C289.934 152.934 290.637 151.762 291.556 150.773C292.476 149.783 293.592 148.997 294.834 148.465C296.076 147.933 297.415 147.667 298.766 147.684H346.582C349.426 147.726 352.152 148.825 354.229 150.767C356.307 152.709 357.586 155.355 357.818 158.189L358.571 168.877C358.687 170.224 358.519 171.58 358.079 172.858C357.638 174.137 356.935 175.308 356.014 176.298C355.094 177.288 353.976 178.073 352.733 178.605C351.489 179.136 350.149 179.401 348.797 179.382Z" fill="#263238"/>
<path d="M346.647 177.598H300.863C298.021 177.556 295.296 176.459 293.219 174.519C291.142 172.579 289.861 169.936 289.627 167.103L289.003 158.189C288.887 156.843 289.055 155.488 289.495 154.211C289.934 152.934 290.637 151.762 291.556 150.773C292.476 149.783 293.592 148.997 294.834 148.465C296.076 147.933 297.415 147.667 298.766 147.684H344.55C347.395 147.723 350.124 148.821 352.204 150.763C354.283 152.706 355.565 155.353 355.797 158.189L356.421 167.103C356.535 168.449 356.366 169.804 355.925 171.081C355.484 172.358 354.78 173.528 353.86 174.517C352.939 175.505 351.822 176.29 350.579 176.821C349.337 177.351 347.997 177.616 346.647 177.598Z" fill="#508D4E"/>
<path opacity="0.6" d="M346.647 177.598H300.863C298.021 177.556 295.296 176.459 293.219 174.519C291.142 172.579 289.861 169.936 289.627 167.103L289.003 158.189C288.887 156.843 289.055 155.488 289.495 154.211C289.934 152.934 290.637 151.762 291.556 150.773C292.476 149.783 293.592 148.997 294.834 148.465C296.076 147.933 297.415 147.667 298.766 147.684H344.55C347.395 147.723 350.124 148.821 352.204 150.763C354.283 152.706 355.565 155.353 355.797 158.189L356.421 167.103C356.535 168.449 356.366 169.804 355.925 171.081C355.484 172.358 354.78 173.528 353.86 174.517C352.939 175.505 351.822 176.29 350.579 176.821C349.337 177.351 347.997 177.616 346.647 177.598Z" fill="white"/>
<path d="M308.185 158.867L308.733 166.727H307.239L302.991 161.953L303.325 166.727H301.529L300.981 158.867H302.475L306.722 163.641L306.389 158.867H308.185Z" fill="black"/>
<path d="M316.572 165.264L316.669 166.727H310.583L310.034 158.867H315.97L316.077 160.329H311.948L312.067 162.028H315.712L315.808 163.447H312.163L312.292 165.264H316.572Z" fill="black"/>
<path d="M322.981 166.727L320.895 163.996L319.228 166.727H317.131L319.766 162.727L316.733 158.867H318.798L320.787 161.415L322.378 158.867H324.346L321.873 162.662L325.099 166.727H322.981Z" fill="black"/>
<path d="M326.873 160.351H324.368L324.26 158.867H331.099L331.206 160.351H328.701L329.152 166.727H327.335L326.873 160.351Z" fill="black"/>
<path d="M334.916 157.48L342.98 162.641L335.636 167.802L334.916 157.48Z" fill="#263238"/>
<path d="M211.187 35.752H119.211C119.069 35.752 118.932 35.6954 118.831 35.5945C118.73 35.4937 118.674 35.357 118.674 35.2144C118.674 35.0718 118.73 34.935 118.831 34.8342C118.932 34.7334 119.069 34.6768 119.211 34.6768H211.187C211.33 34.6768 211.467 34.7334 211.568 34.8342C211.668 34.935 211.725 35.0718 211.725 35.2144C211.725 35.285 211.711 35.3549 211.684 35.4201C211.657 35.4853 211.618 35.5446 211.568 35.5945C211.518 35.6445 211.458 35.6841 211.393 35.7111C211.328 35.7381 211.258 35.752 211.187 35.752Z" fill="#508D4E"/>
<path d="M108.481 35.752H94.6961C94.5535 35.752 94.4167 35.6954 94.3159 35.5945C94.2151 35.4937 94.1584 35.357 94.1584 35.2144C94.1612 35.0727 94.2187 34.9375 94.319 34.8373C94.4192 34.737 94.5543 34.6795 94.6961 34.6768H108.481C108.622 34.6795 108.758 34.737 108.858 34.8373C108.958 34.9375 109.016 35.0727 109.018 35.2144C109.018 35.357 108.962 35.4937 108.861 35.5945C108.76 35.6954 108.623 35.752 108.481 35.752Z" fill="#508D4E"/>
<path d="M186.36 220.618H100.739L100.147 212.242H185.78L186.36 220.618Z" fill="#508D4E"/>
<path opacity="0.1" d="M186.36 220.618H100.739L100.147 212.242H185.78L186.36 220.618Z" fill="black"/>
<path d="M212.962 231.252H101.481L101.298 228.628H212.779L212.962 231.252Z" fill="#263238"/>
<path d="M196.177 241.918H102.223L102.04 239.295H195.994L196.177 241.918Z" fill="#263238"/>
<path d="M246.789 68.3747H90.0832L89.9004 65.7404H246.606L246.789 68.3747Z" fill="#263238"/>
<path d="M282.379 79.0409H90.8361L90.6533 76.4174H282.197L282.379 79.0409Z" fill="#263238"/>
<path d="M256.713 204.113H105.804C104.304 204.091 102.867 203.512 101.772 202.488C100.677 201.465 100.002 200.07 99.879 198.575L94.8039 125.986C94.7385 125.271 94.8251 124.55 95.058 123.87C95.2908 123.191 95.6647 122.568 96.1551 122.043C96.6455 121.518 97.2413 121.103 97.9034 120.824C98.5656 120.546 99.2791 120.41 99.9973 120.427H250.864C252.363 120.449 253.801 121.028 254.896 122.052C255.991 123.075 256.666 124.47 256.789 125.965L261.864 198.554C261.93 199.266 261.846 199.984 261.617 200.661C261.387 201.339 261.017 201.96 260.531 202.484C260.045 203.009 259.454 203.425 258.796 203.706C258.138 203.986 257.428 204.125 256.713 204.113Z" fill="#508D4E"/>
<path opacity="0.4" d="M256.713 204.113H105.804C104.304 204.091 102.867 203.512 101.772 202.488C100.677 201.465 100.002 200.07 99.879 198.575L94.8039 125.986C94.7385 125.271 94.8251 124.55 95.058 123.87C95.2908 123.191 95.6647 122.568 96.1551 122.043C96.6455 121.518 97.2413 121.103 97.9034 120.824C98.5656 120.546 99.2791 120.41 99.9973 120.427H250.864C252.363 120.449 253.801 121.028 254.896 122.052C255.991 123.075 256.666 124.47 256.789 125.965L261.864 198.554C261.93 199.266 261.846 199.984 261.617 200.661C261.387 201.339 261.017 201.96 260.531 202.484C260.045 203.009 259.454 203.425 258.796 203.706C258.138 203.986 257.428 204.125 256.713 204.113Z" fill="white"/>
<path opacity="0.7" d="M256.477 200.672C256.747 200.676 257.014 200.624 257.262 200.518C257.51 200.412 257.733 200.255 257.917 200.057C258.1 199.859 258.24 199.625 258.327 199.37C258.415 199.115 258.447 198.844 258.423 198.575L253.348 125.986C253.303 125.421 253.048 124.893 252.635 124.505C252.221 124.118 251.678 123.898 251.111 123.889H100.201C99.9314 123.885 99.6634 123.938 99.4148 124.044C99.1663 124.15 98.9426 124.306 98.7583 124.504C98.574 124.701 98.433 124.935 98.3446 125.191C98.2561 125.446 98.222 125.717 98.2445 125.986L103.32 198.575C103.368 199.141 103.624 199.669 104.039 200.057C104.455 200.444 104.999 200.663 105.567 200.672H256.477Z" fill="white"/>
<path d="M142.684 157.996L103.277 197.844V198.565C103.363 199.726 105.072 200.661 107.104 200.661H190.801L142.684 157.996Z" fill="#508D4E"/>
<path opacity="0.3" d="M142.684 157.996L103.277 197.844V198.565C103.363 199.726 105.072 200.661 107.104 200.661H190.801L142.684 157.996Z" fill="white"/>
<path d="M258.23 195.791L207.994 151.975L158.974 200.672H254.896C256.918 200.672 258.509 199.737 258.423 198.576L258.23 195.791Z" fill="#508D4E"/>
<path d="M182.973 153.588C183.061 154.581 182.939 155.581 182.615 156.524C182.291 157.467 181.773 158.331 181.094 159.061C180.414 159.791 179.59 160.37 178.672 160.761C177.755 161.151 176.766 161.345 175.769 161.329C173.673 161.299 171.662 160.49 170.13 159.058C168.597 157.627 167.652 155.677 167.479 153.588C167.393 152.595 167.517 151.595 167.841 150.653C168.166 149.711 168.684 148.847 169.363 148.118C170.042 147.388 170.866 146.809 171.782 146.418C172.699 146.026 173.687 145.832 174.683 145.846C176.78 145.876 178.79 146.686 180.322 148.117C181.855 149.548 182.8 151.498 182.973 153.588Z" fill="#508D4E"/>
<path opacity="0.4" d="M182.973 153.588C183.061 154.581 182.939 155.581 182.615 156.524C182.291 157.467 181.773 158.331 181.094 159.061C180.414 159.791 179.59 160.37 178.672 160.761C177.755 161.151 176.766 161.345 175.769 161.329C173.673 161.299 171.662 160.49 170.13 159.058C168.597 157.627 167.652 155.677 167.479 153.588C167.393 152.595 167.517 151.595 167.841 150.653C168.166 149.711 168.684 148.847 169.363 148.118C170.042 147.388 170.866 146.809 171.782 146.418C172.699 146.026 173.687 145.832 174.683 145.846C176.78 145.876 178.79 146.686 180.322 148.117C181.855 149.548 182.8 151.498 182.973 153.588Z" fill="white"/>
<path d="M364.259 164.512L354.227 164.286C354.227 164.286 347.335 161.92 346.528 162.393L343.12 162.651C342.425 163.076 341.904 163.735 341.652 164.51C341.399 165.285 341.432 166.124 341.743 166.877L342.819 169.286C343.067 169.888 343.513 170.387 344.085 170.701C344.656 171.014 345.317 171.121 345.958 171.006L354.646 169.856L365.324 169.727L364.259 164.512Z" fill="#EEC1BB"/>
<path d="M413.903 140.856C413.903 140.856 409.602 136.985 401.57 142.555C394.14 147.716 383.829 158.243 380.065 158.684L358.474 162.985V171.425C358.474 171.425 373.581 170.501 380.108 170.028C387.721 169.479 395.495 163.641 399.108 159.447C403.484 154.447 412.57 145.77 413.903 140.856Z" fill="#508D4E"/>
<path opacity="0.1" d="M383.409 169.501C389.86 167.866 396.065 163.049 399.161 159.469C403.462 154.447 410.215 142.544 411.537 137.652C411.537 137.631 390.065 162.049 383.409 169.501Z" fill="black"/>
<path d="M458.859 370.571L464.858 368.517L464.256 358.13L463.224 348.657L453.794 349.7L456.472 360.743L458.859 370.571Z" fill="#FFC3BD"/>
<path d="M453.214 384.936C453.97 383.904 454.915 383.025 455.998 382.344C455.998 382.344 458.611 377.968 457.611 367.055L461.912 364.678C462.644 364.29 463.478 364.135 464.301 364.235C465.124 364.335 465.896 364.685 466.514 365.237C466.689 365.391 466.838 365.573 466.955 365.775C467.472 366.82 467.921 367.898 468.299 369.001C469.536 372.772 470.545 376.614 471.321 380.506L470.493 380.742L468.342 373.592C467.632 371.162 466.439 374.538 466.579 377.312C466.719 380.086 466.288 383.215 460.934 384.71C454.687 386.43 452.009 386.85 453.214 384.936Z" fill="#263238"/>
<path d="M457.461 363.065C457.461 363.065 457.719 368.108 457.461 373.818C457.512 376.72 457.001 379.604 455.956 382.312C455.956 382.312 460.171 381.99 461.224 378.828C462.278 375.667 462.3 365.807 466.493 365.248C466 364.649 465.441 364.108 464.826 363.635C463.891 362.883 457.461 363.065 457.461 363.065Z" fill="#FFC3BD"/>
<path d="M397.333 371.958L403.677 371.7L406.054 361.582L407.774 352.195L398.441 350.507L397.85 361.861L397.333 371.958Z" fill="#FFC3BD"/>
<path d="M387.828 384.086C388.851 383.319 390.007 382.747 391.237 382.398C391.237 382.398 395 378.946 397.151 368.205L401.946 367.13C402.759 366.971 403.601 367.064 404.36 367.397C405.119 367.729 405.758 368.285 406.193 368.99C406.316 369.186 406.406 369.4 406.462 369.624C406.66 370.776 406.782 371.94 406.828 373.108C406.937 377.073 406.804 381.041 406.43 384.989H405.57V377.463C405.57 374.925 403.484 377.828 402.828 380.527C402.172 383.226 400.871 386.097 395.301 386C388.807 386.011 386.119 385.602 387.828 384.086Z" fill="#263238"/>
<path d="M398.14 364.366C398.14 364.366 396.936 369.269 395.108 374.689C394.324 377.483 393.009 380.1 391.237 382.398C391.237 382.398 395.366 383.301 397.28 380.57C399.194 377.839 402.011 368.398 406.215 369.054C405.912 368.344 405.529 367.669 405.075 367.044C404.344 366.022 398.14 364.366 398.14 364.366Z" fill="#FFC3BD"/>
<path d="M396.549 290.433L397.968 358.764L406.366 359.646C406.366 359.646 412.817 335.238 414.269 310.733C414.591 305.088 413.258 298.497 413.881 294.035C414.43 290.121 416.032 287.68 418.182 278.831C419.569 273.197 421.096 266.251 422.365 259.541C423.505 253.466 424.43 247.585 424.806 243.026C425.772 241.685 426.635 240.272 427.386 238.8C431.379 231.29 432.792 222.676 431.408 214.284L401.495 206.317L396.549 290.433Z" fill="#263238"/>
<path opacity="0.2" d="M419.752 228.306C419.902 229.037 420.827 246.036 421.58 262.036C421.827 261.294 422.085 260.455 422.343 259.541C423.483 253.466 424.408 247.585 424.784 243.026C425.75 241.685 426.613 240.272 427.365 238.8C428.365 234.305 429.246 230.359 429.805 228.047L419.752 228.306Z" fill="black"/>
<path d="M415.537 210.629L434.891 292.67L455.762 357.743L464.052 356.195C464.052 356.195 463.256 330.97 457.665 307.067C456.364 301.551 453.203 295.627 452.525 291.175C451.934 287.261 452.719 284.476 452.278 275.369C451.751 264.348 450.289 249.8 446.429 239.284C446.429 239.284 453.955 224.521 446.536 209.715L415.537 210.629Z" fill="#263238"/>
<path d="M400.097 151.985C399.524 157.345 399.499 162.749 400.021 168.114C400.312 175.318 401.882 182.898 403.849 194.575C407.795 196.876 427.752 195.93 440.526 194.274C439.752 184.049 441.02 172.361 447.945 149.362C448.326 148.125 448.42 146.817 448.22 145.539C448.019 144.26 447.53 143.044 446.788 141.983C446.047 140.923 445.073 140.045 443.941 139.417C442.81 138.79 441.549 138.429 440.257 138.362C438.719 138.211 437.096 138.093 435.44 138.018C429.608 137.631 423.756 137.631 417.924 138.018C416.053 138.19 414.043 138.405 412.15 138.652C405.365 139.545 401.344 144.77 400.097 151.985Z" fill="#263238"/>
<path d="M403.849 194.575L440.526 194.274L448.332 214.274L419.752 225.058L402.387 222.22L403.849 194.575Z" fill="#263238"/>
<path d="M403.15 197.027C416.015 198.445 428.999 198.419 441.859 196.952C442.09 196.895 442.292 196.752 442.421 196.553C442.551 196.353 442.6 196.111 442.558 195.876V195.769C442.246 195.016 441.923 194.274 441.622 193.532C441.558 193.369 441.443 193.23 441.294 193.137C441.145 193.044 440.969 193.002 440.794 193.016C428.416 194.381 415.926 194.381 403.548 193.016C403.329 192.989 403.107 193.049 402.932 193.184C402.757 193.319 402.642 193.517 402.613 193.737V193.79C402.527 194.564 402.451 195.339 402.376 196.113C402.352 196.341 402.418 196.569 402.561 196.748C402.704 196.927 402.912 197.043 403.139 197.07L403.15 197.027Z" fill="white"/>
<path d="M425.945 249.52C425.989 250.38 426.234 251.217 426.662 251.965C427.09 252.712 427.688 253.347 428.408 253.82C429.128 254.292 429.949 254.588 430.804 254.684C431.66 254.779 432.526 254.672 433.332 254.369C441.203 251.445 454.074 253.735 459.837 248.757C460.256 241.155 447.031 202.349 448.332 182.264C449.633 162.178 452.117 144.63 449.515 140.878C447.364 137.792 438.956 137.265 435.945 137.179H434.87C434.87 137.179 428.246 143.071 426.268 157.264C425.179 166.48 424.601 175.748 424.537 185.027C424.139 206.908 425.15 232.52 425.945 249.52Z" fill="#508D4E"/>
<path opacity="0.2" d="M434.859 221.962L449.913 218.886L450.235 219.897C450.35 220.255 450.388 220.633 450.347 221.007C450.306 221.381 450.187 221.742 449.998 222.066C449.808 222.391 449.552 222.672 449.247 222.891C448.941 223.11 448.593 223.262 448.225 223.338L438.44 225.359C437.789 225.494 437.111 225.383 436.537 225.048C435.963 224.712 435.534 224.176 435.332 223.542L434.859 221.962Z" fill="black"/>
<path d="M408.645 186.017C408.172 203.371 408.645 224.639 409.656 249.23C409.86 254.402 404.903 254.025 400.043 253.025C392.817 251.542 389.947 252.079 389.947 252.079C389.947 252.079 401.484 211.973 399.624 184.801C397.764 157.63 399.054 148.039 403.462 143.018C406.537 139.491 412.161 138.287 415.29 137.878C416.623 137.706 417.44 137.674 417.44 137.674C411.817 144.91 409.312 161.576 408.645 186.017Z" fill="#508D4E"/>
<path d="M404.29 223.521L395.291 221.499L394.968 222.499C394.853 222.858 394.815 223.237 394.856 223.611C394.897 223.985 395.016 224.347 395.205 224.672C395.395 224.998 395.651 225.28 395.956 225.5C396.262 225.72 396.61 225.874 396.979 225.951L400.721 226.929C401.37 227.064 402.047 226.952 402.619 226.617C403.191 226.281 403.618 225.745 403.817 225.112L404.29 223.521Z" fill="#508D4E"/>
<path opacity="0.2" d="M404.29 223.521L395.291 221.499L394.968 222.499C394.853 222.858 394.815 223.237 394.856 223.611C394.897 223.985 395.016 224.347 395.205 224.672C395.395 224.998 395.651 225.28 395.956 225.5C396.262 225.72 396.61 225.874 396.979 225.951L400.721 226.929C401.37 227.064 402.047 226.952 402.619 226.617C403.191 226.281 403.618 225.745 403.817 225.112L404.29 223.521Z" fill="black"/>
<path d="M430.892 120.427C429.892 125.803 428.946 135.652 432.666 138.889C432.666 138.889 428.429 142.899 419.107 147.189C416.182 146.706 416.258 140.243 416.258 140.243C422.139 138.34 421.957 133.964 420.892 129.91L430.892 120.427Z" fill="#FFC3BD"/>
<path opacity="0.2" d="M426.806 124.255L420.881 129.878C421.145 130.821 421.325 131.785 421.419 132.76C423.666 132.254 426.731 129.534 426.956 127.115C427.078 126.16 427.027 125.191 426.806 124.255Z" fill="black"/>
<path d="M434.526 109.416C433.633 118.072 433.451 121.76 428.87 126.244C422.053 132.975 411.72 130.545 410.01 121.943C408.494 114.19 410.225 101.32 418.784 97.7821C420.599 96.9403 422.607 96.6022 424.597 96.8031C426.587 97.004 428.486 97.7366 430.096 98.9241C431.706 100.112 432.966 101.71 433.746 103.552C434.525 105.395 434.795 107.413 434.526 109.395V109.416Z" fill="#FFC3BD"/>
<path d="M415.043 112.9C414.078 114.454 412.918 115.878 411.591 117.136C411.908 117.445 412.289 117.678 412.708 117.817C413.127 117.957 413.573 118 414.011 117.943L415.043 112.9Z" fill="#BA4D3C"/>
<path d="M417.129 121.179C416.726 121.201 416.322 121.18 415.925 121.115C415.871 121.104 415.824 121.074 415.792 121.03C415.76 120.987 415.746 120.932 415.752 120.878C415.765 120.822 415.799 120.773 415.847 120.741C415.895 120.709 415.954 120.697 416.011 120.706C416.913 120.829 417.832 120.748 418.699 120.469C419.566 120.189 420.36 119.72 421.021 119.093C421.04 119.074 421.063 119.059 421.088 119.049C421.113 119.038 421.139 119.033 421.166 119.033C421.193 119.033 421.22 119.038 421.245 119.049C421.27 119.059 421.292 119.074 421.311 119.093C421.351 119.134 421.373 119.188 421.373 119.244C421.373 119.3 421.351 119.354 421.311 119.395C420.186 120.487 418.696 121.123 417.129 121.179Z" fill="#263238"/>
<path d="M432.601 107.234C430.203 113.19 427.784 119.47 430.16 125.437C432.817 123.305 434.986 120.627 436.52 117.585C438.054 114.543 438.917 111.208 439.053 107.804C436.182 108.105 435.268 108.33 432.601 107.234Z" fill="#263238"/>
<path d="M432.601 107.234C430.203 113.19 427.784 119.47 430.16 125.437C432.817 123.305 434.986 120.627 436.52 117.585C438.054 114.543 438.917 111.208 439.053 107.804C436.182 108.105 435.268 108.33 432.601 107.234Z" fill="#263238"/>
<path d="M434.73 118.093C434.348 118.834 433.817 119.487 433.169 120.011C432.521 120.535 431.771 120.918 430.967 121.136C428.956 121.577 428.171 119.265 428.935 117.007C429.644 114.975 431.483 112.309 433.408 112.879C435.332 113.448 435.773 116.126 434.73 118.093Z" fill="#FFC3BD"/>
<path opacity="0.2" d="M437.408 158.565L430.268 152.652L439.859 150.146C439.859 150.146 436.44 137.243 435.945 137.179H434.87C434.87 137.179 428.247 143.071 426.268 157.264C425.179 166.48 424.601 175.748 424.537 185.027L437.408 158.565Z" fill="white"/>
<path opacity="0.2" d="M417.43 137.717C411.871 144.888 409.322 161.555 408.656 186.038C405.28 175.705 403.763 159.727 403.763 159.727L408.064 153.566L405.086 152.286L414.193 138.383C414.503 138.163 414.848 137.999 415.215 137.899C415.938 137.715 416.686 137.653 417.43 137.717Z" fill="white"/>
<path opacity="0.1" d="M450.052 161.286L446.128 154.383C446.128 154.383 442.096 168.576 447.611 188.403C448.3 179.059 449.224 169.372 450.052 161.286Z" fill="black"/>
<path d="M460.665 209.672L463.332 220.123L461.278 225.994C461.076 226.327 460.953 226.701 460.918 227.089C460.882 227.476 460.936 227.867 461.074 228.23L461.88 230.381C462.086 230.921 462.467 231.375 462.962 231.672C463.458 231.968 464.039 232.089 464.611 232.015L469.084 231.424C469.45 231.379 469.801 231.255 470.114 231.062C470.427 230.869 470.695 230.61 470.899 230.304C471.103 229.998 471.239 229.651 471.297 229.288C471.355 228.924 471.334 228.553 471.235 228.198L468.665 219.94L468.127 208.037L460.665 209.672Z" fill="#EEC1BB"/>
<path d="M449.515 140.856C449.515 140.856 458.934 150.211 465.729 183.694C467.93 194.089 469.453 204.616 470.288 215.209L461.213 217.198C458.056 199.973 453.459 183.043 447.472 166.587C445.418 160.824 440.751 150.017 449.515 140.856Z" fill="#508D4E"/>
<path d="M432.526 97.2767C433.921 97.4789 435.256 97.978 436.441 98.7405C437.627 99.5029 438.635 100.511 439.397 101.696C440.159 102.882 440.659 104.217 440.861 105.612C441.063 107.007 440.963 108.429 440.569 109.782C440.203 111.056 439.4 112.16 438.3 112.9C437.966 111.62 437.956 110.255 437.622 108.975C437.351 109.558 436.956 110.074 436.466 110.49C435.976 110.905 435.402 111.21 434.784 111.384C434.168 111.591 433.515 111.665 432.868 111.602C432.222 111.539 431.596 111.34 431.031 111.018C431.031 111.018 431.859 108.868 431.58 107.997C431.52 108.434 431.365 108.852 431.128 109.223C430.89 109.595 430.575 109.91 430.203 110.147C429.841 110.333 429.439 110.43 429.031 110.43C428.624 110.43 428.222 110.333 427.859 110.147C428.157 109.501 428.266 108.784 428.175 108.079C428.084 107.373 427.795 106.707 427.343 106.158C427.152 106.862 426.815 107.518 426.354 108.083C426.001 108.405 425.566 108.622 425.097 108.709C424.627 108.797 424.143 108.751 423.698 108.578C424.165 108.094 424.426 107.449 424.426 106.776C424.426 106.104 424.165 105.459 423.698 104.975C423.236 104.481 422.386 104.115 421.924 104.61C420.311 106.341 418.139 107.061 416.032 105.975C416.606 105.844 417.114 105.511 417.465 105.038C417.816 104.565 417.986 103.982 417.946 103.395C416.567 103.11 415.133 103.28 413.86 103.879C413.03 104.255 412.304 104.825 411.742 105.542C411.18 106.259 410.8 107.101 410.634 107.997C410.085 104.771 411.107 100.728 413.526 98.5133C416.035 96.3468 419.233 95.1426 422.548 95.1155C425.913 94.9972 429.279 96.7714 432.526 97.2767Z" fill="#508D4E"/>
<path d="M420.225 112.169C420.171 112.9 419.741 113.491 419.279 113.481C418.817 113.47 418.483 112.879 418.537 112.158C418.591 111.438 419.021 110.836 419.483 110.836C419.946 110.836 420.279 111.438 420.225 112.169Z" fill="#263238"/>
<path d="M412.742 111.954C412.688 112.674 412.269 113.266 411.796 113.266C411.322 113.266 411 112.664 411.064 111.932C411.129 111.201 411.537 110.621 412.011 110.631C412.484 110.642 412.806 111.223 412.742 111.954Z" fill="#263238"/>
<path d="M412.204 110.663L410.537 110.137C410.537 110.137 411.312 111.524 412.204 110.663Z" fill="#263238"/>
<path d="M422.849 108.76C422.794 108.754 422.74 108.737 422.692 108.709C422.644 108.681 422.602 108.644 422.569 108.599C422.299 108.156 421.923 107.787 421.474 107.526C421.025 107.265 420.518 107.12 419.999 107.104C419.949 107.11 419.898 107.106 419.849 107.091C419.8 107.076 419.755 107.051 419.717 107.017C419.678 106.984 419.647 106.943 419.625 106.897C419.604 106.851 419.592 106.801 419.591 106.75C419.596 106.634 419.644 106.525 419.726 106.444C419.807 106.362 419.916 106.314 420.032 106.309C420.68 106.323 421.314 106.499 421.877 106.82C422.44 107.141 422.915 107.597 423.257 108.147C423.308 108.247 423.321 108.363 423.294 108.471C423.266 108.58 423.199 108.675 423.107 108.739C423.026 108.775 422.935 108.782 422.849 108.76Z" fill="#263238"/>
<path d="M410.312 108.223C410.261 108.232 410.209 108.231 410.158 108.22C410.108 108.208 410.06 108.187 410.018 108.157C409.976 108.127 409.94 108.089 409.913 108.044C409.886 108 409.868 107.951 409.86 107.9C409.848 107.84 409.851 107.778 409.87 107.719C409.889 107.661 409.922 107.608 409.968 107.567C410.369 107.008 410.894 106.55 411.503 106.229C412.111 105.908 412.785 105.733 413.473 105.717C413.525 105.72 413.576 105.733 413.622 105.756C413.669 105.779 413.711 105.81 413.745 105.85C413.779 105.889 413.805 105.934 413.821 105.984C413.837 106.033 413.843 106.085 413.839 106.137C413.828 106.251 413.774 106.356 413.688 106.432C413.602 106.508 413.491 106.549 413.376 106.545C412.832 106.566 412.299 106.711 411.82 106.97C411.341 107.229 410.928 107.595 410.613 108.04C410.541 108.138 410.432 108.204 410.312 108.223Z" fill="#263238"/>
<path d="M419.688 110.889L418.021 110.362C418.021 110.362 418.795 111.739 419.688 110.889Z" fill="#263238"/>
<path d="M429.111 118.918L430.359 118.818L430.259 117.571L429.012 117.671L429.111 118.918Z" fill="#508D4E"/>
</svg>
